<svg width="92" height="30" viewBox="0 0 92 30" fill="none" xmlns="http://www.w3.org/2000/svg">
<path d="M76.2938 25.0435V11.3478H79.8458V12.8543C80.3316 12.2152 80.9312 11.7283 81.6446 11.3935C82.358 11.0587 83.1246 10.8913 83.9443 10.8913C84.9158 10.8913 85.819 11.1272 86.6538 11.5989C87.5039 12.0554 88.187 12.7326 88.7031 13.6304C89.2344 14.513 89.5 15.5859 89.5 16.8489V25.0435H85.5382V17.3739C85.5382 16.613 85.3105 15.9359 84.8551 15.3424C84.3997 14.7489 83.747 14.4522 82.8969 14.4522C82.2138 14.4522 81.5991 14.688 81.0526 15.1598C80.5213 15.6163 80.2557 16.3391 80.2557 17.3283V25.0435H76.2938Z" fill="black" style="fill:black;fill-opacity:1;"/>
<path d="M65.5991 25.4088C64.3392 25.4088 63.1931 25.0816 62.1609 24.4272C61.1287 23.7729 60.3014 22.9055 59.6791 21.8251C59.0719 20.7294 58.7683 19.5196 58.7683 18.1957C58.7683 16.8718 59.0719 15.662 59.6791 14.5664C60.3014 13.4707 61.1287 12.6033 62.1609 11.9642C63.1931 11.3098 64.3392 10.9827 65.5991 10.9827C66.4795 10.9827 67.284 11.1424 68.0126 11.462C68.7413 11.7664 69.3636 12.1924 69.8797 12.7403V11.3479H73.2951V25.0435H69.8797V23.6511C69.3636 24.199 68.7413 24.6327 68.0126 24.9522C67.284 25.2566 66.4795 25.4088 65.5991 25.4088ZM66.0773 21.9164C66.7452 21.9164 67.3523 21.749 67.8988 21.4142C68.4453 21.0794 68.8779 20.6305 69.1966 20.0674C69.5306 19.5044 69.6976 18.8805 69.6976 18.1957C69.6976 17.5109 69.5306 16.887 69.1966 16.324C68.8779 15.7609 68.4453 15.312 67.8988 14.9772C67.3523 14.6424 66.7452 14.4751 66.0773 14.4751C65.4094 14.4751 64.8022 14.6424 64.2557 14.9772C63.7092 15.312 63.269 15.7609 62.9351 16.324C62.6163 16.887 62.4569 17.5109 62.4569 18.1957C62.4569 18.8805 62.6163 19.5044 62.9351 20.0674C63.269 20.6305 63.7092 21.0794 64.2557 21.4142C64.8022 21.749 65.4094 21.9164 66.0773 21.9164Z" fill="black" style="fill:black;fill-opacity:1;"/>
<path d="M47.6152 25.0435V4.5H58.5445V7.92391H51.5771V11.2109H57.8614V14.6348H51.5771V25.0435H47.6152Z" fill="black" style="fill:black;fill-opacity:1;"/>
<path d="M30.9865 25.0435V11.3478H34.5385V12.8543C35.0242 12.2152 35.6238 11.7283 36.3372 11.3935C37.0507 11.0587 37.8172 10.8913 38.6369 10.8913C39.6084 10.8913 40.5116 11.1272 41.3465 11.5989C42.1965 12.0554 42.8796 12.7326 43.3957 13.6304C43.927 14.513 44.1926 15.5859 44.1926 16.8489V25.0435H40.2308V17.3739C40.2308 16.613 40.0031 15.9359 39.5477 15.3424C39.0923 14.7489 38.4396 14.4522 37.5895 14.4522C36.9065 14.4522 36.2917 14.688 35.7452 15.1598C35.2139 15.6163 34.9483 16.3391 34.9483 17.3283V25.0435H30.9865Z" fill="black" style="fill:black;fill-opacity:1;"/>
<path d="M20.3233 25.5C19.367 25.5 18.4638 25.2718 17.6137 24.8152C16.7637 24.3435 16.073 23.6663 15.5417 22.7837C15.0256 21.8859 14.7676 20.8054 14.7676 19.5424V11.3478H18.7294V19.0174C18.7294 19.7783 18.9571 20.4554 19.4125 21.0489C19.8831 21.6424 20.5358 21.9391 21.3707 21.9391C22.0537 21.9391 22.6609 21.6957 23.1922 21.2087C23.7387 20.7065 24.0119 19.9913 24.0119 19.0631V11.3478H27.9738V25.0435H24.3762V23.6054C23.8905 24.2141 23.2909 24.6859 22.5774 25.0207C21.8792 25.3402 21.1278 25.5 20.3233 25.5Z" fill="black" style="fill:black;fill-opacity:1;"/>
<path d="M2.5 25.0435V4.5H13.4293V7.92391H6.46185V11.2109H12.7462V14.6348H6.46185V25.0435H2.5Z" fill="black" style="fill:black;fill-opacity:1;"/>
</svg>
