<svg width="80" height="30" viewBox="0 0 80 30" fill="none" xmlns="http://www.w3.org/2000/svg">
<path fill-rule="evenodd" clip-rule="evenodd" d="M29.342 11.6331C30.714 11.6331 31.9564 11.9548 33.0693 12.5983C34.1973 13.2419 35.0896 14.1098 35.7451 15.2023C36.4158 16.2798 36.7507 17.4847 36.7507 18.8165C36.7507 20.1335 36.4157 21.3383 35.7451 22.4308C35.0896 23.5232 34.1973 24.3912 33.0693 25.0347C31.9564 25.6783 30.714 26 29.342 26C27.9853 26 26.7429 25.6783 25.6148 25.0347C24.4867 24.3912 23.5873 23.5233 22.9165 22.4308C22.261 21.3382 21.9333 20.1336 21.9333 18.8165C21.9333 17.4846 22.261 16.2799 22.9165 15.2023C23.5873 14.1098 24.4867 13.2419 25.6148 12.5983C26.7429 11.9548 27.9853 11.6331 29.342 11.6331ZM29.342 15.1344C28.6561 15.1344 28.0312 15.2998 27.4672 15.629C26.9185 15.9582 26.4763 16.3994 26.141 16.953C25.8208 17.5067 25.6606 18.1281 25.6606 18.8165C25.6606 19.49 25.8208 20.1114 26.141 20.6801C26.4763 21.2337 26.9185 21.6749 27.4672 22.0041C28.0312 22.3333 28.6561 22.4987 29.342 22.4987C30.028 22.4987 30.6456 22.3333 31.1944 22.0041C31.7583 21.6749 32.2006 21.2337 32.5207 20.6801C32.856 20.1114 33.0235 19.49 33.0235 18.8165C33.0235 18.1281 32.856 17.5067 32.5207 16.953C32.2006 16.3994 31.7583 15.9582 31.1944 15.629C30.6456 15.2997 30.028 15.1344 29.342 15.1344Z" fill="black" style="fill:black;fill-opacity:1;"/>
<path fill-rule="evenodd" clip-rule="evenodd" d="M45.8062 11.6331C47.1782 11.6331 48.4206 11.9548 49.5335 12.5983C50.6615 13.2419 51.5538 14.1098 52.2093 15.2023C52.88 16.2798 53.2149 17.4847 53.2149 18.8165C53.2149 20.1335 52.8799 21.3383 52.2093 22.4308C51.5538 23.5232 50.6615 24.3912 49.5335 25.0347C48.4206 25.6783 47.1782 26 45.8062 26C44.4494 26 43.2071 25.6783 42.079 25.0347C40.9509 24.3912 40.0515 23.5233 39.3807 22.4308C38.7252 21.3382 38.3975 20.1336 38.3975 18.8165C38.3975 17.4846 38.7252 16.2799 39.3807 15.2023C40.0515 14.1098 40.9509 13.2419 42.079 12.5983C43.2071 11.9548 44.4494 11.6331 45.8062 11.6331ZM45.8062 15.1344C45.1203 15.1344 44.4954 15.2998 43.9314 15.629C43.3827 15.9582 42.9405 16.3994 42.6052 16.953C42.285 17.5067 42.1248 18.1281 42.1248 18.8165C42.1248 19.49 42.285 20.1114 42.6052 20.6801C42.9405 21.2337 43.3827 21.6749 43.9314 22.0041C44.4954 22.3333 45.1203 22.4987 45.8062 22.4987C46.4922 22.4987 47.1098 22.3333 47.6586 22.0041C48.2225 21.6749 48.6648 21.2337 48.9849 20.6801C49.3202 20.1114 49.4877 19.49 49.4877 18.8165C49.4877 18.1281 49.3202 17.5067 48.9849 16.953C48.6648 16.3994 48.2225 15.9582 47.6586 15.629C47.1098 15.2997 46.4922 15.1344 45.8062 15.1344Z" fill="black" style="fill:black;fill-opacity:1;"/>
<path d="M13.4761 8.71435H6.47865V11.9469H12.7901V15.3143H6.47865V25.5513H2.5V5.34696H13.4761V8.71435Z" fill="black" style="fill:black;fill-opacity:1;"/>
<path d="M19.5693 25.5513H15.5907V4H19.5693V25.5513Z" fill="black" style="fill:black;fill-opacity:1;"/>
<path d="M71.8745 11.6331C72.8502 11.6331 73.7649 11.8576 74.6186 12.3066C75.4722 12.7406 76.1655 13.3841 76.699 14.2371C77.2326 15.0752 77.5 16.1004 77.5 17.3127V25.5513H73.5213V17.8733C73.5213 17.1551 73.3069 16.5194 72.8802 15.9657C72.4534 15.4121 71.8365 15.1345 71.0287 15.1344C70.6019 15.1344 70.1895 15.2396 69.7931 15.4491C69.4122 15.6437 69.0995 15.9435 68.8557 16.3474C68.6272 16.7364 68.5128 17.2301 68.5127 17.8283V25.5513H64.5341V17.8733C64.534 17.3945 64.435 16.9453 64.2368 16.5263C64.0539 16.1074 63.772 15.7705 63.391 15.5161C63.0252 15.2617 62.575 15.1344 62.0414 15.1344C61.6147 15.1345 61.2031 15.2397 60.8068 15.4491C60.4257 15.6437 60.1133 15.9434 59.8694 16.3474C59.6409 16.7364 59.5264 17.23 59.5264 17.8283V25.5513H55.5477V12.0817H59.1152V13.5636C59.6029 12.9352 60.2045 12.4559 60.9208 12.1267C61.6525 11.7975 62.4151 11.6331 63.2078 11.6331C64.0158 11.6331 64.7784 11.7975 65.4949 12.1267C66.2113 12.456 66.8137 12.9351 67.3015 13.5636C67.835 12.9351 68.4977 12.456 69.2903 12.1267C70.083 11.7975 70.9446 11.6331 71.8745 11.6331Z" fill="black" style="fill:black;fill-opacity:1;"/>
</svg>
