<svg width="24" height="24" viewBox="0 0 24 24" fill="none" xmlns="http://www.w3.org/2000/svg">
<path d="M9.52497 21.1C8.79163 20.5 8.3333 19.7333 8.14997 18.8C7.26663 19.0833 6.37497 19.0667 5.47497 18.75C4.57497 18.4333 3.8833 17.8833 3.39997 17.1C2.89997 16.3 2.71663 15.4125 2.84997 14.4375C2.9833 13.4625 3.41663 12.65 4.14997 12C3.44997 11.3667 3.02913 10.5833 2.88747 9.65C2.7458 8.71667 2.89997 7.85 3.34997 7.05C3.79997 6.25 4.47913 5.67083 5.38747 5.3125C6.2958 4.95417 7.19997 4.91667 8.09997 5.2C8.2833 4.26667 8.74163 3.5 9.47497 2.9C10.2083 2.3 11.05 2 12 2C12.95 2 13.7916 2.3 14.525 2.9C15.2583 3.5 15.7166 4.26667 15.9 5.2C16.8333 4.91667 17.7375 4.94167 18.6125 5.275C19.4875 5.60833 20.1666 6.2 20.65 7.05C21.1 7.88333 21.2625 8.75417 21.1375 9.6625C21.0125 10.5708 20.5833 11.35 19.85 12C20.5833 12.65 21.0208 13.4542 21.1625 14.4125C21.3041 15.3708 21.15 16.2667 20.7 17.1C20.2166 17.95 19.5375 18.5167 18.6625 18.8C17.7875 19.0833 16.8833 19.0833 15.95 18.8C15.7666 19.7333 15.3083 20.5 14.575 21.1C13.8416 21.7 13 22 12.05 22C11.1 22 10.2583 21.7 9.52497 21.1ZM12 16C13.1 16 14.0416 15.6083 14.825 14.825C15.6083 14.0417 16 13.1 16 12C16 10.9 15.6083 9.95833 14.825 9.175C14.0416 8.39167 13.1 8 12 8C10.9 8 9.9583 8.39167 9.17497 9.175C8.39163 9.95833 7.99997 10.9 7.99997 12C7.99997 13.1 8.39163 14.0417 9.17497 14.825C9.9583 15.6083 10.9 16 12 16Z" fill="#1C1B1F" style="fill:#1C1B1F;fill:color(display-p3 0.1098 0.1059 0.1216);fill-opacity:1;"/>
</svg>
