<svg width="24" height="24" viewBox="0 0 24 24" fill="none" xmlns="http://www.w3.org/2000/svg">
<path d="M12 22C9.50625 22 7.38281 21.1575 5.62969 19.4725C3.87656 17.7875 3 15.7363 3 13.3187C3 12.1648 3.22969 11.0614 3.68906 10.0082C4.14844 8.95513 4.8 8.02564 5.64375 7.21978L10.425 2.63187C10.65 2.4304 10.8984 2.27473 11.1703 2.16484C11.4422 2.05495 11.7188 2 12 2C12.2812 2 12.5578 2.05495 12.8297 2.16484C13.1016 2.27473 13.35 2.4304 13.575 2.63187L18.3563 7.21978C19.2 8.02564 19.8516 8.95513 20.3109 10.0082C20.7703 11.0614 21 12.1648 21 13.3187C21 15.7363 20.1234 17.7875 18.3703 19.4725C16.6172 21.1575 14.4938 22 12 22Z" fill="#1C1B1F" style="fill:#1C1B1F;fill:color(display-p3 0.1098 0.1059 0.1216);fill-opacity:1;"/>
</svg>
