<svg width="24" height="24" viewBox="0 0 24 24" fill="none" xmlns="http://www.w3.org/2000/svg">
<path d="M6.25 16H7.75V15.75C7.75 14.5667 8.1625 13.5625 8.9875 12.7375C9.8125 11.9125 10.8167 11.5 12 11.5C13.1833 11.5 14.1875 11.9125 15.0125 12.7375C15.8375 13.5625 16.25 14.5667 16.25 15.75V16H17.75V15.75C17.75 14.15 17.1917 12.7917 16.075 11.675C14.9583 10.5583 13.6 10 12 10C10.4 10 9.04167 10.5583 7.925 11.675C6.80833 12.7917 6.25 14.15 6.25 15.75V16ZM7.1 9.25C7.78333 9.15 8.50417 8.88333 9.2625 8.45C10.0208 8.01667 10.625 7.525 11.075 6.975L9.925 6.025C9.59167 6.425 9.12917 6.79167 8.5375 7.125C7.94583 7.45833 7.4 7.66667 6.9 7.75L7.1 9.25ZM16.9 9.25L17.1 7.75C16.6 7.66667 16.0542 7.45833 15.4625 7.125C14.8708 6.79167 14.4083 6.425 14.075 6.025L12.925 6.975C13.375 7.525 13.9792 8.01667 14.7375 8.45C15.4958 8.88333 16.2167 9.15 16.9 9.25ZM8.1 21.2125C6.88333 20.6875 5.825 19.975 4.925 19.075C4.025 18.175 3.3125 17.1167 2.7875 15.9C2.2625 14.6833 2 13.3833 2 12C2 10.6167 2.2625 9.31667 2.7875 8.1C3.3125 6.88333 4.025 5.825 4.925 4.925C5.825 4.025 6.88333 3.3125 8.1 2.7875C9.31667 2.2625 10.6167 2 12 2C13.3833 2 14.6833 2.2625 15.9 2.7875C17.1167 3.3125 18.175 4.025 19.075 4.925C19.975 5.825 20.6875 6.88333 21.2125 8.1C21.7375 9.31667 22 10.6167 22 12C22 13.3833 21.7375 14.6833 21.2125 15.9C20.6875 17.1167 19.975 18.175 19.075 19.075C18.175 19.975 17.1167 20.6875 15.9 21.2125C14.6833 21.7375 13.3833 22 12 22C10.6167 22 9.31667 21.7375 8.1 21.2125Z" fill="black" style="fill:black;fill-opacity:1;"/>
</svg>
