<svg width="24" height="24" viewBox="0 0 24 24" fill="none" xmlns="http://www.w3.org/2000/svg">
<path d="M10.5 15.75H13.5L12 12.75L10.5 15.75ZM8.5 13C9.05 13 9.52083 12.8042 9.9125 12.4125C10.3042 12.0208 10.5 11.55 10.5 11C10.5 10.45 10.3042 9.97917 9.9125 9.5875C9.52083 9.19583 9.05 9 8.5 9C7.95 9 7.47917 9.19583 7.0875 9.5875C6.69583 9.97917 6.5 10.45 6.5 11C6.5 11.55 6.69583 12.0208 7.0875 12.4125C7.47917 12.8042 7.95 13 8.5 13ZM15.5 13C16.05 13 16.5208 12.8042 16.9125 12.4125C17.3042 12.0208 17.5 11.55 17.5 11C17.5 10.45 17.3042 9.97917 16.9125 9.5875C16.5208 9.19583 16.05 9 15.5 9C14.95 9 14.4792 9.19583 14.0875 9.5875C13.6958 9.97917 13.5 10.45 13.5 11C13.5 11.55 13.6958 12.0208 14.0875 12.4125C14.4792 12.8042 14.95 13 15.5 13ZM6 22V17.75C5.35 17.4667 4.77917 17.0875 4.2875 16.6125C3.79583 16.1375 3.37917 15.6 3.0375 15C2.69583 14.4 2.4375 13.7583 2.2625 13.075C2.0875 12.3917 2 11.7 2 11C2 8.36667 2.93333 6.20833 4.8 4.525C6.66667 2.84167 9.06667 2 12 2C14.9333 2 17.3333 2.84167 19.2 4.525C21.0667 6.20833 22 8.36667 22 11C22 11.7 21.9125 12.3917 21.7375 13.075C21.5625 13.7583 21.3042 14.4 20.9625 15C20.6208 15.6 20.2042 16.1375 19.7125 16.6125C19.2208 17.0875 18.65 17.4667 18 17.75V22H15V20H13V22H11V20H9V22H6Z" fill="#1C1B1F" style="fill:#1C1B1F;fill:color(display-p3 0.1098 0.1059 0.1216);fill-opacity:1;"/>
</svg>
