<svg width="26" height="17" viewBox="0 0 26 17" fill="none" xmlns="http://www.w3.org/2000/svg">
<path d="M2.17285 8.65173C2.17285 8.65173 8.50285 1.07173 13.6729 1.82173C18.8429 2.57173 23.4229 4.40173 23.4229 7.32173C23.4229 10.2417 20.1929 14.6517 16.5928 14.3217C12.9928 13.9917 2.83285 12.4917 2.75285 10.4117C2.67285 8.33173 2.17285 8.66173 2.17285 8.66173V8.65173Z" fill="#C1E3ED" style="fill:#C1E3ED;fill:color(display-p3 0.7569 0.8902 0.9294);fill-opacity:1;"/>
<path d="M20.0128 3.73254C18.5428 2.97254 16.6628 3.45254 15.8628 4.90254C15.5928 5.39254 15.7328 7.09254 16.0128 7.56254C16.8428 8.98254 17.5928 8.73254 18.9328 8.73254C20.2728 8.73254 22.2628 7.15254 22.2628 6.23254C22.2628 5.61254 21.4328 4.46254 20.0128 3.73254Z" fill="white" style="fill:white;fill-opacity:1;"/>
<path d="M15.8828 16.3433C10.7628 16.3433 0.902795 13.3033 0.132795 10.2733C-0.137205 9.20333 -0.127205 7.54333 1.45279 5.67333C4.42279 2.16333 11.6428 -0.406672 17.2228 0.0533282C22.0028 0.453328 25.6828 3.93333 25.6028 7.99333C25.5228 12.3033 21.7228 15.8733 16.7728 16.3033C16.4928 16.3233 16.1928 16.3433 15.8828 16.3433ZM4.04279 9.01333C5.76279 10.2333 12.5028 12.6633 16.4328 12.3233C19.3428 12.0733 21.5628 10.1833 21.6028 7.92333C21.6428 6.03333 19.4828 4.26333 16.8928 4.04333C12.2628 3.66333 6.4228 5.99333 4.5028 8.26333C4.2728 8.54333 4.11279 8.80333 4.04279 9.01333Z" fill="#6F97A5" style="fill:#6F97A5;fill:color(display-p3 0.4353 0.5922 0.6471);fill-opacity:1;"/>
</svg>
