<svg width="54" height="54" viewBox="0 0 54 54" fill="none" xmlns="http://www.w3.org/2000/svg">
<path d="M26.9481 14.1719C25.2619 14.1719 19.2691 25.0504 18.7003 29.6517C18.1315 34.253 19.5941 39.6771 26.0441 39.8193C32.494 39.9615 34.5966 34.4663 33.8348 29.6111C33.073 24.7559 28.7866 14.1719 26.9379 14.1719H26.9481Z" fill="#C1E3ED" style="fill:#C1E3ED;fill:color(display-p3 0.7569 0.8902 0.9294);fill-opacity:1;"/>
<path d="M30.4317 32.9216C28.3901 31.5707 24.5607 32.3325 23.3926 34.4859C22.255 36.3345 23.5755 38.945 26.0234 39.2192C29.6699 39.788 33.3469 35.2883 30.645 33.074L30.4317 32.9115V32.9216Z" fill="white" style="fill:white;fill-opacity:1;"/>
<path d="M26.6526 41.8608C26.551 41.8608 26.4494 41.8608 26.3479 41.8608C23.4022 41.7998 20.9644 40.7536 19.3189 38.844C16.6983 35.807 16.7593 31.6323 17.0335 29.418C17.4703 25.8629 23.3921 12.1504 27.2925 12.1504C31.8532 12.1504 35.9872 27.9756 36.2005 29.3062C36.7896 33.0645 35.9669 36.5484 33.9557 38.8542C32.747 40.2356 30.5022 41.8709 26.6627 41.8709L26.6526 41.8608ZM27.2417 16.8329C25.322 19.3215 21.4926 26.4418 21.066 29.9055C20.741 32.5464 21.2285 34.8318 22.3865 36.1828C23.2905 37.229 24.6109 37.7572 26.4393 37.7978C28.3996 37.8384 29.9131 37.3001 30.8882 36.1726C32.0969 34.7912 32.5743 32.455 32.1782 29.9258C31.5891 26.1777 28.8466 19.3215 27.2315 16.8329H27.2417Z" fill="#6F97A5" style="fill:#6F97A5;fill:color(display-p3 0.4353 0.5922 0.6471);fill-opacity:1;"/>
</svg>
