<svg width="196" height="196" viewBox="0 0 196 196" fill="none" xmlns="http://www.w3.org/2000/svg">
<path d="M97.1092 39.8025L84.3219 34.8789L60.9082 45.8951L52.6432 67.1481L50.8721 78.7546L61.6993 92.5336L70.3422 96.3591L73.1169 91.7425L94.1692 81.3167L103.816 68.1281L104.016 51.9876C104.016 51.9876 105.988 47.2647 110.9 50.0158C115.812 52.7668 125.269 60.7367 118.775 82.096C115.611 92.4982 96.7314 110.433 94.181 123.421C94.181 123.421 91.2292 161.004 95.161 163.767C99.0928 166.53 111.49 168.69 111.301 157.662C111.113 146.634 105.787 136.799 109.53 123.811C113.273 110.823 125.671 98.4254 128.812 86.6182C131.952 74.8109 137.466 64.9755 128.021 48.835C118.575 32.6946 97.121 39.7789 97.121 39.7789L97.1092 39.8025Z" fill="#9CBE6A" style="fill:#9CBE6A;fill:color(display-p3 0.6118 0.7451 0.4157);fill-opacity:1;"/>
<path d="M105.539 159.669C101.69 159.669 97.4625 158.595 95.231 157.922C91.2992 156.753 91.0512 153.801 90.9095 152.03C90.8859 151.77 90.8623 151.487 90.8269 151.191C90.5081 148.405 90.1893 145.394 89.9886 142.301C89.5281 135.252 89.8233 129.549 90.8977 124.342C92.2201 117.966 94.9122 111.826 99.1155 105.557C101.087 102.617 103.354 99.6884 105.562 96.8546C109.659 91.565 113.898 86.11 116 80.785C118.692 73.2402 119.011 63.6291 116.767 56.9698C115.61 53.2033 111.49 51.7746 107.912 52.0108H107.794C107.522 52.0108 107.263 52.0462 107.026 52.0816C107.074 53.1797 107.18 54.4195 107.298 55.7064C107.558 58.5756 107.817 61.5392 107.558 64.2785C107.416 72.886 101.737 81.3045 93.389 85.2363C90.6498 86.5823 87.6035 87.2672 84.6399 87.9402C81.9242 88.5542 79.3502 89.1445 77.1541 90.1835C75.442 91.0337 73.3522 92.9937 72.384 94.0091C70.7546 95.6857 69.2314 96.1934 66.7519 95.9101L65.2878 95.7448C61.9936 95.3787 57.0228 94.8356 54.8739 94.5522C52.2054 94.2925 50.458 92.2852 50.5878 89.6286L50.6233 86.8775C50.6587 83.418 50.7177 78.6833 50.824 75.7079V75.6134C51.0129 65.6127 52.6305 52.117 59.3134 44.5722C66.4095 36.2127 79.3384 29.2464 92.1375 32.6115C93.4363 32.9539 94.6406 33.4498 95.7977 33.9339C96.9902 34.4298 98.1237 34.9021 99.151 35.1028C100.084 35.2917 101.217 35.1028 102.516 34.8667C102.823 34.8194 103.13 34.7604 103.437 34.7132C116.153 32.458 123.745 37.4289 127.866 41.9983C137.43 52.6129 137.855 71.1621 134.207 83.9021C131.94 91.8011 126.331 99.9363 123.19 104.081C107.924 123.078 110.946 139.172 112.753 148.795C113.143 150.885 113.485 152.679 113.556 154.179C113.627 155.69 112.989 157.06 111.749 158.028C110.203 159.232 107.947 159.657 105.527 159.657L105.539 159.669ZM96.8604 152.254C96.8604 152.254 96.8958 152.254 96.9194 152.266C102.54 153.943 106.176 153.919 107.593 153.577C107.475 152.573 107.227 151.31 106.967 149.893C105.102 139.975 101.63 121.508 118.55 100.456C123.415 94.0209 127.087 87.3734 128.551 82.2727C131.774 71.0558 131.562 54.9035 123.509 45.9537C118.975 40.9238 112.564 39.0937 104.452 40.5341L103.555 40.6876C101.902 40.971 100.037 41.3016 98.0293 40.9002C96.4353 40.5814 94.9712 39.9792 93.5543 39.3888C92.5271 38.9638 91.5589 38.5623 90.6616 38.3262C80.3421 35.6105 69.7392 41.4551 63.8001 48.445C59.4669 53.3332 56.9874 63.0151 56.763 75.7551V75.9322C56.6568 78.8132 56.5977 83.5125 56.5623 86.9366L56.5387 88.8021C58.9474 89.0973 63.257 89.5814 65.9727 89.8766L67.4486 90.0419C67.7201 90.0773 67.8972 90.0773 67.9917 90.0773C68.0271 90.0419 68.0862 89.9828 68.157 89.912C68.6883 89.357 71.6047 86.3698 74.6037 84.8703C77.4375 83.5243 80.4483 82.8395 83.3647 82.1782C86.104 81.5525 88.7016 80.9621 90.8623 79.9113C97.2972 76.8768 101.63 70.5245 101.69 64.0778V63.8062C101.926 61.5983 101.69 58.859 101.453 56.226C101.264 54.1479 101.087 52.1879 101.135 50.4404L101.194 49.9445C101.642 47.6421 104.051 46.2134 107.629 46.1072C114.725 45.6821 120.628 49.3069 122.423 55.1515C125.044 62.897 124.714 74.0549 121.573 82.8512C119.129 89.05 114.618 94.8474 110.273 100.468C108.136 103.219 105.928 106.076 104.063 108.839C100.284 114.459 97.8876 119.926 96.7187 125.534C95.7505 130.198 95.4907 135.393 95.9158 141.899C96.1047 144.875 96.4235 147.791 96.7305 150.507C96.7659 150.873 96.8013 151.203 96.8249 151.522C96.8367 151.735 96.8604 152.006 96.884 152.219L96.8604 152.254Z" fill="#56734A" style="fill:#56734A;fill:color(display-p3 0.3373 0.4510 0.2902);fill-opacity:1;"/>
<path d="M83.6602 164.699C83.6602 164.699 85.2305 158.406 89.8235 157.284C94.4165 156.163 100.58 158.205 104.193 158.076C107.806 157.946 107.664 152.562 116.201 155.454C124.738 158.347 126.036 161.358 126.107 164.31C126.178 167.262 119.283 173.626 105.834 173.956C92.3857 174.287 83.8609 170.875 83.6602 164.711V164.699Z" fill="#B6937F" style="fill:#B6937F;fill:color(display-p3 0.7137 0.5765 0.4980);fill-opacity:1;"/>
<path d="M120.37 160.072C109.153 153.223 108.787 163.696 99.9549 159.363C97.6761 158.241 94.3937 157.627 92.0559 158.206C87.5927 159.304 86.3648 166.802 83.72 166.011C82.4802 165.633 82.3503 164.771 82.492 162.693C82.8462 157.84 86.9787 154.451 90.1431 153.223C94.0631 151.7 99.1638 153.365 102.694 154.286C103.627 154.534 104.642 154.558 105.374 154.239C112.447 151.181 118.882 150.732 124.915 157.155C126.143 158.466 125.293 160.319 124.726 160.957C124.018 161.76 122.247 161.229 120.358 160.083L120.37 160.072Z" fill="#875B48" style="fill:#875B48;fill:color(display-p3 0.5294 0.3569 0.2824);fill-opacity:1;"/>
<path d="M63.1983 72.0839C62.7733 74.5752 63.8477 78.7432 61.4272 78.507C60.0812 78.3772 59.7742 73.1111 59.8923 72.2138C61.5571 59.8044 69.8222 49.2842 80.8029 43.7938C84.0381 42.1762 87.9699 41.1254 91.5947 42.6131C91.9843 42.7784 91.9371 43.3333 91.5357 43.4396C77.0128 47.3242 65.8431 56.7109 63.2101 72.0721L63.1983 72.0839Z" fill="#56734A" style="fill:#56734A;fill:color(display-p3 0.3373 0.4510 0.2902);fill-opacity:1;"/>
<path d="M56.2083 71.4929C51.934 70.7727 43.7162 79.0732 45.5817 87.7279C47.4473 96.3826 55.2283 104.459 62.2063 101.601C69.1844 98.744 74.9936 94.0211 74.8991 91.7659C74.8046 89.5107 67.1299 93.3363 64.1781 89.0148C61.2263 84.6934 63.7885 72.7799 56.2083 71.5047V71.4929Z" fill="#F5C093" style="fill:#F5C093;fill:color(display-p3 0.9608 0.7529 0.5765);fill-opacity:1;"/>
<path d="M43.5157 87.8223C43.2914 80.2774 48.2504 70.9615 51.9107 69.3912C55.9723 67.6555 61.5454 69.8871 62.5608 73.7835L64.9931 84.5399C65.1938 85.4136 65.5362 86.2637 66.0793 86.9839C66.6697 87.7514 67.3899 88.3182 67.9921 88.389C71.735 88.7904 76.1037 86.2755 78.0046 89.6406C80.6613 94.3398 66.6225 108.402 52.9497 103.479C48.3094 101.814 43.7282 95.3317 43.5039 87.8341L43.5157 87.8223ZM56.5981 75.4247C55.9133 74.5745 54.6027 74.9288 53.847 75.6844C47.9907 81.5408 46.6092 91.0102 52.6073 96.7249C57.2711 101.176 65.8196 98.4842 69.8104 94.4815C70.1292 94.1627 69.8576 93.4425 69.5979 93.4543C58.4164 93.8558 60.4473 80.183 56.5981 75.4129V75.4247Z" fill="#7F5141" style="fill:#7F5141;fill:color(display-p3 0.4980 0.3176 0.2549);fill-opacity:1;"/>
<path d="M75.0058 54.3726C81.1456 49.1066 84.2509 55.5534 83.6605 57.1237C83.0702 58.6941 79.3273 61.2562 75.9858 62.6377C72.6444 64.0191 69.4919 59.0955 75.0058 54.3726Z" fill="#BCD285" style="fill:#BCD285;fill:color(display-p3 0.7373 0.8235 0.5216);fill-opacity:1;"/>
<path d="M87.4033 86.1464C88.1236 87.7758 92.2207 89.6886 94.9836 87.4216C97.7465 85.1546 99.3168 79.1565 96.7547 78.0703C94.1925 76.984 89.7648 78.1647 88.3951 80.9276C87.0255 83.6905 86.3289 83.6787 87.4151 86.1464H87.4033Z" fill="#C1E3ED" style="fill:#C1E3ED;fill:color(display-p3 0.7569 0.8902 0.9294);fill-opacity:1;"/>
<path d="M91.961 90.9521C91.3352 90.9521 90.6976 90.8813 90.06 90.7278C86.5178 89.9131 84.6641 86.2292 84.6877 83.0059C84.6877 80.4909 86.5415 77.7517 89.387 76.0396C91.9846 74.4693 94.6766 74.1977 96.7665 75.2958C98.4077 76.1577 100.344 78.0114 100.226 82.0141C100.143 84.9541 98.8092 87.6934 96.6602 89.3582C95.2906 90.409 93.673 90.964 91.961 90.964V90.9521ZM91.1227 86.123C92.1499 86.3591 93.0118 86.1938 93.7675 85.6035C94.7711 84.8242 95.4559 83.3483 95.5031 81.8606C95.5622 79.9832 94.9128 79.6408 94.5704 79.4637C94.1217 79.2276 93.0709 79.322 91.8193 80.0659C90.3316 80.9632 89.4106 82.2856 89.4106 83.0059C89.4106 84.1394 90.06 85.8632 91.1227 86.1112V86.123Z" fill="#6F97A5" style="fill:#6F97A5;fill:color(display-p3 0.4353 0.5922 0.6471);fill-opacity:1;"/>
</svg>
