<svg width="88" height="88" viewBox="0 0 88 88" fill="none" xmlns="http://www.w3.org/2000/svg">
<path d="M29.3339 85.5964C27.9044 85.5794 26.492 85.3071 25.1477 84.7966C23.8033 84.2861 23.0886 83.8947 21.9144 83.3501C11.4489 78.4832 5.59506 67.0307 7.87535 55.7144C12.521 32.6392 36.8384 13.478 58.9776 3.19968C63.7084 1.00448 76.7094 -0.527032 77.5262 7.31784C79.3471 23.7904 74.0548 41.3179 67.6223 56.1398C61.1898 70.9617 50.9115 80.7805 36.4981 84.7115C34.1667 85.3411 31.7503 85.6134 29.3169 85.5794L29.3339 85.5964Z" fill="#784838" style="fill:#784838;fill:color(display-p3 0.4706 0.2824 0.2196);fill-opacity:1;"/>
<path d="M28.892 75.8803C27.6668 75.4378 26.901 74.587 26.6628 73.2767C25.6928 68.0524 30.5086 61.3307 26.901 72.4258C26.6457 73.1916 26.0502 73.8382 25.3354 74.4509C19.6177 72.9874 16.6057 68.0014 16.3674 62.0114C15.5336 41.1995 44.1053 17.2394 68.0653 9.51367C69.3756 37.5578 56.3576 75.1656 28.909 75.8633L28.892 75.8803Z" fill="#EEC499" style="fill:#EEC499;fill:color(display-p3 0.9333 0.7686 0.6000);fill-opacity:1;"/>
<path d="M28.8916 75.881C27.36 75.915 26.339 74.7239 25.318 74.4516C20.7234 62.0121 37.1619 39.0561 49.8226 27.6887C51.8816 25.8508 57.2761 23.8258 55.5743 27.6546C43.7305 39.022 35.1198 52.6868 30.2359 68.887C29.4191 71.5757 28.4151 73.6688 28.8745 75.898L28.8916 75.881Z" fill="#C2875B" style="fill:#C2875B;fill:color(display-p3 0.7608 0.5294 0.3569);fill-opacity:1;"/>
</svg>
