<svg width="47" height="35" viewBox="0 0 47 35" fill="none" xmlns="http://www.w3.org/2000/svg">
<path d="M1.74118 26.6219C0.0711788 26.2419 -0.218822 22.6719 0.131178 21.5819C0.421178 20.6619 1.11118 19.8019 1.94118 19.9119C3.65118 20.1219 4.21118 22.3219 3.66118 24.5219C3.41118 25.5119 2.66117 26.8319 1.75117 26.6319L1.74118 26.6219Z" fill="#6F97A5" style="fill:#6F97A5;fill:color(display-p3 0.4353 0.5922 0.6471);fill-opacity:1;"/>
<path d="M4.57061 28.5191C4.49061 28.3291 4.47061 28.1191 4.49061 27.9191C4.56061 27.0591 5.03061 26.2691 5.58061 25.6291C6.24061 24.8591 7.11061 24.2991 8.13061 24.1591C8.70061 24.0791 9.31061 24.1791 9.79061 24.4991C10.3406 24.8691 10.6006 25.4591 10.5406 26.1091C10.4406 27.3291 9.46061 28.2591 8.36061 28.6891C7.54061 29.0091 6.66061 29.2691 5.77061 29.2191C5.34061 29.1991 4.86061 29.0391 4.62061 28.6491C4.60061 28.6091 4.57061 28.5691 4.56061 28.5291L4.57061 28.5191Z" fill="#6F97A5" style="fill:#6F97A5;fill:color(display-p3 0.4353 0.5922 0.6471);fill-opacity:1;"/>
<path d="M13.0607 31.5124C13.6707 32.2824 13.2807 33.4024 12.4907 33.8924C11.4307 34.5524 9.82072 34.4324 8.66072 34.2024C8.13072 34.0924 7.51072 33.8624 7.38072 33.3324C7.31072 33.0524 7.40072 32.7524 7.54072 32.5024C8.49072 30.8424 11.7107 29.8024 13.0507 31.5024L13.0607 31.5124Z" fill="#6F97A5" style="fill:#6F97A5;fill:color(display-p3 0.4353 0.5922 0.6471);fill-opacity:1;"/>
<path d="M16.3803 14.4327C17.6403 15.3127 24.2003 12.0927 25.4103 10.0927C26.6203 8.09265 27.8803 4.68265 25.9603 3.34265C24.0403 2.00265 19.1303 3.17265 18.1303 5.67265C17.1303 8.17265 15.5503 13.8427 16.3803 14.4227V14.4327Z" fill="#C1E3ED" style="fill:#C1E3ED;fill:color(display-p3 0.7569 0.8902 0.9294);fill-opacity:1;"/>
<path d="M23.9709 2.18149C22.5609 2.10149 21.5509 2.51149 21.2209 3.76149C20.8909 5.01149 20.8009 6.59149 22.3009 7.18149C23.8009 7.77149 26.5509 6.76149 26.5509 4.93149C26.5509 3.10149 25.4709 2.26149 23.9709 2.18149Z" fill="white" style="fill:white;fill-opacity:1;"/>
<path d="M16.3007 17.0526C15.6107 17.0526 14.9707 16.7826 14.5007 16.2726C14.0407 15.7826 12.9807 14.6326 14.6107 9.55264C15.3107 7.39264 16.3507 5.39264 17.7107 3.61264C18.6507 2.39264 19.5507 1.53264 20.5407 0.932639C22.5607 -0.297361 24.8707 -0.307361 26.7207 0.88264C28.5707 2.07264 29.5607 4.26264 29.2807 6.60264C29.2007 7.24264 29.0407 7.88264 28.7907 8.51264C28.3707 9.55264 27.7307 10.5426 26.8807 11.4626C24.4107 14.1326 21.0607 15.9926 16.9207 16.9826C16.7107 17.0326 16.5007 17.0626 16.2907 17.0626L16.3007 17.0526ZM23.7407 4.00264C23.3807 4.00264 23.0007 4.11264 22.6307 4.34264C22.0707 4.68264 21.5207 5.22264 20.8907 6.04264C19.8007 7.46264 18.9707 9.06264 18.4207 10.7826C18.2307 11.3826 18.0707 11.9926 17.9507 12.5226C20.4007 11.6726 22.4207 10.4026 23.9607 8.74264C24.4707 8.19264 24.8607 7.59264 25.0907 7.02264C25.2107 6.72264 25.2907 6.42264 25.3207 6.13264C25.4207 5.31264 25.1407 4.61264 24.5707 4.24264C24.3207 4.08264 24.0407 4.00264 23.7407 4.00264Z" fill="#6F97A5" style="fill:#6F97A5;fill:color(display-p3 0.4353 0.5922 0.6471);fill-opacity:1;"/>
<path d="M23.1309 26.433C23.1309 26.433 29.4609 18.853 34.6309 19.603C39.8009 20.353 44.3809 22.183 44.3809 25.103C44.3809 28.023 41.1509 32.433 37.5509 32.103C33.9509 31.773 23.7909 30.273 23.7109 28.193C23.6309 26.113 23.1309 26.443 23.1309 26.443V26.433Z" fill="#C1E3ED" style="fill:#C1E3ED;fill:color(display-p3 0.7569 0.8902 0.9294);fill-opacity:1;"/>
<path d="M40.9708 21.5138C39.5008 20.7538 37.6208 21.2338 36.8208 22.6838C36.5508 23.1738 36.6908 24.8738 36.9708 25.3438C37.8008 26.7638 38.5508 26.5138 39.8908 26.5138C41.2308 26.5138 43.2208 24.9338 43.2208 24.0138C43.2208 23.3938 42.3908 22.2438 40.9708 21.5138Z" fill="white" style="fill:white;fill-opacity:1;"/>
<path d="M36.8408 34.1246C31.7208 34.1246 21.8608 31.0846 21.0908 28.0546C20.8208 26.9846 20.8308 25.3246 22.4108 23.4546C25.3808 19.9446 32.6008 17.3746 38.1808 17.8346C42.9608 18.2346 46.6408 21.7146 46.5608 25.7746C46.4808 30.0846 42.6808 33.6546 37.7308 34.0846C37.4508 34.1046 37.1508 34.1246 36.8408 34.1246ZM25.0008 26.7946C26.7208 28.0146 33.4608 30.4446 37.3908 30.1046C40.3008 29.8546 42.5208 27.9646 42.5608 25.7046C42.6008 23.8146 40.4408 22.0446 37.8508 21.8246C33.2208 21.4446 27.3808 23.7746 25.4608 26.0446C25.2308 26.3246 25.0708 26.5846 25.0008 26.7946Z" fill="#6F97A5" style="fill:#6F97A5;fill:color(display-p3 0.4353 0.5922 0.6471);fill-opacity:1;"/>
</svg>
