<svg width="54" height="54" viewBox="0 0 54 54" fill="none" xmlns="http://www.w3.org/2000/svg">
<path d="M27.4178 3.35156C26.3411 3.35156 25.0714 5.93154 23.2228 9.79135C21.8109 12.7979 20.3482 16.1499 19.0481 19.2783C16.2954 25.7892 13.8475 32.5337 15.2492 38.486C16.2548 43.9608 20.5209 49.2223 26.3716 49.4458C33.0348 49.9333 37.9104 43.7678 38.5503 37.582C39.3324 32.1681 37.6056 26.3784 35.2999 19.8675C34.0302 16.2921 32.6387 12.6253 31.1557 9.1819C29.6016 5.65729 28.4945 3.37188 27.4787 3.36172H27.4178V3.35156Z" fill="#C1E3ED" style="fill:#C1E3ED;fill:color(display-p3 0.7569 0.8902 0.9294);fill-opacity:1;"/>
<path d="M26.2089 27.8412C22.0951 23.5853 16.2953 29.9641 19.2815 34.2607C23.9742 40.3246 30.7594 33.5395 26.3206 27.9834L26.1987 27.8412H26.2089Z" fill="white" style="fill:white;fill-opacity:1;"/>
<path d="M28.8696 41.8795C27.6405 43.1289 27.7523 45.78 29.2962 46.7855C30.4541 47.5981 32.3535 47.1614 33.0036 45.912C34.3444 43.6875 31.2362 40.1528 29.0016 41.7678L28.8696 41.8795Z" fill="white" style="fill:white;fill-opacity:1;"/>
<path d="M27.4479 51.4982C27.1534 51.4982 26.8588 51.4881 26.5541 51.4677C19.5353 51.2036 14.7004 44.9162 13.5831 38.8523C12.0392 32.3007 14.802 24.9062 17.514 18.4867C18.936 15.0637 20.3885 11.7523 21.7192 8.91843C24.0655 4.01241 25.3555 1.3207 27.7526 1.31055H27.8136C30.1498 1.33086 31.3788 3.87021 33.3494 8.34961C34.7206 11.5289 36.0919 15.0637 37.5545 19.1672C39.8196 25.5664 41.7698 31.8132 40.8963 37.8568C40.2056 44.5404 34.9136 51.488 27.4479 51.488V51.4982ZM27.7526 6.05405C27.0416 7.21199 26.0868 9.213 25.386 10.6655C24.0858 13.4283 22.6536 16.6787 21.2519 20.0611C18.7837 25.8914 16.2646 32.5648 17.5546 38.0193C18.3977 42.5902 21.8207 47.2219 26.7775 47.4149C32.3539 47.8314 36.3255 42.5191 36.8638 37.3693C37.6155 32.1585 35.8075 26.4399 33.7252 20.5385C32.293 16.5162 30.9522 13.0626 29.6318 9.98495C29.2255 9.05047 28.4027 7.19168 27.7628 6.06421L27.7526 6.05405ZM27.7526 5.38366C27.7526 5.38366 27.7831 5.38366 27.7933 5.38366L27.7526 3.35218V5.38366Z" fill="#6F97A5" style="fill:#6F97A5;fill:color(display-p3 0.4353 0.5922 0.6471);fill-opacity:1;"/>
</svg>
