<svg width="19" height="14" viewBox="0 0 19 14" fill="none" xmlns="http://www.w3.org/2000/svg">
<path d="M1.894 6.00929C1.464 7.98929 4.814 11.7593 7.474 11.4293C10.134 11.0993 16.804 5.84928 16.644 4.67928C16.484 3.50928 12.724 1.17929 8.394 1.84929C4.064 2.51929 2.314 4.09928 1.894 6.01928V6.00929Z" fill="#C1E3ED" style="fill:#C1E3ED;fill:color(display-p3 0.7569 0.8902 0.9294);fill-opacity:1;"/>
<path d="M7.56414 13.1493C6.34414 13.1493 5.10414 12.9093 3.97414 12.4193C2.07414 11.5993 0.764143 10.1593 0.274143 8.38927C-0.525857 5.74926 0.444143 3.30927 2.93414 1.73927C7.02414 -0.840732 14.1941 -0.500734 17.4041 2.42927L17.6941 2.68927L18.1741 3.67927L18.2141 4.01927C18.5641 7.10927 16.2141 9.89927 11.2341 12.3193C10.1741 12.8793 8.88414 13.1593 7.56414 13.1593V13.1493ZM9.79414 4.00927C8.04414 4.00927 6.25414 4.37927 5.07414 5.12927C3.88414 5.87927 3.91414 6.60927 4.11414 7.28927C4.33414 8.08927 5.02414 8.52927 5.56414 8.75927C6.77414 9.28927 8.40414 9.27927 9.42414 8.74927C12.4941 7.25927 13.8441 5.91927 14.1641 4.98927C13.0941 4.34927 11.4541 4.01927 9.79414 4.01927V4.00927Z" fill="#6F97A5" style="fill:#6F97A5;fill:color(display-p3 0.4353 0.5922 0.6471);fill-opacity:1;"/>
</svg>
