<svg width="244" height="110" viewBox="0 0 244 110" fill="none" xmlns="http://www.w3.org/2000/svg">
<path d="M45.9192 2.96884C63.3589 4.00001 139.255 10.0198 145.464 25.5151C146.861 29.1521 145.351 33.012 143.305 36.5375C141.583 39.2408 139.904 42.8359 144.01 44.5081C149.033 46.6819 154.988 46.9188 160.434 47.8664C184.35 52.6878 221.036 57.0911 237.135 76.4046C242.595 83.2326 242.539 93.7115 237.276 100.637C231.279 106.908 222.489 106.35 213.938 106.058C208.548 105.863 201.987 104.762 197.994 103.814C179.003 98.937 163.708 94.5057 145.774 85.281C138.084 81.4211 129.985 76.0005 121.406 74.8996C118.542 74.5373 116.299 76.3489 114.591 78.4391C104.898 89.3917 100.185 102.671 84.0861 93.1819C55.7537 76.4882 25.8128 60.1567 11.3502 37.485C5.94619 29.0127 1.24763 18.4363 9.8546 10.8559C19.8443 3.24754 33.8835 2.80163 45.637 2.96884H45.9051H45.9192Z" fill="#6D3C33" style="fill:#6D3C33;fill:color(display-p3 0.4275 0.2353 0.2000);fill-opacity:1;"/>
<path d="M110.824 70.6788C107.65 74.7059 101.145 82.788 98.7464 85.575C96.7287 88.0971 94.711 88.4595 91.8044 87.0799C67.9589 77.7576 9.65731 40.7889 13.9326 20.7509C15.6822 12.5573 22.991 11.6236 27.5062 10.6482C46.4415 6.57929 97.0674 14.0204 125.555 22.0607C129.336 23.2034 132.92 24.3599 136.067 25.5722C137.323 26.0878 138.677 26.8542 139.016 28.192C139.524 29.8781 133.964 39.5627 132.285 41.9594C127.911 48.2022 115.537 64.6869 110.81 70.6788H110.824Z" fill="#C2B1B0" style="fill:#C2B1B0;fill:color(display-p3 0.7608 0.6941 0.6902);fill-opacity:1;"/>
<path d="M170.34 57.3686C186.439 60.3645 202.962 63.8761 217.777 70.9828C225.1 74.4943 236.952 81.3502 233.368 91.188C227.061 108.509 165.768 86.6453 143.94 74.8287C142.586 66.8024 145.859 59.5842 151.687 54.1636C151.912 53.9546 154.043 54.5817 154.353 54.6374C155.906 54.9161 157.472 55.153 159.038 55.4038C162.551 55.9751 166.065 56.5743 169.564 57.2292C169.818 57.271 170.072 57.3268 170.34 57.3686Z" fill="#AA7B5F" style="fill:#AA7B5F;fill:color(display-p3 0.6667 0.4824 0.3725);fill-opacity:1;"/>
<path d="M131.989 42.266C131.439 44.7185 132.398 46.2513 132.723 46.6972C133.725 48.0628 137.224 49.8883 139.566 50.4178C139.792 53.6646 131.27 53.9572 128.278 53.6924C125.485 52.5358 92.3267 43.6873 92.0586 46.2931C91.7341 49.4841 117.64 60.1024 122.705 60.9245C125.118 62.2204 125.866 63.5442 124.13 65.9967C122 65.7599 118.557 64.5754 115.777 65.509C113.83 66.15 112.871 68.1148 111.248 70.0796C96.6725 62.8754 71.8958 49.094 76.3686 39.1167C79.0494 33.1248 83.5081 31.9961 97.9989 34.6298C107.269 36.3159 119.516 38.9635 131.975 42.2939L131.989 42.266Z" fill="#998A86" style="fill:#998A86;fill:color(display-p3 0.6000 0.5412 0.5255);fill-opacity:1;"/>
<path d="M132.116 48.3815C135.178 47.7684 139.072 50.0398 143.051 51.698C138.861 57.2719 136.039 63.1662 135.46 70.9139C131.326 69.0327 125.075 66.8171 121.068 65.4097C118.641 64.5597 119.417 63.0129 116.285 61.6195C104.546 56.394 81.716 47.5733 83.6773 41.3724C86.4146 33.4714 115.114 44.6052 129.097 48.6463C131.312 49.2873 130.776 48.6463 132.116 48.3815Z" fill="#C2B1B0" style="fill:#C2B1B0;fill:color(display-p3 0.7608 0.6941 0.6902);fill-opacity:1;"/>
</svg>
