<svg width="196" height="196" viewBox="0 0 196 196" fill="none" xmlns="http://www.w3.org/2000/svg">
<path d="M97.1092 39.8035L84.3219 34.8799L60.9082 45.896L52.6432 67.149L50.8721 78.7556L61.6993 92.5346L70.3422 96.3601L73.1169 91.7435L94.1692 81.3177L103.816 68.129L104.016 51.9885C104.016 51.9885 105.988 47.2657 110.9 50.0167C115.812 52.7678 125.269 60.7377 118.775 82.097C115.611 92.4992 96.7313 110.434 94.181 123.422C94.181 123.422 91.2292 161.005 95.161 163.768C99.0928 166.53 111.49 168.691 111.301 157.663C111.113 146.635 105.787 136.8 109.53 123.812C113.273 110.824 125.671 98.4264 128.812 86.6192C131.952 74.8119 137.466 64.9765 128.021 48.836C118.575 32.6955 97.121 39.7799 97.121 39.7799L97.1092 39.8035Z" fill="#9CBE6A" style="fill:#9CBE6A;fill:color(display-p3 0.6118 0.7451 0.4157);fill-opacity:1;"/>
<path d="M105.539 159.67C101.69 159.67 97.4625 158.596 95.231 157.923C91.2992 156.754 91.0512 153.802 90.9095 152.031C90.8859 151.771 90.8623 151.488 90.8269 151.192C90.5081 148.406 90.1893 145.395 89.9886 142.302C89.5281 135.253 89.8233 129.55 90.8977 124.343C92.2201 117.967 94.9122 111.827 99.1155 105.558C101.087 102.618 103.354 99.6893 105.562 96.8556C109.659 91.566 113.898 86.111 116 80.786C118.692 73.2411 119.011 63.6301 116.767 56.9708C115.61 53.2043 111.49 51.7756 107.912 52.0118H107.794C107.522 52.0118 107.263 52.0472 107.026 52.0826C107.074 53.1807 107.18 54.4204 107.298 55.7074C107.558 58.5766 107.817 61.5402 107.558 64.2795C107.416 72.8869 101.737 81.3055 93.389 85.2373C90.6498 86.5833 87.6035 87.2681 84.6399 87.9412C81.9242 88.5551 79.3502 89.1455 77.1541 90.1845C75.442 91.0346 73.3522 92.9946 72.384 94.0101C70.7546 95.6867 69.2314 96.1944 66.7519 95.911L65.2878 95.7457C61.9936 95.3797 57.0228 94.8366 54.8739 94.5532C52.2054 94.2934 50.458 92.2862 50.5878 89.6296L50.6233 86.8785C50.6587 83.419 50.7177 78.6843 50.824 75.7089V75.6144C51.0129 65.6137 52.6305 52.118 59.3134 44.5732C66.4095 36.2137 79.3384 29.2474 92.1375 32.6125C93.4363 32.9549 94.6406 33.4508 95.7977 33.9349C96.9902 34.4308 98.1237 34.9031 99.151 35.1038C100.084 35.2927 101.217 35.1038 102.516 34.8677C102.823 34.8204 103.13 34.7614 103.437 34.7142C116.153 32.459 123.745 37.4298 127.866 41.9992C137.43 52.6139 137.855 71.1631 134.207 83.9031C131.94 91.8021 126.331 99.9373 123.19 104.082C107.924 123.079 110.946 139.173 112.753 148.796C113.143 150.885 113.485 152.68 113.556 154.18C113.627 155.691 112.989 157.061 111.749 158.029C110.203 159.233 107.947 159.658 105.527 159.658L105.539 159.67ZM96.8604 152.255C96.8604 152.255 96.8958 152.255 96.9194 152.267C102.54 153.944 106.176 153.92 107.593 153.578C107.475 152.574 107.227 151.311 106.967 149.894C105.102 139.976 101.63 121.509 118.55 100.457C123.415 94.0219 127.087 87.3744 128.551 82.2737C131.774 71.0568 131.562 54.9045 123.509 45.9546C118.975 40.9248 112.564 39.0946 104.452 40.5351L103.555 40.6886C101.902 40.972 100.037 41.3026 98.0293 40.9011C96.4353 40.5824 94.9712 39.9802 93.5543 39.3898C92.5271 38.9648 91.5589 38.5633 90.6616 38.3272C80.3421 35.6115 69.7392 41.4561 63.8001 48.446C59.4669 53.3342 56.9874 63.0161 56.763 75.7561V75.9332C56.6568 78.8142 56.5977 83.5134 56.5623 86.9375L56.5387 88.8031C58.9474 89.0983 63.257 89.5824 65.9727 89.8775L67.4486 90.0428C67.7201 90.0783 67.8972 90.0783 67.9917 90.0783C68.0271 90.0428 68.0862 89.9838 68.157 89.913C68.6883 89.358 71.6047 86.3708 74.6037 84.8713C77.4375 83.5252 80.4483 82.8404 83.3647 82.1792C86.104 81.5534 88.7016 80.9631 90.8623 79.9122C97.2972 76.8778 101.63 70.5255 101.69 64.0787V63.8072C101.926 61.5992 101.69 58.86 101.453 56.2269C101.264 54.1489 101.087 52.1889 101.135 50.4414L101.194 49.9455C101.642 47.6431 104.051 46.2144 107.629 46.1081C114.725 45.6831 120.628 49.3079 122.423 55.1525C125.044 62.898 124.714 74.0558 121.573 82.8522C119.129 89.051 114.618 94.8484 110.273 100.469C108.136 103.22 105.928 106.077 104.063 108.84C100.284 114.46 97.8876 119.927 96.7187 125.535C95.7505 130.199 95.4907 135.394 95.9158 141.9C96.1047 144.876 96.4235 147.792 96.7305 150.508C96.7659 150.874 96.8013 151.204 96.8249 151.523C96.8367 151.736 96.8604 152.007 96.884 152.22L96.8604 152.255Z" fill="#56734A" style="fill:#56734A;fill:color(display-p3 0.3373 0.4510 0.2902);fill-opacity:1;"/>
<path d="M83.6602 164.7C83.6602 164.7 85.2305 158.407 89.8235 157.285C94.4165 156.164 100.58 158.206 104.193 158.076C107.806 157.947 107.664 152.563 116.201 155.455C124.738 158.348 126.036 161.359 126.107 164.311C126.178 167.263 119.283 173.627 105.834 173.957C92.3857 174.288 83.8609 170.876 83.6602 164.712V164.7Z" fill="#B6937F" style="fill:#B6937F;fill:color(display-p3 0.7137 0.5765 0.4980);fill-opacity:1;"/>
<path d="M120.37 160.072C109.153 153.223 108.787 163.696 99.9549 159.363C97.6761 158.241 94.3937 157.627 92.0559 158.206C87.5927 159.304 86.3648 166.802 83.72 166.011C82.4802 165.633 82.3503 164.771 82.492 162.693C82.8462 157.84 86.9787 154.451 90.1431 153.223C94.0631 151.7 99.1638 153.365 102.694 154.286C103.627 154.534 104.642 154.558 105.374 154.239C112.447 151.181 118.882 150.732 124.915 157.155C126.143 158.466 125.293 160.319 124.726 160.957C124.018 161.76 122.247 161.229 120.358 160.083L120.37 160.072Z" fill="#875B48" style="fill:#875B48;fill:color(display-p3 0.5294 0.3569 0.2824);fill-opacity:1;"/>
<path d="M63.1983 72.0839C62.7733 74.5752 63.8477 78.7432 61.4272 78.507C60.0812 78.3772 59.7742 73.1111 59.8923 72.2138C61.5571 59.8044 69.8222 49.2842 80.8029 43.7938C84.0381 42.1762 87.9699 41.1254 91.5947 42.6131C91.9843 42.7784 91.9371 43.3333 91.5357 43.4396C77.0128 47.3242 65.8431 56.7109 63.2101 72.0721L63.1983 72.0839Z" fill="#56734A" style="fill:#56734A;fill:color(display-p3 0.3373 0.4510 0.2902);fill-opacity:1;"/>
<path d="M56.2083 71.4939C51.934 70.7737 43.7162 79.0741 45.5817 87.7288C47.4473 96.3835 55.2283 104.46 62.2063 101.602C69.1844 98.745 74.9936 94.0221 74.8991 91.7669C74.8046 89.5117 67.1299 93.3373 64.1781 89.0158C61.2263 84.6944 63.7885 72.7809 56.2083 71.5057V71.4939Z" fill="#F5C093" style="fill:#F5C093;fill:color(display-p3 0.9608 0.7529 0.5765);fill-opacity:1;"/>
<path d="M43.5157 87.8232C43.2914 80.2784 48.2504 70.9625 51.9107 69.3922C55.9723 67.6565 61.5454 69.8881 62.5608 73.7844L64.9931 84.5408C65.1938 85.4146 65.5362 86.2647 66.0793 86.9849C66.6697 87.7524 67.3899 88.3191 67.9921 88.39C71.735 88.7914 76.1037 86.2765 78.0046 89.6415C80.6613 94.3408 66.6225 108.403 52.9497 103.48C48.3094 101.815 43.7282 95.3326 43.5039 87.835L43.5157 87.8232ZM56.5981 75.4256C55.9133 74.5755 54.6027 74.9297 53.847 75.6854C47.9907 81.5418 46.6092 91.0112 52.6073 96.7259C57.2711 101.177 65.8196 98.4852 69.8104 94.4825C70.1292 94.1637 69.8576 93.4435 69.5979 93.4553C58.4164 93.8567 60.4473 80.184 56.5981 75.4138V75.4256Z" fill="#7F5141" style="fill:#7F5141;fill:color(display-p3 0.4980 0.3176 0.2549);fill-opacity:1;"/>
<path d="M75.0058 54.3736C81.1456 49.1076 84.2509 55.5543 83.6605 57.1247C83.0702 58.6951 79.3273 61.2572 75.9858 62.6387C72.6444 64.0201 69.4919 59.0965 75.0058 54.3736Z" fill="#BCD285" style="fill:#BCD285;fill:color(display-p3 0.7373 0.8235 0.5216);fill-opacity:1;"/>
</svg>
