<svg width="196" height="196" viewBox="0 0 196 196" fill="none" xmlns="http://www.w3.org/2000/svg">
<path d="M97.1092 39.8035L84.3219 34.8799L60.9082 45.896L52.6432 67.149L50.8721 78.7556L61.6993 92.5346L70.3422 96.3601L73.1169 91.7435L94.1692 81.3177L103.816 68.129L104.016 51.9885C104.016 51.9885 105.988 47.2657 110.9 50.0167C115.812 52.7678 125.269 60.7377 118.775 82.097C115.611 92.4992 96.7313 110.434 94.181 123.422C94.181 123.422 91.2292 161.005 95.161 163.768C99.0928 166.53 111.49 168.691 111.301 157.663C111.113 146.635 105.787 136.8 109.53 123.812C113.273 110.824 125.671 98.4264 128.812 86.6192C131.952 74.8119 137.466 64.9765 128.021 48.836C118.575 32.6955 97.121 39.7799 97.121 39.7799L97.1092 39.8035Z" fill="#9CBE6A" style="fill:#9CBE6A;fill:color(display-p3 0.6118 0.7451 0.4157);fill-opacity:1;"/>
<path d="M105.539 159.67C101.69 159.67 97.4625 158.596 95.231 157.923C91.2992 156.754 91.0512 153.802 90.9095 152.031C90.8859 151.771 90.8623 151.488 90.8269 151.192C90.5081 148.406 90.1893 145.395 89.9886 142.302C89.5281 135.253 89.8233 129.55 90.8977 124.343C92.2201 117.967 94.9122 111.827 99.1155 105.558C101.087 102.618 103.354 99.6893 105.562 96.8556C109.659 91.566 113.898 86.111 116 80.786C118.692 73.2411 119.011 63.6301 116.767 56.9708C115.61 53.2043 111.49 51.7756 107.912 52.0118H107.794C107.522 52.0118 107.263 52.0472 107.026 52.0826C107.074 53.1807 107.18 54.4204 107.298 55.7074C107.558 58.5766 107.817 61.5402 107.558 64.2795C107.416 72.8869 101.737 81.3055 93.389 85.2373C90.6498 86.5833 87.6035 87.2681 84.6399 87.9412C81.9242 88.5551 79.3502 89.1455 77.1541 90.1845C75.442 91.0346 73.3522 92.9946 72.384 94.0101C70.7546 95.6867 69.2314 96.1944 66.7519 95.911L65.2878 95.7457C61.9936 95.3797 57.0228 94.8366 54.8739 94.5532C52.2054 94.2934 50.458 92.2862 50.5878 89.6296L50.6233 86.8785C50.6587 83.419 50.7177 78.6843 50.824 75.7089V75.6144C51.0129 65.6137 52.6305 52.118 59.3134 44.5732C66.4095 36.2137 79.3384 29.2474 92.1375 32.6125C93.4363 32.9549 94.6406 33.4508 95.7977 33.9349C96.9902 34.4308 98.1237 34.9031 99.151 35.1038C100.084 35.2927 101.217 35.1038 102.516 34.8677C102.823 34.8204 103.13 34.7614 103.437 34.7142C116.153 32.459 123.745 37.4298 127.866 41.9992C137.43 52.6139 137.855 71.1631 134.207 83.9031C131.94 91.8021 126.331 99.9373 123.19 104.082C107.924 123.079 110.946 139.173 112.753 148.796C113.143 150.885 113.485 152.68 113.556 154.18C113.627 155.691 112.989 157.061 111.749 158.029C110.203 159.233 107.947 159.658 105.527 159.658L105.539 159.67ZM96.8604 152.255C96.8604 152.255 96.8958 152.255 96.9194 152.267C102.54 153.944 106.176 153.92 107.593 153.578C107.475 152.574 107.227 151.311 106.967 149.894C105.102 139.976 101.63 121.509 118.55 100.457C123.415 94.0219 127.087 87.3744 128.551 82.2737C131.774 71.0568 131.562 54.9045 123.509 45.9546C118.975 40.9248 112.564 39.0946 104.452 40.5351L103.555 40.6886C101.902 40.972 100.037 41.3026 98.0293 40.9011C96.4353 40.5824 94.9712 39.9802 93.5543 39.3898C92.5271 38.9648 91.5589 38.5633 90.6616 38.3272C80.3421 35.6115 69.7392 41.4561 63.8001 48.446C59.4669 53.3342 56.9874 63.0161 56.763 75.7561V75.9332C56.6568 78.8142 56.5977 83.5134 56.5623 86.9375L56.5387 88.8031C58.9474 89.0983 63.257 89.5824 65.9727 89.8775L67.4486 90.0428C67.7201 90.0783 67.8972 90.0783 67.9917 90.0783C68.0271 90.0428 68.0862 89.9838 68.157 89.913C68.6883 89.358 71.6047 86.3708 74.6037 84.8713C77.4375 83.5252 80.4483 82.8404 83.3647 82.1792C86.104 81.5534 88.7016 80.9631 90.8623 79.9122C97.2972 76.8778 101.63 70.5255 101.69 64.0787V63.8072C101.926 61.5992 101.69 58.86 101.453 56.2269C101.264 54.1489 101.087 52.1889 101.135 50.4414L101.194 49.9455C101.642 47.6431 104.051 46.2144 107.629 46.1081C114.725 45.6831 120.628 49.3079 122.423 55.1525C125.044 62.898 124.714 74.0558 121.573 82.8522C119.129 89.051 114.618 94.8484 110.273 100.469C108.136 103.22 105.928 106.077 104.063 108.84C100.284 114.46 97.8876 119.927 96.7187 125.535C95.7505 130.199 95.4907 135.394 95.9158 141.9C96.1047 144.876 96.4235 147.792 96.7305 150.508C96.7659 150.874 96.8013 151.204 96.8249 151.523C96.8367 151.736 96.8604 152.007 96.884 152.22L96.8604 152.255Z" fill="#56734A" style="fill:#56734A;fill:color(display-p3 0.3373 0.4510 0.2902);fill-opacity:1;"/>
<path d="M83.6602 164.7C83.6602 164.7 85.2305 158.407 89.8235 157.285C94.4165 156.164 100.58 158.206 104.193 158.076C107.806 157.947 107.664 152.563 116.201 155.455C124.738 158.348 126.036 161.359 126.107 164.311C126.178 167.263 119.283 173.627 105.834 173.957C92.3857 174.288 83.8609 170.876 83.6602 164.712V164.7Z" fill="#B6937F" style="fill:#B6937F;fill:color(display-p3 0.7137 0.5765 0.4980);fill-opacity:1;"/>
<path d="M120.37 160.072C109.153 153.223 108.787 163.696 99.9549 159.363C97.6761 158.241 94.3937 157.627 92.0559 158.206C87.5927 159.304 86.3648 166.802 83.72 166.011C82.4802 165.633 82.3503 164.771 82.492 162.693C82.8462 157.84 86.9787 154.451 90.1431 153.223C94.0631 151.7 99.1638 153.365 102.694 154.286C103.627 154.534 104.642 154.558 105.374 154.239C112.447 151.181 118.882 150.732 124.915 157.155C126.143 158.466 125.293 160.319 124.726 160.957C124.018 161.76 122.247 161.229 120.358 160.083L120.37 160.072Z" fill="#875B48" style="fill:#875B48;fill:color(display-p3 0.5294 0.3569 0.2824);fill-opacity:1;"/>
<path d="M63.1983 72.0839C62.7733 74.5752 63.8477 78.7432 61.4272 78.507C60.0812 78.3772 59.7742 73.1111 59.8923 72.2138C61.5571 59.8044 69.8222 49.2842 80.8029 43.7938C84.0381 42.1762 87.9699 41.1254 91.5947 42.6131C91.9843 42.7784 91.9371 43.3333 91.5357 43.4396C77.0128 47.3242 65.8431 56.7109 63.2101 72.0721L63.1983 72.0839Z" fill="#56734A" style="fill:#56734A;fill:color(display-p3 0.3373 0.4510 0.2902);fill-opacity:1;"/>
<path d="M56.2083 71.4939C51.934 70.7737 43.7162 79.0741 45.5817 87.7288C47.4473 96.3835 55.2283 104.46 62.2063 101.602C69.1844 98.745 74.9936 94.0221 74.8991 91.7669C74.8046 89.5117 67.1299 93.3373 64.1781 89.0158C61.2263 84.6944 63.7885 72.7809 56.2083 71.5057V71.4939Z" fill="#F5C093" style="fill:#F5C093;fill:color(display-p3 0.9608 0.7529 0.5765);fill-opacity:1;"/>
<path d="M43.5157 87.8232C43.2914 80.2784 48.2504 70.9625 51.9107 69.3922C55.9723 67.6565 61.5454 69.8881 62.5608 73.7844L64.9931 84.5408C65.1938 85.4146 65.5362 86.2647 66.0793 86.9849C66.6697 87.7524 67.3899 88.3191 67.9921 88.39C71.735 88.7914 76.1037 86.2765 78.0046 89.6415C80.6613 94.3408 66.6225 108.403 52.9497 103.48C48.3094 101.815 43.7282 95.3326 43.5039 87.835L43.5157 87.8232ZM56.5981 75.4256C55.9133 74.5755 54.6027 74.9297 53.847 75.6854C47.9907 81.5418 46.6092 91.0112 52.6073 96.7259C57.2711 101.177 65.8196 98.4852 69.8104 94.4825C70.1292 94.1637 69.8576 93.4435 69.5979 93.4553C58.4164 93.8567 60.4473 80.184 56.5981 75.4138V75.4256Z" fill="#7F5141" style="fill:#7F5141;fill:color(display-p3 0.4980 0.3176 0.2549);fill-opacity:1;"/>
<path d="M75.0058 54.3736C81.1456 49.1076 84.2509 55.5543 83.6605 57.1247C83.0702 58.6951 79.3273 61.2572 75.9858 62.6387C72.6444 64.0201 69.4919 59.0965 75.0058 54.3736Z" fill="#BCD285" style="fill:#BCD285;fill:color(display-p3 0.7373 0.8235 0.5216);fill-opacity:1;"/>
<path d="M87.4033 86.1474C88.1236 87.7768 92.2207 89.6896 94.9836 87.4226C97.7465 85.1556 99.3168 79.1575 96.7547 78.0712C94.1925 76.985 89.7648 78.1657 88.3951 80.9286C87.0255 83.6915 86.3289 83.6797 87.4151 86.1474H87.4033Z" fill="#C1E3ED" style="fill:#C1E3ED;fill:color(display-p3 0.7569 0.8902 0.9294);fill-opacity:1;"/>
<path d="M91.961 90.9531C91.3352 90.9531 90.6976 90.8823 90.06 90.7288C86.5178 89.9141 84.6641 86.2302 84.6877 83.0069C84.6877 80.4919 86.5415 77.7526 89.387 76.0406C91.9846 74.4702 94.6766 74.1987 96.7665 75.2967C98.4077 76.1587 100.344 78.0124 100.226 82.015C100.143 84.955 98.8092 87.6943 96.6602 89.3591C95.2906 90.41 93.673 90.9649 91.961 90.9649V90.9531ZM91.1227 86.124C92.1499 86.3601 93.0118 86.1948 93.7675 85.6044C94.7711 84.8252 95.4559 83.3493 95.5031 81.8615C95.5622 79.9842 94.9128 79.6418 94.5704 79.4647C94.1217 79.2285 93.0709 79.323 91.8193 80.0669C90.3316 80.9642 89.4106 82.2866 89.4106 83.0069C89.4106 84.1403 90.06 85.8642 91.1227 86.1122V86.124Z" fill="#6F97A5" style="fill:#6F97A5;fill:color(display-p3 0.4353 0.5922 0.6471);fill-opacity:1;"/>
<path d="M45.9715 60.2765C42.878 61.5516 43.5156 66.8649 45.4756 68.3408C47.4356 69.8167 52.5599 70.1001 53.1503 68.6242C53.7407 67.1483 57.3773 62.2483 54.4255 61.2565C51.4737 60.2647 49.313 58.895 45.9597 60.2765H45.9715Z" fill="#C1E3ED" style="fill:#C1E3ED;fill:color(display-p3 0.7569 0.8902 0.9294);fill-opacity:1;"/>
<path d="M48.699 73.3589C46.2313 73.3589 43.9998 72.249 42.5829 70.3008C40.0798 66.8768 40.9299 63.1221 42.8781 60.9259C45.5701 57.8796 50.4701 57.8324 53.1504 58.0686C54.9215 58.2221 56.2911 59.1666 56.9995 60.7134C58.3337 63.6179 56.846 67.8804 55.3583 69.982C53.8824 72.0719 51.4147 73.3353 48.7699 73.3589C48.7463 73.3589 48.7227 73.3589 48.7108 73.3589H48.699ZM51.2376 62.7088C48.9942 62.7088 47.1759 63.2047 46.4084 64.0548C46.0778 64.4208 45.1096 65.7669 46.3966 67.5143C47.1169 68.4943 48.1441 68.6242 48.7345 68.636C49.8443 68.636 50.907 68.0929 51.5092 67.2546C52.5482 65.7787 53.0205 63.3936 52.7371 62.7324V62.7796C52.2176 62.7324 51.7217 62.7088 51.2494 62.7088H51.2376ZM52.7371 62.7206C52.7371 62.7206 52.808 62.7914 52.8434 62.8033L52.9378 60.43L52.7371 62.7206Z" fill="#6F97A5" style="fill:#6F97A5;fill:color(display-p3 0.4353 0.5922 0.6471);fill-opacity:1;"/>
<path d="M74.7101 28.3981C72.0889 31.0193 71.0735 34.6914 72.0535 35.8721C73.0335 37.0528 80.1178 37.2536 81.8889 35.5769C83.66 33.9003 85.5255 30.6533 83.66 28.6933C81.7945 26.7333 77.4612 25.6471 74.7101 28.3981Z" fill="#C1E3ED" style="fill:#C1E3ED;fill:color(display-p3 0.7569 0.8902 0.9294);fill-opacity:1;"/>
<path d="M80.1527 32.5896C81.5482 32.5896 82.6795 31.5165 82.6795 30.1928C82.6795 28.869 81.5482 27.7959 80.1527 27.7959C78.7572 27.7959 77.626 28.869 77.626 30.1928C77.626 31.5165 78.7572 32.5896 80.1527 32.5896Z" fill="white" style="fill:white;fill-opacity:1;"/>
<path d="M76.0087 39.2603C72.6436 39.2603 70.3412 38.2095 69.5265 36.2967L69.3849 35.8126C68.8417 32.9907 69.6446 29.8264 71.4747 27.5358C74.3439 23.9464 79.7398 23.8283 83.093 25.7647C86.2456 27.5948 87.4027 31.0071 86.0449 34.4666C84.7697 37.69 80.2121 39.1895 76.2567 39.2485C76.174 39.2485 76.1032 39.2485 76.0205 39.2485L76.0087 39.2603ZM73.9306 34.2659C74.8044 34.5729 77.0359 34.7146 79.2439 34.077C80.9677 33.5811 81.5463 32.9435 81.629 32.731C81.9832 31.8454 82.1839 30.7119 80.6962 29.85C79.0668 28.9054 76.3511 28.9763 75.135 30.4876C74.3203 31.5148 73.8598 32.9553 73.9188 34.2659H73.9306Z" fill="#6F97A5" style="fill:#6F97A5;fill:color(display-p3 0.4353 0.5922 0.6471);fill-opacity:1;"/>
<path d="M56.3166 143.089C51.0387 143.231 42.8681 145.876 44.5802 149.359C46.2922 152.842 44.5093 155.298 55.6317 154.896C66.7541 154.495 69.8949 152.736 70.0011 150.374C70.1074 148.013 60.0594 142.995 56.3284 143.089H56.3166Z" fill="#C1E3ED" style="fill:#C1E3ED;fill:color(display-p3 0.7569 0.8902 0.9294);fill-opacity:1;"/>
<path d="M160.55 164.413C151.896 165.889 143.135 170.116 143.63 173.764C144.126 177.413 145.201 180.554 148.353 180.849C151.506 181.144 155.733 179.078 160.255 180.058C164.777 181.038 167.245 184.781 173.243 184.096C179.241 183.411 187.908 179.668 188.592 175.04C189.277 170.411 179.536 164.708 174.424 164.212C169.311 163.716 160.55 164.413 160.55 164.413Z" fill="#C1E3ED" style="fill:#C1E3ED;fill:color(display-p3 0.7569 0.8902 0.9294);fill-opacity:1;"/>
<path d="M20.4695 152.476C16.7856 152.347 9.05191 153.657 7.74131 157.861C6.43071 162.064 10.6223 172.029 19.5485 170.589C28.4748 169.148 37.9206 164.945 38.3102 161.533C38.6999 158.12 32.017 152.878 20.4695 152.476Z" fill="#C1E3ED" style="fill:#C1E3ED;fill:color(display-p3 0.7569 0.8902 0.9294);fill-opacity:1;"/>
<path d="M176.207 167.07C174.011 167.07 170.303 167.873 170.823 170.412C171.295 172.679 173.704 175.595 178.368 175.064C183.031 174.533 186.314 173.742 186.03 171.392C185.747 169.042 179.678 167.059 176.207 167.059V167.07Z" fill="white" style="fill:white;fill-opacity:1;"/>
<path d="M20.0682 172.808C17.9783 172.808 15.9357 172.501 13.9639 171.875C9.48892 170.447 6.3482 168.121 4.8723 165.122C4.12844 163.599 3.84507 161.91 4.08121 160.222C4.93133 153.976 11.0711 150.009 20.4815 149.595C24.6376 149.395 34.5321 151.319 38.7354 155.605C40.5065 157.412 40.7899 159.195 40.719 160.363C40.5419 163.103 38.8299 165.547 35.7718 167.412C32.6901 169.29 30.1043 170.577 27.6366 171.462C25.1217 172.36 22.5595 172.808 20.0564 172.808H20.0682ZM20.7058 154.306C18.0964 154.424 9.54796 155.227 8.76868 160.859C8.66242 161.603 8.7923 162.359 9.1229 163.032C10.2564 165.322 13.161 166.657 15.4043 167.365C18.734 168.428 22.4296 168.298 26.0663 167.011C28.2152 166.243 30.5294 165.098 33.3159 163.386C34.4966 162.666 35.9253 161.497 36.0198 160.068C36.0434 159.679 35.6892 159.218 35.3822 158.911C32.6547 156.136 24.5549 154.153 20.7058 154.306Z" fill="#6F97A5" style="fill:#6F97A5;fill:color(display-p3 0.4353 0.5922 0.6471);fill-opacity:1;"/>
<path d="M55.5723 157.542C53.4234 157.542 51.3572 157.27 49.409 156.739C47.4726 156.208 44.7097 155.228 43.1511 152.866C42.5726 151.993 42.2538 151.024 42.2184 150.056C42.0176 145.404 47.4017 143.385 49.9875 142.429C52.5379 141.484 54.9465 141 57.1663 141C61.842 141 67.6039 142.936 70.5793 145.51C72.3858 147.069 72.988 149.773 72.0316 151.933C71.5239 153.067 70.6029 154.047 69.375 154.779C67.5803 155.842 65.5967 156.302 63.5658 156.715C61.3225 157.176 58.9374 157.447 56.4697 157.542C56.1745 157.542 55.8675 157.554 55.5723 157.554V157.542ZM57.1663 145.711C55.5133 145.711 53.6596 146.089 51.6405 146.845C48.488 148.025 46.894 149.029 46.9294 149.844C46.9294 149.926 46.9767 150.08 47.0947 150.257C47.6025 151.024 48.795 151.662 50.6605 152.17C52.4198 152.654 54.309 152.866 56.3044 152.795C58.5123 152.725 60.6376 152.477 62.6212 152.063C64.3215 151.721 65.821 151.379 66.9899 150.682C67.3559 150.469 67.6275 150.21 67.7338 149.973C67.8518 149.702 67.7338 149.265 67.5094 149.064C65.6321 147.447 61.0391 145.699 57.1781 145.699L57.1663 145.711Z" fill="#6F97A5" style="fill:#6F97A5;fill:color(display-p3 0.4353 0.5922 0.6471);fill-opacity:1;"/>
<path d="M172.913 186.517C171.851 186.517 170.752 186.411 169.643 186.187C167.624 185.762 165.829 184.982 164.081 184.227C162.464 183.53 160.941 182.869 159.382 182.538C157.977 182.243 156.218 182.432 154.364 182.633C150.479 183.046 145.638 183.565 142.321 179.303C141.14 177.792 140.609 175.926 140.857 174.167C141.352 170.696 144.446 168.346 146.748 166.882C149.063 165.394 151.648 164.225 154.411 163.399C158.473 162.183 162.936 161.651 168.521 161.722C171.792 161.757 175.652 161.946 179.502 162.962C181.58 163.505 188.522 165.666 190.789 170.424C191.722 172.396 191.722 174.545 190.778 176.646C190.069 178.217 188.9 179.622 187.094 181.074C186.527 181.523 185.948 181.948 185.358 182.349C182.819 184.038 178.191 186.529 172.925 186.529L172.913 186.517ZM157.682 177.662C158.567 177.662 159.465 177.733 160.339 177.91C162.381 178.335 164.199 179.126 165.959 179.882C167.553 180.578 169.064 181.228 170.611 181.558C174.165 182.302 178.581 181.157 182.713 178.406C183.185 178.087 183.658 177.744 184.118 177.378C185.323 176.41 186.055 175.56 186.456 174.686C186.834 173.848 186.846 173.151 186.515 172.443C185.488 170.282 181.532 168.37 178.285 167.519C174.932 166.634 171.437 166.48 168.462 166.445C163.397 166.386 159.358 166.846 155.769 167.921C153.384 168.629 151.271 169.597 149.299 170.849C146.973 172.349 145.698 173.683 145.544 174.816C145.473 175.3 145.674 175.903 146.052 176.387C147.681 178.465 150.078 178.335 153.868 177.922C155.132 177.792 156.407 177.65 157.694 177.65L157.682 177.662Z" fill="#6F97A5" style="fill:#6F97A5;fill:color(display-p3 0.4353 0.5922 0.6471);fill-opacity:1;"/>
</svg>
