<svg width="16" height="18" viewBox="0 0 16 18" fill="none" xmlns="http://www.w3.org/2000/svg">
<path d="M2.64492 14.4327C3.90491 15.3127 10.4649 12.0927 11.6749 10.0927C12.8849 8.09265 14.1449 4.68265 12.2249 3.34265C10.3049 2.00265 5.39492 3.17265 4.39491 5.67265C3.39491 8.17265 1.81492 13.8427 2.64492 14.4227V14.4327Z" fill="#C1E3ED" style="fill:#C1E3ED;fill:color(display-p3 0.7569 0.8902 0.9294);fill-opacity:1;"/>
<path d="M10.2356 2.18246C8.82559 2.10246 7.81559 2.51246 7.48559 3.76246C7.15559 5.01247 7.06559 6.59246 8.56559 7.18246C10.0656 7.77246 12.8156 6.76247 12.8156 4.93246C12.8156 3.10246 11.7356 2.26246 10.2356 2.18246Z" fill="white" style="fill:white;fill-opacity:1;"/>
<path d="M2.56537 17.0526C1.87537 17.0526 1.23537 16.7826 0.76537 16.2726C0.30537 15.7826 -0.754629 14.6326 0.875371 9.55264C1.57537 7.39264 2.61538 5.39264 3.97538 3.61264C4.91538 2.39264 5.81537 1.53264 6.80537 0.932639C8.82537 -0.297361 11.1354 -0.307361 12.9854 0.88264C14.8354 2.07264 15.8254 4.26264 15.5454 6.60264C15.4654 7.24264 15.3054 7.88264 15.0554 8.51264C14.6354 9.55264 13.9954 10.5426 13.1454 11.4626C10.6754 14.1326 7.32538 15.9926 3.18538 16.9826C2.97538 17.0326 2.76537 17.0626 2.55537 17.0626L2.56537 17.0526ZM10.0054 4.00264C9.64538 4.00264 9.26538 4.11264 8.89538 4.34264C8.33537 4.68264 7.78538 5.22264 7.15538 6.04264C6.06538 7.46264 5.23538 9.06264 4.68538 10.7826C4.49538 11.3826 4.33537 11.9926 4.21537 12.5226C6.66537 11.6726 8.68538 10.4026 10.2254 8.74264C10.7354 8.19264 11.1254 7.59264 11.3554 7.02264C11.4754 6.72264 11.5554 6.42264 11.5854 6.13264C11.6854 5.31264 11.4054 4.61264 10.8354 4.24264C10.5854 4.08264 10.3054 4.00264 10.0054 4.00264Z" fill="#6F97A5" style="fill:#6F97A5;fill:color(display-p3 0.4353 0.5922 0.6471);fill-opacity:1;"/>
</svg>
