<svg width="508" height="400" viewBox="0 0 508 400" fill="none" xmlns="http://www.w3.org/2000/svg">
<path d="M50.1698 89.5901C52.3763 92.0017 53.5456 94.2625 53.225 96.1089C52.7535 98.7466 50.2264 100.423 47.5484 100.197C44.1349 99.9147 40.646 93.0944 43.0599 89.0626C44.7572 86.2365 47.4352 86.6321 50.1509 89.5901H50.1698Z" fill="#D5B39E" style="fill:#D5B39E;fill:color(display-p3 0.8353 0.7020 0.6196);fill-opacity:1;"/>
<path d="M372.376 83.6557C374.941 87.5934 368.321 93.6601 363.984 94.7151C362.343 95.1108 359.212 93.3397 359.193 90.6079C359.156 87.1224 362.437 83.9572 365.342 82.3558C368.246 80.7543 370.924 81.4137 372.376 83.6557Z" fill="#D5B39E" style="fill:#D5B39E;fill:color(display-p3 0.8353 0.7020 0.6196);fill-opacity:1;"/>
<path d="M435.498 101.424C433.046 102.592 431.066 99.879 430.161 98.6355C428.86 96.8645 428.049 92.7385 430.104 91.0428C432.876 88.7443 435.743 91.4196 437.101 93.3602C438.761 95.7529 439.439 99.5399 435.517 101.424H435.498Z" fill="#D3B19C" style="fill:#D3B19C;fill:color(display-p3 0.8275 0.6941 0.6118);fill-opacity:1;"/>
<path d="M399.401 123.118C397.76 125.322 394.818 124.701 393.536 123.721C391.971 122.534 390.5 120.028 391.179 117.315C391.857 114.602 395.535 115.167 397.195 116.034C399.382 117.202 401.608 120.179 399.401 123.099V123.118Z" fill="#D2B09C" style="fill:#D2B09C;fill:color(display-p3 0.8235 0.6902 0.6118);fill-opacity:1;"/>
<path d="M80.2113 122.897C77.7785 124.763 74.7234 124.763 72.7997 123.764C71.423 123.048 69.6503 121.409 69.8577 118.847C70.0086 117 72.4037 114.551 74.8931 113.345C77.7785 111.951 80.6451 112.629 82.7573 114.871C84.6809 116.944 83.8511 120.109 80.2113 122.878V122.897Z" fill="#D3B19C" style="fill:#D3B19C;fill:color(display-p3 0.8275 0.6941 0.6118);fill-opacity:1;"/>
<path d="M216.487 126.822C212.79 130.703 208.623 127.689 207.17 125.277C205.077 121.829 206.265 116.592 211.319 115.857C216.147 115.16 220.032 123.111 216.506 126.822H216.487Z" fill="#D4B29D" style="fill:#D4B29D;fill:color(display-p3 0.8314 0.6980 0.6157);fill-opacity:1;"/>
<path d="M162.946 78.738C161.928 80.7728 160.042 82.9206 158.609 83.3916C156.383 84.1076 154.478 82.7887 153.422 81.6583C151.744 79.8685 151.536 76.1757 153.158 73.9337C155.082 71.2961 158.25 70.3729 160.872 71.296C163.493 72.2192 164.455 75.667 162.927 78.738H162.946Z" fill="#D3B19C" style="fill:#D3B19C;fill:color(display-p3 0.8275 0.6941 0.6118);fill-opacity:1;"/>
<path d="M290.594 149.825C286.068 146.98 287.143 145.134 289.764 141.686C291.612 139.274 295.195 137.089 297.213 140.838C298.93 144.022 293.536 151.69 290.575 149.825H290.594Z" fill="#D4B29D" style="fill:#D4B29D;fill:color(display-p3 0.8314 0.6980 0.6157);fill-opacity:1;"/>
<path d="M290.396 68.8096C286.379 71.8052 283.078 67.7922 282.381 65.3806C281.475 62.2531 282.701 56.1111 287.265 56.4126C291.829 56.714 293.998 66.1154 290.396 68.7907V68.8096Z" fill="#D3B19C" style="fill:#D3B19C;fill:color(display-p3 0.8275 0.6941 0.6118);fill-opacity:1;"/>
<path d="M450.113 80.4745C448.472 82.3586 445.7 80.9078 444.663 79.6267C443.625 78.3455 442.758 75.7644 444.568 74.2572C446.001 73.0514 448.095 73.9746 449.189 75.0485C450.207 76.0093 452.074 78.2137 450.113 80.4934V80.4745Z" fill="#D4B29D" style="fill:#D4B29D;fill:color(display-p3 0.8314 0.6980 0.6157);fill-opacity:1;"/>
<path d="M262.39 19.5821C262.334 23.6704 257.864 23.9154 255.865 22.2574C254.13 20.8255 253.489 16.8125 256.299 15.6256C258.354 14.7589 262.428 16.7183 262.39 19.5821Z" fill="#D2B09B" style="fill:#D2B09B;fill:color(display-p3 0.8235 0.6902 0.6078);fill-opacity:1;"/>
<path d="M156.618 100.047C159.56 98.2381 162.143 99.67 162.69 102.119C163.199 104.418 162.502 106.829 159.805 108.355C158.258 109.241 156.259 109.128 154.581 107.093C152.978 105.171 152.997 102.27 156.618 100.047Z" fill="#D0AE99" style="fill:#D0AE99;fill:color(display-p3 0.8157 0.6824 0.6000);fill-opacity:1;"/>
<path d="M272.8 25.135C272.895 25.135 267.765 19.5017 272.065 22.6292C274.158 24.1553 277.572 25.2292 279.722 23.7785C281.702 22.4408 287.397 22.6858 289.264 21.235C291.414 19.5394 294.3 18.8235 296.959 18.4655C302.428 17.7496 307.972 18.7104 313.385 19.4263C329.736 21.6495 341.504 28.3567 353.781 38.2668C355.214 39.4161 357.062 39.906 358.873 39.661C380.617 36.6842 399.099 43.203 410.622 63.1174C410.679 64.1913 410.377 64.7377 410.132 64.7942C406.115 65.4725 407.378 69.4855 406.737 71.9348C400.476 95.9753 360.721 107.543 334.3 111.066L276.572 113.893C276.27 113.93 275.987 113.949 275.686 113.949L202.286 112.536C173.055 112.442 144.653 112.253 116.817 103.832C106.463 100.704 98.7502 91.8492 90.6596 87.1202C89.0377 86.4985 87.4913 85.3681 87.5479 83.7101C88.0194 63.0609 99.5422 55.6566 117.458 56.0711C120.306 56.1464 122.89 54.2812 123.776 51.5682C131.131 28.7335 154.083 20.7263 176.167 28.9596C178.354 29.7698 180.844 29.4683 182.597 27.9611C188.708 22.7046 195.101 21.8945 201.777 25.5118C204.002 26.7176 206.737 26.4727 208.755 24.9466C210.452 23.6655 212.15 22.4031 212.47 22.1959C215.224 20.4626 218.128 18.9742 221.126 17.7307C227.067 15.2815 233.46 13.7931 239.91 13.7554C246.36 13.7177 252.376 15.1307 257.826 18.2582C260.844 19.9916 263.276 22.4974 266.426 24.1176C269.575 25.7379 269.274 24.6263 272.8 25.135Z" fill="#B6937F" style="fill:#B6937F;fill:color(display-p3 0.7137 0.5765 0.4980);fill-opacity:1;"/>
<path d="M311.074 56.5905C313.215 56.3085 315.168 58.0712 315.003 60.3039C314.791 63.0536 313.897 65.2393 312.462 66.9079C309.075 70.8327 305.993 71.7728 302.464 71.5143C300.629 71.3968 299.171 69.7986 299.265 67.8949C299.382 65.0982 300.982 62.654 302.464 61.1264C305.287 58.2356 307.64 57.0605 311.074 56.5905Z" fill="#8F6451" style="fill:#8F6451;fill:color(display-p3 0.5608 0.3922 0.3176);fill-opacity:1;"/>
<path d="M288.733 23.4845C308.026 19.3431 331.336 23.4845 346.951 37.0652C353.552 42.8109 355.325 44.7324 365.169 42.4751C376.353 39.9194 394.498 43.4079 416.719 72.6008C416.756 72.6381 416.794 72.6754 416.813 72.7314C420.17 76.8168 426.789 73.1605 424.79 68.2915C416.813 54.9956 405.226 45.3666 402.793 43.4079C392.345 35.0692 377.616 30.7972 364.509 32.9238C357.569 34.0618 357.871 32.8679 353.099 29.2489C330.619 12.1797 300.388 10.2582 273.514 19.6975C271.987 20.2385 270.27 20.0147 269.045 18.9887C259.823 11.3402 251.543 7.45996 239.757 7.45996C228.988 7.45996 220.068 10.8738 211.072 17.1978C207.998 19.3618 203.509 17.5522 200.85 16.5822C197.55 15.3696 194.797 15.0338 191.421 15.6494C188.045 16.2651 184.594 18.2984 181.52 20.9288C180.143 22.1227 178.54 24.6971 176.824 24.0814C154.004 15.78 127.96 23.2979 119.304 46.2248C118.681 47.9037 117.097 49.0417 115.287 49.1536C95.7866 50.2729 85.5461 55.9626 82.6984 75.9606C82.2458 79.076 82.4344 81.9675 83.547 84.1874C84.1128 85.3067 85.4141 85.7358 86.8474 85.8663C89.2236 86.0902 91.2981 84.3366 91.6942 82.0234C92.7126 75.8487 92.8257 68.3308 97.7102 63.4245C103.764 57.3431 112.213 58.4437 119.794 57.3617C125.226 56.5782 127.413 51.4854 128.677 47.7172C134.863 29.2862 155.551 24.6784 173.467 30.8532C183.613 34.3603 181.161 26.917 192.816 24.6784C202.359 22.8502 205.15 28.6146 210.544 25.0888C225.556 15.295 236.739 12.702 253.712 18.6156C257.956 20.0893 260.86 22.2346 261.576 22.8129C265.669 26.1521 269.629 29.7339 275.626 27.0102C282.453 24.0068 288.696 23.4285 288.696 23.4285L288.733 23.4845Z" fill="#875B48" style="fill:#875B48;fill:color(display-p3 0.5294 0.3569 0.2824);fill-opacity:1;"/>
<path d="M331.622 105.418C331.037 109.243 329.133 110.58 327.416 111.221C325.945 111.767 323.362 111.598 322.589 110.109C320.854 106.756 322.664 101.424 326.398 100.388C328.774 99.7282 332.263 101.104 331.603 105.399L331.622 105.418Z" fill="#8C624F" style="fill:#8C624F;fill:color(display-p3 0.5490 0.3843 0.3098);fill-opacity:1;"/>
<path d="M115.27 84.1064C117.043 80.9223 120.4 81.5441 122.361 83.3339C124.078 84.8977 125.869 87.3469 123.436 90.3049C122.211 91.7933 120.325 92.6788 117.816 91.6991C115.836 90.9078 113.234 87.7614 115.27 84.1064Z" fill="#8A5F4C" style="fill:#8A5F4C;fill:color(display-p3 0.5412 0.3725 0.2980);fill-opacity:1;"/>
<path d="M376.921 65.0967C375.375 67.1126 372.131 66.359 370.811 65.417C368.831 64.0039 367.096 60.1228 369.585 57.7112C371.546 55.8083 374.3 57.3533 375.639 58.804C376.827 60.104 378.826 62.6286 376.94 65.1155L376.921 65.0967Z" fill="#8D624F" style="fill:#8D624F;fill:color(display-p3 0.5529 0.3843 0.3098);fill-opacity:1;"/>
<path d="M149.236 48.6465C151.065 48.4393 152.253 50.606 152.178 51.7929C152.027 53.9784 148.651 57.0682 146.633 57.0494C145.37 57.0494 143.691 56.1074 143.616 53.9407C143.559 52.4523 145.709 49.0422 149.217 48.6277L149.236 48.6465Z" fill="#8A5F4C" style="fill:#8A5F4C;fill:color(display-p3 0.5412 0.3725 0.2980);fill-opacity:1;"/>
<path d="M317.92 62.57C318.065 63.2078 318.119 63.8456 318.119 64.5017C318.065 67.5815 316.343 69.6043 314.439 71.8094C312.916 73.5588 311.266 75.1989 309.526 76.7115C305.9 79.8642 301.839 82.4884 297.597 84.6935C288.297 89.5227 278.054 92.3838 267.775 94.1151C256.861 95.9557 245.73 96.5389 234.671 96.1744C224.338 95.8281 214.004 94.68 203.888 92.4932C200.263 91.7096 196.655 90.7802 193.12 89.6685C184.617 86.9714 169.751 80.8665 171.691 69.3856C172.725 63.2442 173.522 58.4879 178.363 55.0618C179.469 54.1506 181.989 51.9274 181.481 50.597C193.319 45.3122 202.674 43.0889 215.418 40.8838C228.163 38.6788 241.923 39.025 254.903 39.2619C265.98 39.4624 279.396 40.2095 292.376 44.3281C300.026 46.7518 304.958 49.3396 309.979 52.6199C313.279 54.752 317.068 58.4696 317.956 62.5882L317.92 62.57Z" fill="#855E4E" style="fill:#855E4E;fill:color(display-p3 0.5216 0.3686 0.3059);fill-opacity:1;"/>
<path d="M312.119 68.0924C314.33 65.0672 315.763 59.017 319.334 60.1104C323.975 61.5319 321.908 68.3657 321.8 68.7484C319.044 78.5892 306.825 89.4323 292.793 94.3344C269.461 102.499 245.313 103.173 220.658 100.877C194.643 98.453 163.225 91.9471 165.709 68.4568C166.416 61.8416 172.29 55.1354 180.013 51.2537C180.973 50.7617 182.061 50.6159 183.131 50.7252C184.418 50.8528 185.959 51.1444 186.466 52.0738C189.911 58.3427 175.535 60.894 175.245 70.2428C174.81 84.8035 201.713 88.3935 220.857 91.0177C249.102 94.8994 293.5 91.1999 309.816 71.2268C310.632 70.2245 311.357 69.1129 312.119 68.0741V68.0924Z" fill="#603C30" style="fill:#603C30;fill:color(display-p3 0.3765 0.2353 0.1882);fill-opacity:1;"/>
</svg>
