<svg width="46" height="45" viewBox="0 0 46 45" fill="none" xmlns="http://www.w3.org/2000/svg">
<path d="M39.3235 36.5357C39.0035 38.2157 35.4435 38.6357 34.3435 38.3257C33.4135 38.0657 32.5335 37.4057 32.6135 36.5757C32.7635 34.8557 34.9435 34.2157 37.1635 34.6957C38.1635 34.9157 39.5135 35.6157 39.3335 36.5257L39.3235 36.5357Z" fill="#6F97A5" style="fill:#6F97A5;fill:color(display-p3 0.4353 0.5922 0.6471);fill-opacity:1;"/>
<path d="M39.4531 32.0267C39.2731 32.1167 39.0631 32.1367 38.8531 32.1367C37.9931 32.1067 37.1931 31.6567 36.5331 31.1267C35.7431 30.4867 35.1431 29.6467 34.9731 28.6267C34.8731 28.0567 34.9431 27.4467 35.2531 26.9567C35.6031 26.3967 36.1931 26.1167 36.8331 26.1467C38.0531 26.2067 39.0231 27.1467 39.4831 28.2267C39.8331 29.0367 40.1131 29.8967 40.1031 30.7967C40.1031 31.2267 39.9531 31.7167 39.5731 31.9667C39.5331 31.9967 39.4931 32.0167 39.4531 32.0367V32.0267Z" fill="#6F97A5" style="fill:#6F97A5;fill:color(display-p3 0.4353 0.5922 0.6471);fill-opacity:1;"/>
<path d="M42.3337 24.606C42.9837 24.056 43.9737 23.9759 44.7037 24.4159C45.4637 24.8759 45.6137 25.7259 45.6137 26.5859C45.6137 27.4559 45.4237 28.546 44.7037 29.116C44.0337 29.646 43.0537 29.4859 42.4237 28.7359C41.6937 27.8759 41.0337 25.706 42.3337 24.606Z" fill="#6F97A5" style="fill:#6F97A5;fill:color(display-p3 0.4353 0.5922 0.6471);fill-opacity:1;"/>
<path d="M18.5737 2.19743C15.8737 1.53743 12.3037 2.89743 11.5537 4.56743C10.8037 6.23743 10.0537 13.0674 15.7237 15.6474C21.3937 18.2274 28.3937 21.7274 29.9737 20.4774C31.5537 19.2274 30.9737 11.8974 28.3937 8.97743C25.8137 6.05743 22.5137 3.15743 18.5737 2.18743V2.19743Z" fill="#C1E3ED" style="fill:#C1E3ED;fill:color(display-p3 0.7569 0.8902 0.9294);fill-opacity:1;"/>
<path d="M13.8039 4.26506C9.21387 8.17506 15.1639 10.9551 18.7739 8.24506C19.8939 7.41506 20.5739 5.73506 19.6939 4.51506C18.4539 2.80506 15.5939 3.00506 13.9639 4.15506L13.8139 4.26506H13.8039Z" fill="white" style="fill:white;fill-opacity:1;"/>
<path d="M28.9743 22.4364C28.8643 22.4364 28.7443 22.4364 28.6343 22.4164C28.2843 22.3864 27.9443 22.3364 27.5943 22.2764C25.3443 21.8964 23.2243 21.0664 21.2543 20.2264C16.9743 18.3964 11.1443 15.8864 8.99433 11.2764C7.70433 8.57644 8.04433 5.55644 9.90433 3.22644C12.0143 0.596436 15.5043 -0.543564 19.0143 0.246436C23.6643 1.27644 27.7843 4.36644 30.3143 8.70644C31.2843 10.3764 32.0143 12.1764 32.4843 14.0764C32.7143 15.0164 32.8843 15.9664 32.9743 16.9064V17.0164C33.0943 18.0364 33.2443 19.5864 32.1143 20.9164C31.3043 21.8764 30.1243 22.4364 28.9643 22.4364H28.9743ZM16.8243 3.99644C15.0743 3.99644 13.7543 4.82644 13.0343 5.72644C12.1343 6.84644 11.9843 8.25644 12.6143 9.57644C14.1243 12.8164 19.1443 14.9764 22.8143 16.5464C24.5643 17.2964 26.4243 18.0264 28.2543 18.3364C28.4843 18.3764 28.7043 18.4064 28.9343 18.4264C28.9743 18.4064 29.0243 18.3664 29.0643 18.3264C29.0943 18.2164 29.0343 17.7164 29.0043 17.4064V17.2864C28.9143 16.5364 28.7843 15.7764 28.5943 15.0264C28.2143 13.5064 27.6243 12.0464 26.8443 10.7064C24.8743 7.31644 21.6943 4.92644 18.1243 4.12644C17.6643 4.02644 17.2243 3.97644 16.8043 3.97644L16.8243 3.99644Z" fill="#6F97A5" style="fill:#6F97A5;fill:color(display-p3 0.4353 0.5922 0.6471);fill-opacity:1;"/>
<path d="M1.894 36.896C1.464 38.876 4.814 42.646 7.474 42.316C10.134 41.986 16.804 36.736 16.644 35.566C16.484 34.396 12.724 32.066 8.394 32.736C4.064 33.406 2.314 34.986 1.894 36.906V36.896Z" fill="#C1E3ED" style="fill:#C1E3ED;fill:color(display-p3 0.7569 0.8902 0.9294);fill-opacity:1;"/>
<path d="M7.56414 44.036C6.34414 44.036 5.10414 43.796 3.97414 43.306C2.07414 42.486 0.764143 41.046 0.274143 39.276C-0.525857 36.636 0.444143 34.196 2.93414 32.626C7.02414 30.046 14.1941 30.386 17.4041 33.316L17.6941 33.576L18.1741 34.566L18.2141 34.906C18.5641 37.996 16.2141 40.786 11.2341 43.206C10.1741 43.766 8.88414 44.046 7.56414 44.046V44.036ZM9.79414 34.896C8.04414 34.896 6.25414 35.266 5.07414 36.016C3.88414 36.766 3.91414 37.496 4.11414 38.176C4.33414 38.976 5.02414 39.416 5.56414 39.646C6.77414 40.176 8.40414 40.166 9.42414 39.636C12.4941 38.146 13.8441 36.806 14.1641 35.876C13.0941 35.236 11.4541 34.906 9.79414 34.906V34.896Z" fill="#6F97A5" style="fill:#6F97A5;fill:color(display-p3 0.4353 0.5922 0.6471);fill-opacity:1;"/>
</svg>
