<svg width="97" height="45" viewBox="0 0 97 45" fill="none" xmlns="http://www.w3.org/2000/svg">
<path d="M39.3235 36.5357C39.0035 38.2157 35.4435 38.6357 34.3435 38.3257C33.4135 38.0657 32.5335 37.4057 32.6135 36.5757C32.7635 34.8557 34.9435 34.2157 37.1635 34.6957C38.1635 34.9157 39.5135 35.6157 39.3335 36.5257L39.3235 36.5357Z" fill="#6F97A5" style="fill:#6F97A5;fill:color(display-p3 0.4353 0.5922 0.6471);fill-opacity:1;"/>
<path d="M39.4531 32.0267C39.2731 32.1167 39.0631 32.1367 38.8531 32.1367C37.9931 32.1067 37.1931 31.6567 36.5331 31.1267C35.7431 30.4867 35.1431 29.6467 34.9731 28.6267C34.8731 28.0567 34.9431 27.4467 35.2531 26.9567C35.6031 26.3967 36.1931 26.1167 36.8331 26.1467C38.0531 26.2067 39.0231 27.1467 39.4831 28.2267C39.8331 29.0367 40.1131 29.8967 40.1031 30.7967C40.1031 31.2267 39.9531 31.7167 39.5731 31.9667C39.5331 31.9967 39.4931 32.0167 39.4531 32.0367V32.0267Z" fill="#6F97A5" style="fill:#6F97A5;fill:color(display-p3 0.4353 0.5922 0.6471);fill-opacity:1;"/>
<path d="M42.3337 24.606C42.9837 24.056 43.9737 23.9759 44.7037 24.4159C45.4637 24.8759 45.6137 25.7259 45.6137 26.5859C45.6137 27.4559 45.4237 28.546 44.7037 29.116C44.0337 29.646 43.0537 29.4859 42.4237 28.7359C41.6937 27.8759 41.0337 25.706 42.3337 24.606Z" fill="#6F97A5" style="fill:#6F97A5;fill:color(display-p3 0.4353 0.5922 0.6471);fill-opacity:1;"/>
<path d="M18.5737 2.19743C15.8737 1.53743 12.3037 2.89743 11.5537 4.56743C10.8037 6.23743 10.0537 13.0674 15.7237 15.6474C21.3937 18.2274 28.3937 21.7274 29.9737 20.4774C31.5537 19.2274 30.9737 11.8974 28.3937 8.97743C25.8137 6.05743 22.5137 3.15743 18.5737 2.18743V2.19743Z" fill="#C1E3ED" style="fill:#C1E3ED;fill:color(display-p3 0.7569 0.8902 0.9294);fill-opacity:1;"/>
<path d="M13.8039 4.26506C9.21387 8.17506 15.1639 10.9551 18.7739 8.24506C19.8939 7.41506 20.5739 5.73506 19.6939 4.51506C18.4539 2.80506 15.5939 3.00506 13.9639 4.15506L13.8139 4.26506H13.8039Z" fill="white" style="fill:white;fill-opacity:1;"/>
<path d="M28.9743 22.4364C28.8643 22.4364 28.7443 22.4364 28.6343 22.4164C28.2843 22.3864 27.9443 22.3364 27.5943 22.2764C25.3443 21.8964 23.2243 21.0664 21.2543 20.2264C16.9743 18.3964 11.1443 15.8864 8.99433 11.2764C7.70433 8.57644 8.04433 5.55644 9.90433 3.22644C12.0143 0.596436 15.5043 -0.543564 19.0143 0.246436C23.6643 1.27644 27.7843 4.36644 30.3143 8.70644C31.2843 10.3764 32.0143 12.1764 32.4843 14.0764C32.7143 15.0164 32.8843 15.9664 32.9743 16.9064V17.0164C33.0943 18.0364 33.2443 19.5864 32.1143 20.9164C31.3043 21.8764 30.1243 22.4364 28.9643 22.4364H28.9743ZM16.8243 3.99644C15.0743 3.99644 13.7543 4.82644 13.0343 5.72644C12.1343 6.84644 11.9843 8.25644 12.6143 9.57644C14.1243 12.8164 19.1443 14.9764 22.8143 16.5464C24.5643 17.2964 26.4243 18.0264 28.2543 18.3364C28.4843 18.3764 28.7043 18.4064 28.9343 18.4264C28.9743 18.4064 29.0243 18.3664 29.0643 18.3264C29.0943 18.2164 29.0343 17.7164 29.0043 17.4064V17.2864C28.9143 16.5364 28.7843 15.7764 28.5943 15.0264C28.2143 13.5064 27.6243 12.0464 26.8443 10.7064C24.8743 7.31644 21.6943 4.92644 18.1243 4.12644C17.6643 4.02644 17.2243 3.97644 16.8043 3.97644L16.8243 3.99644Z" fill="#6F97A5" style="fill:#6F97A5;fill:color(display-p3 0.4353 0.5922 0.6471);fill-opacity:1;"/>
<path d="M1.894 36.896C1.464 38.876 4.814 42.646 7.474 42.316C10.134 41.986 16.804 36.736 16.644 35.566C16.484 34.396 12.724 32.066 8.394 32.736C4.064 33.406 2.314 34.986 1.894 36.906V36.896Z" fill="#C1E3ED" style="fill:#C1E3ED;fill:color(display-p3 0.7569 0.8902 0.9294);fill-opacity:1;"/>
<path d="M7.56414 44.036C6.34414 44.036 5.10414 43.796 3.97414 43.306C2.07414 42.486 0.764143 41.046 0.274143 39.276C-0.525857 36.636 0.444143 34.196 2.93414 32.626C7.02414 30.046 14.1941 30.386 17.4041 33.316L17.6941 33.576L18.1741 34.566L18.2141 34.906C18.5641 37.996 16.2141 40.786 11.2341 43.206C10.1741 43.766 8.88414 44.046 7.56414 44.046V44.036ZM9.79414 34.896C8.04414 34.896 6.25414 35.266 5.07414 36.016C3.88414 36.766 3.91414 37.496 4.11414 38.176C4.33414 38.976 5.02414 39.416 5.56414 39.646C6.77414 40.176 8.40414 40.166 9.42414 39.636C12.4941 38.146 13.8441 36.806 14.1641 35.876C13.0941 35.236 11.4541 34.906 9.79414 34.906V34.896Z" fill="#6F97A5" style="fill:#6F97A5;fill:color(display-p3 0.4353 0.5922 0.6471);fill-opacity:1;"/>
<path d="M51.584 30.6219C49.914 30.2419 49.624 26.6719 49.974 25.5819C50.264 24.6619 50.9539 23.8019 51.7839 23.9119C53.4939 24.1219 54.054 26.3219 53.504 28.5219C53.254 29.5119 52.5039 30.8319 51.5939 30.6319L51.584 30.6219Z" fill="#6F97A5" style="fill:#6F97A5;fill:color(display-p3 0.4353 0.5922 0.6471);fill-opacity:1;"/>
<path d="M54.4134 32.5191C54.3334 32.3291 54.3134 32.1191 54.3334 31.9191C54.4034 31.0591 54.8734 30.2691 55.4234 29.6291C56.0834 28.8591 56.9534 28.2991 57.9734 28.1591C58.5434 28.0791 59.1534 28.1791 59.6334 28.4991C60.1834 28.8691 60.4434 29.4591 60.3834 30.1091C60.2834 31.3291 59.3034 32.2591 58.2034 32.6891C57.3834 33.0091 56.5034 33.2691 55.6134 33.2191C55.1834 33.1991 54.7034 33.0391 54.4634 32.6491C54.4434 32.6091 54.4134 32.5691 54.4034 32.5291L54.4134 32.5191Z" fill="#6F97A5" style="fill:#6F97A5;fill:color(display-p3 0.4353 0.5922 0.6471);fill-opacity:1;"/>
<path d="M62.9035 35.5124C63.5135 36.2824 63.1235 37.4024 62.3335 37.8924C61.2735 38.5524 59.6635 38.4324 58.5035 38.2024C57.9735 38.0924 57.3535 37.8624 57.2235 37.3324C57.1535 37.0524 57.2435 36.7524 57.3835 36.5024C58.3335 34.8424 61.5535 33.8024 62.8935 35.5024L62.9035 35.5124Z" fill="#6F97A5" style="fill:#6F97A5;fill:color(display-p3 0.4353 0.5922 0.6471);fill-opacity:1;"/>
<path d="M66.223 18.4327C67.483 19.3127 74.043 16.0927 75.253 14.0927C76.463 12.0927 77.723 8.68265 75.803 7.34265C73.883 6.00265 68.973 7.17265 67.973 9.67265C66.973 12.1727 65.393 17.8427 66.223 18.4227V18.4327Z" fill="#C1E3ED" style="fill:#C1E3ED;fill:color(display-p3 0.7569 0.8902 0.9294);fill-opacity:1;"/>
<path d="M73.8137 6.18149C72.4037 6.10149 71.3937 6.51149 71.0637 7.76149C70.7337 9.01149 70.6437 10.5915 72.1437 11.1815C73.6437 11.7715 76.3937 10.7615 76.3937 8.93149C76.3937 7.10149 75.3137 6.26149 73.8137 6.18149Z" fill="white" style="fill:white;fill-opacity:1;"/>
<path d="M66.1435 21.0526C65.4535 21.0526 64.8135 20.7826 64.3435 20.2726C63.8835 19.7826 62.8235 18.6326 64.4535 13.5526C65.1535 11.3926 66.1935 9.39264 67.5535 7.61264C68.4935 6.39264 69.3935 5.53264 70.3835 4.93264C72.4035 3.70264 74.7135 3.69264 76.5635 4.88264C78.4135 6.07264 79.4035 8.26264 79.1235 10.6026C79.0435 11.2426 78.8835 11.8826 78.6335 12.5126C78.2135 13.5526 77.5735 14.5426 76.7235 15.4626C74.2535 18.1326 70.9035 19.9926 66.7635 20.9826C66.5535 21.0326 66.3435 21.0626 66.1335 21.0626L66.1435 21.0526ZM73.5835 8.00264C73.2235 8.00264 72.8435 8.11264 72.4735 8.34264C71.9135 8.68264 71.3635 9.22264 70.7335 10.0426C69.6435 11.4626 68.8135 13.0626 68.2635 14.7826C68.0735 15.3826 67.9135 15.9926 67.7935 16.5226C70.2435 15.6726 72.2635 14.4026 73.8035 12.7426C74.3135 12.1926 74.7035 11.5926 74.9335 11.0226C75.0535 10.7226 75.1335 10.4226 75.1635 10.1326C75.2635 9.31264 74.9835 8.61264 74.4135 8.24264C74.1635 8.08264 73.8835 8.00264 73.5835 8.00264Z" fill="#6F97A5" style="fill:#6F97A5;fill:color(display-p3 0.4353 0.5922 0.6471);fill-opacity:1;"/>
<path d="M72.9736 30.433C72.9736 30.433 79.3036 22.853 84.4736 23.603C89.6436 24.353 94.2236 26.183 94.2236 29.103C94.2236 32.023 90.9936 36.433 87.3936 36.103C83.7936 35.773 73.6336 34.273 73.5536 32.193C73.4736 30.113 72.9736 30.443 72.9736 30.443V30.433Z" fill="#C1E3ED" style="fill:#C1E3ED;fill:color(display-p3 0.7569 0.8902 0.9294);fill-opacity:1;"/>
<path d="M90.8136 25.5138C89.3436 24.7538 87.4636 25.2338 86.6636 26.6838C86.3936 27.1738 86.5336 28.8738 86.8136 29.3438C87.6436 30.7638 88.3936 30.5138 89.7336 30.5138C91.0736 30.5138 93.0636 28.9338 93.0636 28.0138C93.0636 27.3938 92.2336 26.2438 90.8136 25.5138Z" fill="white" style="fill:white;fill-opacity:1;"/>
<path d="M86.6836 38.1246C81.5636 38.1246 71.7036 35.0846 70.9336 32.0546C70.6636 30.9846 70.6736 29.3246 72.2536 27.4546C75.2236 23.9446 82.4436 21.3746 88.0236 21.8346C92.8036 22.2346 96.4836 25.7146 96.4036 29.7746C96.3236 34.0846 92.5236 37.6546 87.5736 38.0846C87.2936 38.1046 86.9936 38.1246 86.6836 38.1246ZM74.8436 30.7946C76.5636 32.0146 83.3036 34.4446 87.2336 34.1046C90.1436 33.8546 92.3636 31.9646 92.4036 29.7046C92.4436 27.8146 90.2836 26.0446 87.6936 25.8246C83.0636 25.4446 77.2236 27.7746 75.3036 30.0446C75.0736 30.3246 74.9136 30.5846 74.8436 30.7946Z" fill="#6F97A5" style="fill:#6F97A5;fill:color(display-p3 0.4353 0.5922 0.6471);fill-opacity:1;"/>
</svg>
