<svg width="508" height="201" viewBox="0 0 508 201" fill="none" xmlns="http://www.w3.org/2000/svg">
<path d="M50.1698 88.7076C52.3763 91.0954 53.5456 93.334 53.225 95.1622C52.7535 97.7738 50.2264 99.4342 47.5484 99.2103C44.1349 98.9305 40.646 92.1774 43.0599 88.1853C44.7572 85.387 47.4352 85.7788 50.1509 88.7076H50.1698Z" fill="#D5B39E" style="fill:#D5B39E;fill:color(display-p3 0.8353 0.7020 0.6196);fill-opacity:1;"/>
<path d="M372.376 82.831C374.941 86.7299 368.321 92.7368 363.983 93.7814C362.343 94.1732 359.212 92.4196 359.193 89.7146C359.155 86.2635 362.437 83.1295 365.341 81.5438C368.246 79.9582 370.924 80.6111 372.376 82.831Z" fill="#D5B39E" style="fill:#D5B39E;fill:color(display-p3 0.8353 0.7020 0.6196);fill-opacity:1;"/>
<path d="M435.498 100.424C433.046 101.581 431.066 98.8945 430.161 97.6633C428.86 95.9098 428.049 91.8244 430.104 90.1454C432.877 87.8695 435.743 90.5185 437.101 92.44C438.761 94.8091 439.44 98.5588 435.517 100.424H435.498Z" fill="#D3B19C" style="fill:#D3B19C;fill:color(display-p3 0.8275 0.6941 0.6118);fill-opacity:1;"/>
<path d="M399.401 121.904C397.761 124.087 394.819 123.471 393.536 122.501C391.971 121.326 390.5 118.845 391.179 116.159C391.858 113.472 395.535 114.032 397.195 114.89C399.382 116.047 401.608 118.994 399.401 121.886V121.904Z" fill="#D2B09C" style="fill:#D2B09C;fill:color(display-p3 0.8235 0.6902 0.6118);fill-opacity:1;"/>
<path d="M80.2116 121.687C77.7787 123.534 74.7236 123.534 72.8 122.545C71.4233 121.836 69.6505 120.213 69.858 117.676C70.0088 115.848 72.4039 113.423 74.8933 112.229C77.7787 110.848 80.6453 111.52 82.7575 113.74C84.6812 115.792 83.8514 118.926 80.2116 121.668V121.687Z" fill="#D3B19C" style="fill:#D3B19C;fill:color(display-p3 0.8275 0.6941 0.6118);fill-opacity:1;"/>
<path d="M216.487 125.574C212.79 129.416 208.623 126.432 207.17 124.044C205.077 120.63 206.265 115.444 211.319 114.716C216.147 114.026 220.032 121.899 216.506 125.574H216.487Z" fill="#D4B29D" style="fill:#D4B29D;fill:color(display-p3 0.8314 0.6980 0.6157);fill-opacity:1;"/>
<path d="M162.946 77.9626C161.928 79.9773 160.042 82.1039 158.609 82.5703C156.383 83.2792 154.478 81.9733 153.422 80.854C151.744 79.0818 151.536 75.4255 153.158 73.2056C155.082 70.5939 158.25 69.6798 160.872 70.5939C163.493 71.508 164.455 74.9218 162.927 77.9626H162.946Z" fill="#D3B19C" style="fill:#D3B19C;fill:color(display-p3 0.8275 0.6941 0.6118);fill-opacity:1;"/>
<path d="M290.594 148.349C286.067 145.532 287.142 143.704 289.764 140.29C291.612 137.902 295.195 135.738 297.213 139.451C298.929 142.603 293.536 150.196 290.575 148.349H290.594Z" fill="#D4B29D" style="fill:#D4B29D;fill:color(display-p3 0.8314 0.6980 0.6157);fill-opacity:1;"/>
<path d="M290.395 68.1312C286.378 71.0973 283.078 67.1238 282.38 64.736C281.475 61.6393 282.701 55.5578 287.265 55.8563C291.829 56.1548 293.997 65.4635 290.395 68.1125V68.1312Z" fill="#D3B19C" style="fill:#D3B19C;fill:color(display-p3 0.8275 0.6941 0.6118);fill-opacity:1;"/>
<path d="M450.113 79.6818C448.472 81.5473 445.7 80.1109 444.663 78.8423C443.625 77.5738 442.758 75.0181 444.568 73.5257C446.002 72.3318 448.095 73.2459 449.189 74.3092C450.207 75.2606 452.074 77.4432 450.113 79.7005V79.6818Z" fill="#D4B29D" style="fill:#D4B29D;fill:color(display-p3 0.8314 0.6980 0.6157);fill-opacity:1;"/>
<path d="M262.39 19.3889C262.334 23.437 257.864 23.6796 255.865 22.0379C254.13 20.6202 253.489 16.6467 256.299 15.4714C258.354 14.6133 262.428 16.5534 262.39 19.3889Z" fill="#D2B09B" style="fill:#D2B09B;fill:color(display-p3 0.8235 0.6902 0.6078);fill-opacity:1;"/>
<path d="M156.617 99.0603C159.559 97.2694 162.143 98.6872 162.69 101.112C163.199 103.388 162.501 105.776 159.805 107.287C158.258 108.164 156.259 108.052 154.581 106.037C152.978 104.134 152.996 101.262 156.617 99.0603Z" fill="#D0AE99" style="fill:#D0AE99;fill:color(display-p3 0.8157 0.6824 0.6000);fill-opacity:1;"/>
<path d="M272.8 24.8874C272.895 24.8874 267.765 19.3096 272.065 22.4063C274.158 23.9173 277.572 24.9807 279.722 23.5442C281.702 22.2197 287.397 22.4623 289.264 21.0258C291.414 19.3469 294.3 18.638 296.959 18.2836C302.428 17.5747 307.972 18.5261 313.385 19.235C329.736 21.4362 341.504 28.0774 353.781 37.8898C355.214 39.0278 357.062 39.5128 358.873 39.2703C380.617 36.3228 399.099 42.7774 410.622 62.4956C410.679 63.5589 410.377 64.0999 410.132 64.1559C406.115 64.8275 407.378 68.801 406.737 71.2261C400.476 95.0297 360.721 106.484 334.3 109.972L276.572 112.77C276.27 112.808 275.987 112.826 275.686 112.826L202.286 111.427C173.055 111.334 144.653 111.147 116.817 102.809C106.463 99.7121 98.7502 90.9443 90.6596 86.2619C89.0377 85.6463 87.4913 84.527 87.5479 82.8854C88.0194 62.4396 99.5422 55.1083 117.458 55.5187C120.306 55.5933 122.89 53.7465 123.776 51.0602C131.131 28.4505 154.083 20.5222 176.167 28.6743C178.354 29.4765 180.844 29.178 182.597 27.6856C188.708 22.4809 195.101 21.6788 201.777 25.2605C204.002 26.4544 206.737 26.2119 208.755 24.7009C210.452 23.4323 212.15 22.1824 212.47 21.9772C215.224 20.261 218.128 18.7873 221.126 17.556C227.067 15.1309 233.46 13.6572 239.91 13.6199C246.36 13.5826 252.376 14.9817 257.826 18.0784C260.844 19.7946 263.276 22.2757 266.426 23.88C269.575 25.4844 269.274 24.3837 272.8 24.8874Z" fill="#B6937F" style="fill:#B6937F;fill:color(display-p3 0.7137 0.5765 0.4980);fill-opacity:1;"/>
<path d="M311.075 56.0323C313.215 55.7531 315.168 57.4984 315.003 59.7091C314.792 62.4318 313.898 64.5959 312.463 66.2481C309.075 70.1343 305.993 71.0651 302.465 70.8091C300.63 70.6927 299.171 69.1103 299.265 67.2254C299.383 64.4562 300.982 62.0361 302.465 60.5235C305.288 57.6613 307.64 56.4978 311.075 56.0323Z" fill="#8F6451" style="fill:#8F6451;fill:color(display-p3 0.5608 0.3922 0.3176);fill-opacity:1;"/>
<path d="M288.736 23.4884C308.029 19.347 331.339 23.4884 346.954 37.0691C353.555 42.8148 355.327 44.7363 365.172 42.479C376.355 39.9233 393.121 45.5944 400.721 54.6047C400.759 54.642 400.797 54.6793 400.815 54.7353C404.172 58.8207 410.792 55.1644 408.793 50.2954C407.793 47.8703 405.228 45.3706 402.796 43.4118C392.348 35.0731 377.619 30.8011 364.512 32.9277C357.572 34.0657 357.873 32.8718 353.102 29.2528C330.622 12.1836 300.391 10.2621 273.517 19.7015C271.989 20.2424 270.273 20.0186 269.047 18.9926C259.825 11.3441 251.546 7.46387 239.759 7.46387C228.991 7.46387 220.07 10.8777 211.075 17.2017C208.001 19.3657 203.512 17.5561 200.853 16.5861C197.553 15.3735 194.799 15.0377 191.423 15.6533C188.048 16.269 184.597 18.3023 181.522 20.9327C180.146 22.1266 178.543 24.701 176.827 24.0854C154.007 15.7839 127.963 23.3018 119.307 46.2287C118.684 47.9076 117.1 49.0456 115.29 49.1575C95.7893 50.2768 85.5488 55.9665 82.7011 75.9645C82.2485 79.0799 82.437 81.9714 83.5497 84.1913C84.1155 85.3106 85.4168 85.7397 86.8501 85.8702C89.2263 86.0941 91.3008 84.3406 91.6969 82.0274C92.7152 75.8526 92.8284 68.3347 97.7129 63.4285C103.767 57.347 112.215 58.4476 119.797 57.3656C125.228 56.5821 127.416 51.4893 128.679 47.7211C134.865 29.2901 155.554 24.6823 173.47 30.8571C183.616 34.3642 181.164 26.9209 192.819 24.6823C202.362 22.8541 205.153 28.6185 210.547 25.0927C225.558 15.2989 236.742 12.7059 253.715 18.6195C257.958 20.0932 260.863 22.2385 261.579 22.8168C265.672 26.156 269.632 29.7378 275.629 27.0142C282.456 24.0107 288.698 23.4324 288.698 23.4324L288.736 23.4884Z" fill="#875B48" style="fill:#875B48;fill:color(display-p3 0.5294 0.3569 0.2824);fill-opacity:1;"/>
<path d="M331.622 104.378C331.037 108.165 329.133 109.49 327.416 110.124C325.945 110.665 323.362 110.497 322.589 109.023C320.854 105.703 322.664 100.423 326.398 99.3973C328.774 98.7444 332.263 100.106 331.603 104.36L331.622 104.378Z" fill="#8C624F" style="fill:#8C624F;fill:color(display-p3 0.5490 0.3843 0.3098);fill-opacity:1;"/>
<path d="M115.271 83.2775C117.043 80.1249 120.4 80.7405 122.362 82.5127C124.078 84.061 125.869 86.4862 123.437 89.415C122.211 90.8887 120.325 91.7655 117.817 90.7954C115.836 90.0119 113.234 86.8966 115.271 83.2775Z" fill="#8A5F4C" style="fill:#8A5F4C;fill:color(display-p3 0.5412 0.3725 0.2980);fill-opacity:1;"/>
<path d="M376.922 64.4554C375.375 66.4515 372.132 65.7053 370.811 64.7725C368.831 63.3734 367.096 59.5305 369.586 57.1427C371.547 55.2585 374.3 56.7883 375.639 58.2247C376.827 59.5119 378.827 62.0116 376.941 64.474L376.922 64.4554Z" fill="#8D624F" style="fill:#8D624F;fill:color(display-p3 0.5529 0.3843 0.3098);fill-opacity:1;"/>
<path d="M149.236 48.1671C151.065 47.9619 152.253 50.1072 152.178 51.2825C152.027 53.4464 148.651 56.5058 146.633 56.4872C145.37 56.4872 143.691 55.5544 143.616 53.4091C143.559 51.9354 145.709 48.5588 149.217 48.1484L149.236 48.1671Z" fill="#8A5F4C" style="fill:#8A5F4C;fill:color(display-p3 0.5412 0.3725 0.2980);fill-opacity:1;"/>
</svg>
