<svg width="88" height="88" viewBox="0 0 88 88" fill="none" xmlns="http://www.w3.org/2000/svg">
<path d="M72.3547 81.1168C58.8772 85.235 44.1404 77.7645 33.7089 69.6643C5.57968 47.8484 2.17627 4.82927 16.828 4.8633C31.4797 4.89734 45.1954 13.7802 56.8011 22.7312C86.9043 45.9936 85.8492 76.9647 72.3547 81.0998V81.1168Z" fill="#784838" style="fill:#784838;fill:color(display-p3 0.4706 0.2824 0.2196);fill-opacity:1;"/>
<path d="M70.9088 71.2488C69.8027 71.8444 68.7476 72.2528 67.9648 71.9805C48.3612 65.0205 26.7665 37.9293 19.6363 18.8021C17.305 19.7891 18.6493 18.0364 18.1048 16.658C17.4241 14.3437 20.0618 11.9443 22.6313 12.9823C48.3441 23.3287 79.8768 48.7352 70.9088 71.2488Z" fill="#EEC499" style="fill:#EEC499;fill:color(display-p3 0.9333 0.7686 0.6000);fill-opacity:1;"/>
<path d="M69.9214 72.7314C69.4279 74.5012 64.1186 73.9737 58.2647 72.323C35.4108 66.1118 21.8992 48.2779 17.6279 25.2538C18.5128 22.2417 19.3467 21.5781 20.0444 24.5731L22.9373 25.6962C30.7821 43.0536 44.3277 57.0247 60.1536 67.371L69.9214 72.7144V72.7314Z" fill="#ECC297" style="fill:#ECC297;fill:color(display-p3 0.9255 0.7608 0.5922);fill-opacity:1;"/>
<path d="M70.9077 71.249C70.0738 73.325 68.8997 74.5162 66.3982 73.4952C63.6924 72.3721 63.7605 72.1849 60.5103 70.2449C42.8295 59.0817 27.6333 43.7153 19.7203 24.435C17.5762 23.5161 17.0997 19.432 19.6182 18.8193C22.4601 19.432 23.2088 21.5081 24.6042 24.5541C33.9296 45.1448 51.3721 60.9026 70.9077 71.266V71.249Z" fill="#BF8357" style="fill:#BF8357;fill:color(display-p3 0.7490 0.5137 0.3412);fill-opacity:1;"/>
<path d="M19.6193 18.8023C19.7044 20.3679 19.1428 22.9204 19.7214 24.4179L18.1047 27.7193C17.0157 23.516 16.1138 17.6962 18.2409 14.7012C18.2919 15.7903 18.9896 18.3088 19.6023 18.8023H19.6193Z" fill="#D7A67A" style="fill:#D7A67A;fill:color(display-p3 0.8431 0.6510 0.4784);fill-opacity:1;"/>
</svg>
