<svg width="88" height="88" viewBox="0 0 88 88" fill="none" xmlns="http://www.w3.org/2000/svg">
<path d="M63.0665 2.44531C70.588 4.01088 72.0004 5.78066 74.1276 19.8197C75.3358 29.1791 74.9784 37.1942 74.0595 43.5756C73.1406 49.957 69.1075 61.3244 65.6871 66.4125C60.0204 74.853 55.3577 80.7068 44.2286 84.893C34.2736 88.6198 20.796 83.9911 14.2445 73.6277C6.87608 61.9711 8.85006 49.4975 18.5498 39.4064L35.7711 21.9639C39.2085 18.3903 45.7941 10.3242 49.2486 7.29518C52.4478 4.47034 57.3317 2.47935 61.586 2.47935H63.0665V2.44531Z" fill="#784838" style="fill:#784838;fill:color(display-p3 0.4706 0.2824 0.2196);fill-opacity:1;"/>
<path d="M61.6894 10.3055C71.9847 13.1644 71.7125 77.0124 34.0196 78.2377C25.9365 78.4929 20.6102 70.0695 19.0616 64.9303C13.7012 47.0794 34.8365 36.733 54.5593 12.1263C56.1759 10.1013 59.9366 9.81199 61.6894 10.3055Z" fill="#F4BF92" style="fill:#F4BF92;fill:color(display-p3 0.9569 0.7490 0.5725);fill-opacity:1;"/>
<path d="M30.6664 68.7077C43.5994 58.4804 51.0018 45.5134 56.2942 30.4533C58.0469 25.4843 58.2681 19.6305 62.8798 15.3932C63.3222 14.9848 64.0539 15.3592 63.9689 15.9548C62.3012 28.156 57.7406 39.4383 51.9548 50.3293C46.169 61.2202 31.6875 76.944 30.6494 68.6907L30.6664 68.7077Z" fill="#C4895D" style="fill:#C4895D;fill:color(display-p3 0.7686 0.5373 0.3647);fill-opacity:1;"/>
</svg>
