<svg width="54" height="54" viewBox="0 0 54 54" fill="none" xmlns="http://www.w3.org/2000/svg">
<path d="M26.8497 15.5303C25.7324 15.5303 19.6583 25.6775 19.2317 29.6592C18.7949 33.6511 21.5475 39.0548 26.6364 38.9837C31.7252 38.9126 34.5998 33.8542 34.031 29.6592C33.4215 25.1798 27.9772 15.5303 26.8497 15.5303Z" fill="#C1E3ED" style="fill:#C1E3ED;fill:color(display-p3 0.7569 0.8902 0.9294);fill-opacity:1;"/>
<path d="M24.5429 30.1883C23.0904 31.4478 23.1717 34.2106 24.8375 35.2771C26.2392 36.2929 28.6567 35.6936 29.256 34.0176C30.2717 31.5494 26.9909 28.4412 24.7156 30.0562L24.5531 30.1883H24.5429Z" fill="white" style="fill:white;fill-opacity:1;"/>
<path d="M26.93 41.0164C24.4313 41.0164 22.1966 40.0108 20.4496 38.091C18.3978 35.8361 17.2805 32.4435 17.6055 29.4369C17.9204 26.5421 20.3683 21.9408 21.4145 20.1023C25.1423 13.5 26.4119 13.5 27.255 13.5C28.1285 13.5 29.3982 13.5 32.8314 19.9601C33.7761 21.7376 36.0107 26.2069 36.4474 29.3862C36.8537 32.3521 35.9193 35.4806 33.9487 37.7762C32.1813 39.828 29.7436 40.9757 27.0722 41.0164C27.0315 41.0164 26.9808 41.0164 26.9401 41.0164H26.93ZM27.2245 18.4466C25.3149 21.1282 21.9325 27.314 21.6481 29.8839C21.445 31.7528 22.1763 33.9468 23.4561 35.3587C24.4313 36.4354 25.6298 36.9839 27.0011 36.9534C28.9107 36.9229 30.1499 35.9478 30.8507 35.1251C32.0595 33.7234 32.6486 31.7325 32.4048 29.9347C31.9884 26.8773 28.931 21.0165 27.2042 18.4466H27.2245Z" fill="#6F97A5" style="fill:#6F97A5;fill:color(display-p3 0.4353 0.5922 0.6471);fill-opacity:1;"/>
</svg>
