<svg width="117" height="80" viewBox="0 0 117 80" fill="none" xmlns="http://www.w3.org/2000/svg">
<path d="M2 18C2 9.16344 9.16344 2 18 2H99C107.837 2 115 9.16344 115 18V62C115 70.8366 107.837 78 99 78H18C9.16344 78 2 70.8366 2 62V18Z" fill="#60452E" style="fill:#60452E;fill:color(display-p3 0.3765 0.2706 0.1804);fill-opacity:1;"/>
<path d="M22 1.91143L21.8105 2.89331L22 1.91143ZM23.6 2.22021L23.4105 3.20209L23.6 2.22021ZM26.8 1.94731L26.6247 0.962789L26.8 1.94731ZM31.6 1.68246L31.4589 2.67245L31.6 1.68246ZM33.2 1.91053L33.0589 2.90053L33.2 1.91053ZM38 1.93954L37.8695 0.948089L38 1.93954ZM38.8 1.83422L38.9305 2.82567L38.8 1.83422ZM39.6 1.72891L39.4695 0.737465L39.6 1.72891ZM44.4 1.96251L44.612 0.985235L44.4 1.96251ZM45.2 2.13604L44.988 3.11332L45.2 2.13604ZM46 2.30958L46.212 1.33231L46 2.30958ZM47.6 2.24212L47.3116 1.28462L47.6 2.24212ZM49.2 1.76013L49.4884 2.71763L49.2 1.76013ZM50.8 1.5968L50.7034 2.59212L50.8 1.5968ZM54 1.73386L53.881 0.740976L54 1.73386ZM57.2 1.6251L56.9817 2.60097L57.2 1.6251ZM58 1.80409L58.2183 0.828218L58 1.80409ZM58.8 1.98308L58.5817 2.95895L58.8 1.98308ZM61.2 2.06585L61.14 1.06766L61.2 2.06585ZM63.6 1.92239L63.541 0.924128L63.6 1.92239ZM66.8 1.68955L66.9131 2.68313L66.8 1.68955ZM68.4 1.50737L68.2869 0.513795L68.4 1.50737ZM70 1.67567L70.3084 0.724424L70 1.67567ZM71.6 2.19445L71.9084 1.2432L71.6 2.19445ZM73.2 2.19637L72.8936 1.24445L73.2 2.19637ZM74.8 1.68145L75.1064 2.63336L74.8 1.68145ZM76.4 1.56226L76.2297 2.54765L76.4 1.56226ZM78 1.8388L78.1703 0.853411L78 1.8388ZM79.6 1.89785L79.5015 0.902718L79.6 1.89785ZM81.2 1.73941L81.2985 2.73454L81.2 1.73941ZM82.8 1.87016L82.5461 2.8374L82.8 1.87016ZM84.4 2.2901L84.6539 1.32286L84.4 2.2901ZM86 2.22786L85.6779 1.28116L86 2.22786ZM87.6 1.68344L87.9221 2.63013L87.6 1.68344ZM89.2 1.48784L89.1047 2.48329L89.2 1.48784ZM90.8 1.64106L90.7047 2.63651L90.8 1.64106ZM93.2 1.78072L93.1606 2.77995L93.2 1.78072ZM94 1.81225L93.9606 2.81147L94 1.81225ZM95.6 1.81937L95.5695 0.819835L95.6 1.81937ZM97.2 1.77057L97.1695 0.771036L97.2 1.77057ZM98.7824 1.96464L99.0514 1.00148L98.7824 1.96464ZM100.347 2.40158L100.078 3.36474L100.347 2.40158ZM101.927 2.6753L101.858 3.67291L101.927 2.6753ZM102.725 2.73055L102.794 1.73294L102.725 2.73055ZM103.522 2.7858L103.591 1.78819L103.522 2.7858ZM105.052 3.17152L104.64 4.08289L105.052 3.17152ZM106.515 3.83245L106.927 2.92107L106.515 3.83245ZM107.781 4.76478L107.033 5.42848L107.781 4.76478ZM108.849 5.96851L109.597 5.30482L108.849 5.96851ZM110.077 7.01243L109.54 7.85581L110.077 7.01243ZM110.771 7.45448L111.308 6.6111L110.771 7.45448ZM112.508 9.07012L113.41 8.63887L112.508 9.07012ZM112.858 9.80166L111.955 10.2329L112.858 9.80166ZM113.207 10.5332L112.305 10.9644L113.207 10.5332ZM113.737 12.0404L112.763 12.267L113.737 12.0404ZM114.098 13.5918L115.072 13.3652L114.098 13.5918ZM114.501 15.1405L113.539 15.4164L114.501 15.1405ZM114.944 16.6865L115.906 16.4106L114.944 16.6865ZM115.178 18.2612L114.179 18.2763L115.178 18.2612ZM115.203 19.8646L116.203 19.8494L115.203 19.8646ZM115.016 21.4663L114.045 21.225L115.016 21.4663ZM114.618 23.0663L115.589 23.3076L114.618 23.0663ZM114.95 25.4663L115.899 25.1514L114.95 25.4663ZM115.215 26.2663L114.266 26.5811L115.215 26.2663ZM115.239 27.8663L114.282 27.5772L115.239 27.8663ZM114.756 29.4663L115.713 29.7553L114.756 29.4663ZM114.552 31.0663L113.553 31.1133L114.552 31.0663ZM114.59 31.8663L115.589 31.8192L114.59 31.8663ZM114.627 32.6663L115.626 32.6192L114.627 32.6663ZM114.889 34.2663L115.852 33.9969L114.889 34.2663ZM115.336 35.8663L114.373 36.1356L115.336 35.8663ZM115.555 37.4663L114.555 37.4597L115.555 37.4663ZM115.545 39.0663L116.544 39.0728L115.545 39.0663ZM115.325 40.6663L114.359 40.4075L115.325 40.6663ZM114.896 42.2663L115.862 42.525L114.896 42.2663ZM115.02 47.0663L114.02 47.076L115.02 47.0663ZM115.036 48.6663L114.036 48.676L115.036 48.6663ZM114.924 51.8663L113.925 51.8164L114.924 51.8663ZM114.853 53.4663L115.853 53.5046L114.853 53.4663ZM114.792 55.0663L113.793 55.0279L114.792 55.0663ZM114.712 56.6663L115.71 56.7281L114.712 56.6663ZM114.662 57.4663L113.664 57.4044L114.662 57.4663ZM114.612 58.2663L115.611 58.3281L114.612 58.2663ZM114.758 59.8679L113.786 60.1043L114.758 59.8679ZM115.148 61.4713L116.12 61.2349L115.148 61.4713ZM115.179 63.0679L114.199 62.8654L115.179 63.0679ZM114.85 64.6579L115.829 64.8604L114.85 64.6579ZM114.544 66.2627L115.53 66.4341L114.544 66.2627ZM114.403 67.0725L115.389 67.244L114.403 67.0725ZM114.263 67.8824L113.277 67.711L114.263 67.8824ZM113.576 69.312L114.327 69.9728L113.576 69.312ZM112.485 70.5516L111.734 69.8908L112.485 70.5516ZM111.448 71.7985L110.661 71.1815L111.448 71.7985ZM110.464 73.0529L109.677 72.4359L110.464 73.0529ZM109.34 74.1696L109.951 74.9607L109.34 74.1696ZM108.707 74.6591L109.318 75.4502L108.707 74.6591ZM108.074 75.1487L107.462 74.3576L108.074 75.1487ZM106.746 76.0576L107.263 76.9135L106.746 76.0576ZM106.052 76.4769L106.569 77.3329L106.052 76.4769ZM105.358 76.8962L104.841 76.0403L105.358 76.8962ZM103.87 77.4917L103.654 76.5155L103.87 77.4917ZM103.077 77.6679L102.86 76.6917L103.077 77.6679ZM102.284 77.8441L102.5 78.8203L102.284 77.8441ZM100.685 78.0376L100.663 77.0378V77.0378L100.685 78.0376ZM97.4675 78.0721L97.4458 79.0718L97.4675 78.0721ZM96.6675 78.0547L96.6458 79.0545L96.6675 78.0547ZM95.8675 78.0373L95.8892 77.0375L95.8675 78.0373ZM94.2675 78.0708L94.204 77.0728L94.2675 78.0708ZM93.4675 78.1217L93.531 79.1197L93.4675 78.1217ZM92.6675 78.1727L92.604 77.1747L92.6675 78.1727ZM91.0675 78.2716L91.1274 79.2698L91.0675 78.2716ZM89.4675 78.3676L89.5274 79.3658L89.4675 78.3676ZM87.8675 78.4057L87.8552 79.4057L87.8675 78.4057ZM84.6675 78.3491L84.6336 79.3485L84.6675 78.3491ZM81.4675 78.0987L81.6742 77.1203L81.4675 78.0987ZM79.8675 77.7605L79.6607 78.7389L79.8675 77.7605ZM78.2675 77.627L78.2231 76.628L78.2675 77.627ZM76.6675 77.698L76.7118 78.697L76.6675 77.698ZM75.0675 77.8849L74.8815 76.9023L75.0675 77.8849ZM73.4675 78.1877L73.2815 77.2051L73.4675 78.1877ZM71.8675 78.3415L71.8706 79.3415L71.8675 78.3415ZM71.0675 78.344L71.0644 77.344L71.0675 78.344ZM70.2675 78.3465L70.2706 79.3465L70.2675 78.3465ZM68.6675 78.2451L68.5386 79.2367L68.6675 78.2451ZM67.0675 78.0372L66.9386 79.0288L67.0675 78.0372ZM64.6675 77.8445L64.7228 76.846L64.6675 77.8445ZM63.8675 77.8002L63.8121 78.7986L63.8675 77.8002ZM62.2675 77.7306L62.299 76.7311L62.2675 77.7306ZM59.0675 77.6275L59.1017 76.6281L59.0675 77.6275ZM57.4675 77.5728L57.4333 78.5722L57.4675 77.5728ZM55.8675 77.5965L55.8037 76.5985L55.8675 77.5965ZM54.2675 77.6986L54.3312 78.6966L54.2675 77.6986ZM49.4675 77.6085L49.5466 76.6116L49.4675 77.6085ZM48.6675 77.545L48.5883 78.5418L48.6675 77.545ZM47.8675 77.4815L47.9466 76.4846L47.8675 77.4815ZM46.2675 77.5903L46.0569 76.6128L46.2675 77.5903ZM45.4675 77.7627L45.6781 78.7402L45.4675 77.7627ZM44.6675 77.9351L44.8781 78.9126L44.6675 77.9351ZM43.0675 78.1944L42.9594 77.2002L43.0675 78.1944ZM41.4675 78.3683L41.5755 79.3624L41.4675 78.3683ZM39.8675 78.3883L39.7842 79.3848L39.8675 78.3883ZM38.2675 78.2546L38.3508 77.258L38.2675 78.2546ZM36.6675 78.1709L36.6465 79.1707L36.6675 78.1709ZM35.0675 78.1374L35.0884 77.1376L35.0675 78.1374ZM30.2675 78.2158L30.2597 77.2159L30.2675 78.2158ZM28.6675 78.2283L28.6753 79.2283L28.6675 78.2283ZM27.0675 78.0827L27.2539 77.1003L27.0675 78.0827ZM26.2675 77.931L26.0811 78.9135L26.2675 77.931ZM25.4675 77.7792L25.2811 78.7617L25.4675 77.7792ZM23.8675 77.7569L24.0272 78.7441L23.8675 77.7569ZM22.2675 78.0157L22.1078 77.0286L22.2675 78.0157ZM20.6675 78.1159L20.704 77.1166L20.6675 78.1159ZM19.0675 78.0575L19.031 79.0568L19.0675 78.0575ZM17.4681 77.9719L17.3978 78.9695L17.4681 77.9719ZM15.8693 77.8594L15.9395 76.8618L15.8693 77.8594ZM14.3072 77.5604L14.0041 78.5134L14.3072 77.5604ZM12.7818 77.0752L12.4787 78.0282L12.7818 77.0752ZM11.3686 76.3766L11.9426 75.5578L11.3686 76.3766ZM10.7181 75.9207L11.2921 75.1018L10.7181 75.9207ZM10.0676 75.4647L9.49359 76.2835L10.0676 75.4647ZM8.63666 74.6953L8.26394 75.6232L8.63666 74.6953ZM7.07585 74.0684L7.44857 73.1404L7.07585 74.0684ZM5.9981 72.9629L6.9343 72.6114L5.9981 72.9629ZM5.70075 72.1708L4.76455 72.5223L5.70075 72.1708ZM5.4034 71.3788L4.4672 71.7303V71.7303L5.4034 71.3788ZM4.73152 69.9088L5.60684 69.4253L4.73152 69.9088ZM4.357 69.2309L3.48168 69.7144L4.357 69.2309ZM3.26817 67.1538L2.36356 67.5801L3.26817 67.1538ZM2.92838 66.4327L3.83299 66.0065L2.92838 66.4327ZM2.58859 65.7116L1.68398 66.1378L2.58859 65.7116ZM2.07975 64.1931L3.058 63.9857L2.07975 64.1931ZM1.74165 62.5985L0.763395 62.8059L1.74165 62.5985ZM1.55999 57.8012L0.560201 57.8218L1.55999 57.8012ZM1.74617 54.6012L0.786862 54.3189L1.74617 54.6012ZM1.98163 53.8012L2.94095 54.0836L1.98163 53.8012ZM2.2171 53.0012L1.25778 52.7189L2.2171 53.0012ZM2.36348 51.4012L1.36962 51.5119L2.36348 51.4012ZM2.2744 50.6012L3.26825 50.4906L2.2744 50.6012ZM2.18532 49.8012L1.19146 49.9119L2.18532 49.8012ZM2.15227 48.2012L1.15471 48.1314L2.15227 48.2012ZM2.2413 45.0012L1.24614 45.0996L2.2413 45.0012ZM2.08317 43.4012L3.07833 43.3029L2.08317 43.4012ZM1.98501 38.6012L2.96535 38.4039L1.98501 38.6012ZM1.663 37.0012L2.64335 36.8039L1.663 37.0012ZM1.75752 35.4012L2.71011 35.7055L1.75752 35.4012ZM2.01305 34.6012L2.96564 34.9055L2.01305 34.6012ZM2.26857 33.8012L1.31598 33.497L2.26857 33.8012ZM2.33517 32.2012L1.36194 32.4311L2.33517 32.2012ZM1.97076 27.4012L0.974296 27.3172L1.97076 27.4012ZM1.97422 22.6012L0.99289 22.7936L1.97422 22.6012ZM1.63946 19.4014L0.653538 19.2342L1.63946 19.4014ZM2.19399 16.2197L1.21133 16.0342L2.19399 16.2197ZM3.02625 13.1843L2.1558 12.6921L3.02625 13.1843ZM3.80489 11.8075L4.67534 12.2997L3.80489 11.8075ZM4.44651 10.3441L5.39738 10.6537L4.44651 10.3441ZM4.69881 9.56913L3.74793 9.25956L4.69881 9.56913ZM4.95111 8.79418L4.00023 8.48461L4.95111 8.79418ZM6.34513 6.8742L5.637 6.16812L6.34513 6.8742ZM9.60977 4.5924L9.13771 3.71084L9.60977 4.5924ZM11.0556 3.94903L10.7184 3.00761L11.0556 3.94903ZM14.0274 2.961L13.7783 1.99251L14.0274 2.961ZM15.5414 2.57161L15.2923 1.60312L15.5414 2.57161ZM16.7238 2.25194L16.4419 1.29249L16.7238 2.25194ZM17.1492 2.12698L16.8673 1.16752L17.1492 2.12698ZM17.5746 2.00201L17.2927 1.04255L17.5746 2.00201ZM19.6 1.87852L19.6757 2.87565L20.4757 2.81491L20.4 1.81778L20.3243 0.820651L19.5243 0.881391L19.6 1.87852ZM20.4 1.81778L20.4757 2.81491C20.919 2.78126 21.3631 2.80698 21.8105 2.89331L22 1.91143L22.1895 0.929549C21.5702 0.810034 20.9477 0.77332 20.3243 0.820651L20.4 1.81778ZM22 1.91143L21.8105 2.89331L22.6105 3.0477L22.8 2.06582L22.9895 1.08394L22.1895 0.929549L22 1.91143ZM22.8 2.06582L22.6105 3.0477L23.4105 3.20209L23.6 2.22021L23.7895 1.23833L22.9895 1.08394L22.8 2.06582ZM23.6 2.22021L23.4105 3.20209C24.0639 3.32819 24.7209 3.3332 25.3753 3.21669L25.2 2.23217L25.0247 1.24765C24.6124 1.32105 24.2028 1.31808 23.7895 1.23833L23.6 2.22021ZM25.2 2.23217L25.3753 3.21669L26.1753 3.07426L26 2.08974L25.8247 1.10522L25.0247 1.24765L25.2 2.23217ZM26 2.08974L26.1753 3.07426L26.9753 2.93183L26.8 1.94731L26.6247 0.962789L25.8247 1.10522L26 2.08974ZM26.8 1.94731L26.9753 2.93183C27.4754 2.84278 27.9749 2.7799 28.4737 2.74304L28.4 1.74576L28.3263 0.748481C27.7585 0.790439 27.1912 0.861926 26.6247 0.962789L26.8 1.94731ZM28.4 1.74576L28.4737 2.74304L29.2737 2.68393L29.2 1.68665L29.1263 0.689367L28.3263 0.748481L28.4 1.74576ZM29.2 1.68665L29.2737 2.68393L30.0737 2.62482L30 1.62753L29.9263 0.630253L29.1263 0.689367L29.2 1.68665ZM30 1.62753L30.0737 2.62482C30.5348 2.59074 30.9962 2.60649 31.4589 2.67245L31.6 1.68246L31.7411 0.692467C31.1372 0.606376 30.5318 0.58551 29.9263 0.630253L30 1.62753ZM31.6 1.68246L31.4589 2.67245L32.2589 2.78649L32.4 1.7965L32.5411 0.806505L31.7411 0.692467L31.6 1.68246ZM32.4 1.7965L32.2589 2.78649L33.0589 2.90053L33.2 1.91053L33.3411 0.920543L32.5411 0.806505L32.4 1.7965ZM33.2 1.91053L33.0589 2.90053C33.6364 2.98285 34.2148 3.02595 34.7937 3.02962L34.8 2.02964L34.8063 1.02966C34.3186 1.02657 33.8303 0.990267 33.3411 0.920543L33.2 1.91053ZM34.8 2.02964L34.7937 3.02962L35.5937 3.03469L35.6 2.03471L35.6063 1.03473L34.8063 1.02966L34.8 2.02964ZM35.6 2.03471L35.5937 3.03469L36.3937 3.03976L36.4 2.03978L36.4063 1.0398L35.6063 1.03473L35.6 2.03471ZM36.4 2.03978L36.3937 3.03976C36.9731 3.04343 37.5522 3.00711 38.1305 2.93098L38 1.93954L37.8695 0.948089C37.3811 1.01238 36.8935 1.04289 36.4063 1.0398L36.4 2.03978ZM38 1.93954L38.1305 2.93098L38.9305 2.82567L38.8 1.83422L38.6695 0.842777L37.8695 0.948089L38 1.93954ZM38.8 1.83422L38.9305 2.82567L39.7305 2.72036L39.6 1.72891L39.4695 0.737465L38.6695 0.842777L38.8 1.83422ZM39.6 1.72891L39.7305 2.72036C40.2039 2.65804 40.6763 2.63921 41.1484 2.66361L41.2 1.66494L41.2516 0.666274C40.657 0.635547 40.0627 0.659369 39.4695 0.737465L39.6 1.72891ZM41.2 1.66494L41.1484 2.66361L41.9484 2.70495L42 1.70628L42.0516 0.707617L41.2516 0.666274L41.2 1.66494ZM42 1.70628L41.9484 2.70495L42.7484 2.74629L42.8 1.74763L42.8516 0.748959L42.0516 0.707617L42 1.70628ZM42.8 1.74763L42.7484 2.74629C43.2266 2.77101 43.7063 2.83529 44.188 2.93978L44.4 1.96251L44.612 0.985235C44.027 0.858342 43.4401 0.779369 42.8516 0.748959L42.8 1.74763ZM44.4 1.96251L44.188 2.93978L44.988 3.11332L45.2 2.13604L45.412 1.15877L44.612 0.985235L44.4 1.96251ZM45.2 2.13604L44.988 3.11332L45.788 3.28685L46 2.30958L46.212 1.33231L45.412 1.15877L45.2 2.13604ZM46 2.30958L45.788 3.28685C46.4907 3.43927 47.1962 3.40816 47.8884 3.19962L47.6 2.24212L47.3116 1.28462C46.9372 1.39741 46.576 1.41127 46.212 1.33231L46 2.30958ZM47.6 2.24212L47.8884 3.19962L48.6884 2.95863L48.4 2.00113L48.1116 1.04363L47.3116 1.28462L47.6 2.24212ZM48.4 2.00113L48.6884 2.95863L49.4884 2.71763L49.2 1.76013L48.9116 0.802634L48.1116 1.04363L48.4 2.00113ZM49.2 1.76013L49.4884 2.71763C49.9021 2.59301 50.3048 2.55342 50.7034 2.59212L50.8 1.5968L50.8966 0.601477C50.2286 0.536625 49.5645 0.605927 48.9116 0.802634L49.2 1.76013ZM50.8 1.5968L50.7034 2.59212L51.5034 2.66978L51.6 1.67446L51.6966 0.679138L50.8966 0.601477L50.8 1.5968ZM51.6 1.67446L51.5034 2.66978L52.3034 2.74744L52.4 1.75212L52.4966 0.7568L51.6966 0.679138L51.6 1.67446ZM52.4 1.75212L52.3034 2.74744C52.9087 2.8062 53.5143 2.79926 54.119 2.72675L54 1.73386L53.881 0.740976C53.419 0.796359 52.958 0.80159 52.4966 0.7568L52.4 1.75212ZM54 1.73386L54.119 2.72675L54.919 2.63084L54.8 1.63795L54.681 0.645058L53.881 0.740976L54 1.73386ZM54.8 1.63795L54.919 2.63084L55.719 2.53492L55.6 1.54203L55.481 0.54914L54.681 0.645058L54.8 1.63795ZM55.6 1.54203L55.719 2.53492C56.1378 2.48471 56.557 2.50597 56.9817 2.60097L57.2 1.6251L57.4183 0.649228C56.7763 0.505576 56.1289 0.471455 55.481 0.54914L55.6 1.54203ZM57.2 1.6251L56.9817 2.60097L57.7817 2.77996L58 1.80409L58.2183 0.828218L57.4183 0.649228L57.2 1.6251ZM58 1.80409L57.7817 2.77996L58.5817 2.95895L58.8 1.98308L59.0183 1.00721L58.2183 0.828218L58 1.80409ZM58.8 1.98308L58.5817 2.95895C59.2042 3.09823 59.8312 3.14997 60.46 3.11216L60.4 2.11396L60.34 1.11577C59.9021 1.14209 59.4625 1.10658 59.0183 1.00721L58.8 1.98308ZM60.4 2.11396L60.46 3.11216L61.26 3.06405L61.2 2.06585L61.14 1.06766L60.34 1.11577L60.4 2.11396ZM61.2 2.06585L61.26 3.06405L62.06 3.01594L62 2.01775L61.94 1.01955L61.14 1.06766L61.2 2.06585ZM62 2.01775L62.06 3.01594C62.593 2.98389 63.126 2.95213 63.659 2.92065L63.6 1.92239L63.541 0.924128C63.0074 0.955648 62.4737 0.987455 61.94 1.01955L62 2.01775ZM63.6 1.92239L63.659 2.92065L64.459 2.8734L64.4 1.87514L64.341 0.876879L63.541 0.924128L63.6 1.92239ZM64.4 1.87514L64.459 2.8734L65.259 2.82615L65.2 1.82789L65.141 0.82963L64.341 0.876879L64.4 1.87514ZM65.2 1.82789L65.259 2.82615C65.8105 2.79358 66.3619 2.7459 66.9131 2.68313L66.8 1.68955L66.6869 0.695973C66.1715 0.754658 65.6562 0.799205 65.141 0.82963L65.2 1.82789ZM66.8 1.68955L66.9131 2.68313L67.7131 2.59204L67.6 1.59846L67.4869 0.604884L66.6869 0.695973L66.8 1.68955ZM67.6 1.59846L67.7131 2.59204L68.5131 2.50096L68.4 1.50737L68.2869 0.513795L67.4869 0.604884L67.6 1.59846ZM68.4 1.50737L68.5131 2.50096C68.8982 2.45711 69.2879 2.49605 69.6916 2.62692L70 1.67567L70.3084 0.724424C69.6454 0.509449 68.9685 0.436188 68.2869 0.513795L68.4 1.50737ZM70 1.67567L69.6916 2.62692L70.4916 2.88631L70.8 1.93506L71.1084 0.983811L70.3084 0.724424L70 1.67567ZM70.8 1.93506L70.4916 2.88631L71.2916 3.14569L71.6 2.19445L71.9084 1.2432L71.1084 0.983811L70.8 1.93506ZM71.6 2.19445L71.2916 3.14569C72.0245 3.38334 72.773 3.38432 73.5064 3.14829L73.2 2.19637L72.8936 1.24445C72.5604 1.35171 72.2421 1.3514 71.9084 1.2432L71.6 2.19445ZM73.2 2.19637L73.5064 3.14829L74.3064 2.89083L74 1.93891L73.6936 0.986991L72.8936 1.24445L73.2 2.19637ZM74 1.93891L74.3064 2.89083L75.1064 2.63336L74.8 1.68145L74.4936 0.729529L73.6936 0.986991L74 1.93891ZM74.8 1.68145L75.1064 2.63336C75.4914 2.50943 75.8613 2.48398 76.2297 2.54765L76.4 1.56226L76.5703 0.576867C75.872 0.456174 75.1752 0.510178 74.4936 0.729529L74.8 1.68145ZM76.4 1.56226L76.2297 2.54765L77.0297 2.68592L77.2 1.70053L77.3703 0.715139L76.5703 0.576867L76.4 1.56226ZM77.2 1.70053L77.0297 2.68592L77.8297 2.82419L78 1.8388L78.1703 0.853411L77.3703 0.715139L77.2 1.70053ZM78 1.8388L77.8297 2.82419C78.4509 2.93156 79.0747 2.95476 79.6985 2.89298L79.6 1.89785L79.5015 0.902718C79.0587 0.946566 78.6158 0.930402 78.1703 0.853411L78 1.8388ZM79.6 1.89785L79.6985 2.89298L80.4985 2.81376L80.4 1.81863L80.3015 0.823497L79.5015 0.902718L79.6 1.89785ZM80.4 1.81863L80.4985 2.81376L81.2985 2.73454L81.2 1.73941L81.1015 0.744275L80.3015 0.823497L80.4 1.81863ZM81.2 1.73941L81.2985 2.73454C81.7103 2.69377 82.1243 2.72668 82.5461 2.8374L82.8 1.87016L83.0539 0.902917C82.409 0.733669 81.7564 0.679418 81.1015 0.744275L81.2 1.73941ZM82.8 1.87016L82.5461 2.8374L83.3461 3.04737L83.6 2.08013L83.8539 1.11289L83.0539 0.902917L82.8 1.87016ZM83.6 2.08013L83.3461 3.04737L84.1461 3.25734L84.4 2.2901L84.6539 1.32286L83.8539 1.11289L83.6 2.08013ZM84.4 2.2901L84.1461 3.25734C84.8736 3.44828 85.6073 3.4178 86.3221 3.17455L86 2.22786L85.6779 1.28116C85.3261 1.40086 84.993 1.41187 84.6539 1.32286L84.4 2.2901ZM86 2.22786L86.3221 3.17455L87.1221 2.90234L86.8 1.95565L86.4779 1.00895L85.6779 1.28116L86 2.22786ZM86.8 1.95565L87.1221 2.90234L87.9221 2.63013L87.6 1.68344L87.2779 0.736741L86.4779 1.00895L86.8 1.95565ZM87.6 1.68344L87.9221 2.63013C88.3284 2.4919 88.7196 2.44641 89.1047 2.48329L89.2 1.48784L89.2953 0.492394C88.6137 0.427121 87.9383 0.512029 87.2779 0.736741L87.6 1.68344ZM89.2 1.48784L89.1047 2.48329L89.9047 2.5599L90 1.56445L90.0953 0.569006L89.2953 0.492394L89.2 1.48784ZM90 1.56445L89.9047 2.5599L90.7047 2.63651L90.8 1.64106L90.8953 0.645618L90.0953 0.569006L90 1.56445ZM90.8 1.64106L90.7047 2.63651C91.2565 2.68936 91.8085 2.72667 92.3606 2.74842L92.4 1.7492L92.4394 0.749975C91.9248 0.729698 91.4101 0.694917 90.8953 0.645618L90.8 1.64106ZM92.4 1.7492L92.3606 2.74842L93.1606 2.77995L93.2 1.78072L93.2394 0.781498L92.4394 0.749975L92.4 1.7492ZM93.2 1.78072L93.1606 2.77995L93.9606 2.81147L94 1.81225L94.0394 0.813022L93.2394 0.781498L93.2 1.78072ZM94 1.81225L93.9606 2.81147C94.5172 2.8334 95.0739 2.83588 95.6305 2.81891L95.6 1.81937L95.5695 0.819835C95.0595 0.835391 94.5494 0.83312 94.0394 0.813022L94 1.81225ZM95.6 1.81937L95.6305 2.81891L96.4305 2.79451L96.4 1.79497L96.3695 0.795436L95.5695 0.819835L95.6 1.81937ZM96.4 1.79497L96.4305 2.79451L97.2305 2.77011L97.2 1.77057L97.1695 0.771036L96.3695 0.795436L96.4 1.79497ZM97.2 1.77057L97.2305 2.77011C97.6612 2.75697 98.0878 2.80894 98.5135 2.9278L98.7824 1.96464L99.0514 1.00148C98.4338 0.829055 97.8054 0.751641 97.1695 0.771036L97.2 1.77057ZM98.7824 1.96464L98.5135 2.9278L99.2959 3.14627L99.5648 2.18311L99.8338 1.21996L99.0514 1.00148L98.7824 1.96464ZM99.5648 2.18311L99.2959 3.14627L100.078 3.36474L100.347 2.40158L100.616 1.43843L99.8338 1.21996L99.5648 2.18311ZM100.347 2.40158L100.078 3.36474C100.664 3.52832 101.258 3.63132 101.858 3.67291L101.927 2.6753L101.996 1.67769C101.533 1.64562 101.074 1.56614 100.616 1.43843L100.347 2.40158ZM101.927 2.6753L101.858 3.67291L102.656 3.72816L102.725 2.73055L102.794 1.73294L101.996 1.67769L101.927 2.6753ZM102.725 2.73055L102.656 3.72816L103.453 3.78341L103.522 2.7858L103.591 1.78819L102.794 1.73294L102.725 2.73055ZM103.522 2.7858L103.453 3.78341C103.866 3.81201 104.26 3.9112 104.64 4.08289L105.052 3.17152L105.463 2.26014C104.868 1.99121 104.242 1.83326 103.591 1.78819L103.522 2.7858ZM105.052 3.17152L104.64 4.08289L105.372 4.41336L105.783 3.50198L106.195 2.59061L105.463 2.26014L105.052 3.17152ZM105.783 3.50198L105.372 4.41336L106.104 4.74382L106.515 3.83245L106.927 2.92107L106.195 2.59061L105.783 3.50198ZM106.515 3.83245L106.104 4.74382C106.463 4.90605 106.77 5.13233 107.033 5.42848L107.781 4.76478L108.529 4.10109C108.08 3.59475 107.543 3.19947 106.927 2.92107L106.515 3.83245ZM107.781 4.76478L107.033 5.42848L107.567 6.03034L108.315 5.36665L109.063 4.70295L108.529 4.10109L107.781 4.76478ZM108.315 5.36665L107.567 6.03034L108.101 6.63221L108.849 5.96851L109.597 5.30482L109.063 4.70295L108.315 5.36665ZM108.849 5.96851L108.101 6.63221C108.52 7.10438 109.001 7.5124 109.54 7.85581L110.077 7.01243L110.614 6.16905C110.228 5.92306 109.89 5.63513 109.597 5.30482L108.849 5.96851ZM110.077 7.01243L109.54 7.85581L110.233 8.29786L110.771 7.45448L111.308 6.6111L110.614 6.16905L110.077 7.01243ZM110.771 7.45448L110.233 8.29786L110.927 8.73991L111.465 7.89653L112.002 7.05315L111.308 6.6111L110.771 7.45448ZM111.465 7.89653L110.927 8.73991C111.234 8.93564 111.455 9.18509 111.606 9.50137L112.508 9.07012L113.41 8.63887C113.095 7.97977 112.62 7.44683 112.002 7.05315L111.465 7.89653ZM112.508 9.07012L111.606 9.50137L111.955 10.2329L112.858 9.80166L113.76 9.37041L113.41 8.63887L112.508 9.07012ZM112.858 9.80166L111.955 10.2329L112.305 10.9644L113.207 10.5332L114.11 10.1019L113.76 9.37041L112.858 9.80166ZM113.207 10.5332L112.305 10.9644C112.508 11.3879 112.66 11.8218 112.763 12.267L113.737 12.0404L114.711 11.8139C114.574 11.2248 114.373 10.6539 114.11 10.1019L113.207 10.5332ZM113.737 12.0404L112.763 12.267L112.944 13.0427L113.918 12.8161L114.892 12.5896L114.711 11.8139L113.737 12.0404ZM113.918 12.8161L112.944 13.0427L113.124 13.8183L114.098 13.5918L115.072 13.3652L114.892 12.5896L113.918 12.8161ZM114.098 13.5918L113.124 13.8183C113.248 14.3522 113.387 14.8849 113.539 15.4164L114.501 15.1405L115.462 14.8646C115.319 14.3654 115.189 13.8656 115.072 13.3652L114.098 13.5918ZM114.501 15.1405L113.539 15.4164L113.761 16.1894L114.723 15.9135L115.684 15.6376L115.462 14.8646L114.501 15.1405ZM114.723 15.9135L113.761 16.1894L113.983 16.9624L114.944 16.6865L115.906 16.4106L115.684 15.6376L114.723 15.9135ZM114.944 16.6865L113.983 16.9624C114.107 17.3932 114.172 17.8304 114.179 18.2763L115.178 18.2612L116.178 18.2461C116.169 17.6231 116.078 17.0105 115.906 16.4106L114.944 16.6865ZM115.178 18.2612L114.179 18.2763L114.191 19.078L115.191 19.0629L116.19 19.0478L116.178 18.2461L115.178 18.2612ZM115.191 19.0629L114.191 19.078L114.203 19.8797L115.203 19.8646L116.203 19.8494L116.19 19.0478L115.191 19.0629ZM115.203 19.8646L114.203 19.8797C114.21 20.3254 114.158 20.7731 114.045 21.225L115.016 21.4663L115.986 21.7076C116.139 21.0928 116.212 20.4727 116.203 19.8494L115.203 19.8646ZM115.016 21.4663L114.045 21.225L113.847 22.025L114.817 22.2663L115.787 22.5076L115.986 21.7076L115.016 21.4663ZM114.817 22.2663L113.847 22.025L113.648 22.825L114.618 23.0663L115.589 23.3076L115.787 22.5076L114.817 22.2663ZM114.618 23.0663L113.648 22.825C113.468 23.5463 113.5 24.2724 113.735 24.9811L114.684 24.6663L115.634 24.3514C115.515 23.9935 115.503 23.6529 115.589 23.3076L114.618 23.0663ZM114.684 24.6663L113.735 24.9811L114.001 25.7811L114.95 25.4663L115.899 25.1514L115.634 24.3514L114.684 24.6663ZM114.95 25.4663L114.001 25.7811L114.266 26.5811L115.215 26.2663L116.164 25.9514L115.899 25.1514L114.95 25.4663ZM115.215 26.2663L114.266 26.5811C114.379 26.9206 114.383 27.243 114.282 27.5772L115.239 27.8663L116.196 28.1553C116.417 27.4228 116.406 26.6786 116.164 25.9514L115.215 26.2663ZM115.239 27.8663L114.282 27.5772L114.04 28.3772L114.997 28.6663L115.955 28.9553L116.196 28.1553L115.239 27.8663ZM114.997 28.6663L114.04 28.3772L113.799 29.1772L114.756 29.4663L115.713 29.7553L115.955 28.9553L114.997 28.6663ZM114.756 29.4663L113.799 29.1772C113.606 29.8146 113.523 30.4615 113.553 31.1133L114.552 31.0663L115.551 31.0192C115.531 30.6043 115.584 30.1845 115.713 29.7553L114.756 29.4663ZM114.552 31.0663L113.553 31.1133L113.591 31.9133L114.59 31.8663L115.589 31.8192L115.551 31.0192L114.552 31.0663ZM114.59 31.8663L113.591 31.9133L113.629 32.7133L114.627 32.6663L115.626 32.6192L115.589 31.8192L114.59 31.8663ZM114.627 32.6663L113.629 32.7133C113.657 33.3246 113.757 33.9325 113.926 34.5356L114.889 34.2663L115.852 33.9969C115.722 33.5334 115.648 33.0746 115.626 32.6192L114.627 32.6663ZM114.889 34.2663L113.926 34.5356L114.15 35.3356L115.113 35.0663L116.076 34.7969L115.852 33.9969L114.889 34.2663ZM115.113 35.0663L114.15 35.3356L114.373 36.1356L115.336 35.8663L116.299 35.5969L116.076 34.7969L115.113 35.0663ZM115.336 35.8663L114.373 36.1356C114.498 36.5826 114.558 37.0232 114.555 37.4597L115.555 37.4663L116.555 37.4728C116.559 36.8427 116.473 36.2166 116.299 35.5969L115.336 35.8663ZM115.555 37.4663L114.555 37.4597L114.55 38.2597L115.55 38.2663L116.55 38.2728L116.555 37.4728L115.555 37.4663ZM115.55 38.2663L114.55 38.2597L114.545 39.0597L115.545 39.0663L116.544 39.0728L116.55 38.2728L115.55 38.2663ZM115.545 39.0663L114.545 39.0597C114.542 39.5049 114.481 39.9536 114.359 40.4075L115.325 40.6663L116.291 40.925C116.455 40.3123 116.54 39.6943 116.544 39.0728L115.545 39.0663ZM115.325 40.6663L114.359 40.4075L114.145 41.2075L115.111 41.4663L116.077 41.725L116.291 40.925L115.325 40.6663ZM115.111 41.4663L114.145 41.2075L113.93 42.0075L114.896 42.2663L115.862 42.525L116.077 41.725L115.111 41.4663ZM114.896 42.2663L113.93 42.0075C113.757 42.655 113.702 43.3108 113.77 43.969L114.765 43.8663L115.759 43.7635C115.717 43.3551 115.75 42.9442 115.862 42.525L114.896 42.2663ZM114.765 43.8663L113.77 43.969L113.853 44.769L114.847 44.6663L115.842 44.5635L115.759 43.7635L114.765 43.8663ZM114.847 44.6663L113.853 44.769L113.935 45.569L114.93 45.4663L115.925 45.3635L115.842 44.5635L114.847 44.6663ZM114.93 45.4663L113.935 45.569C113.987 46.0716 114.016 46.5739 114.02 47.076L115.02 47.0663L116.02 47.0565C116.015 46.4919 115.983 45.9276 115.925 45.3635L114.93 45.4663ZM115.02 47.0663L114.02 47.076L114.028 47.876L115.028 47.8663L116.028 47.8565L116.02 47.0565L115.02 47.0663ZM115.028 47.8663L114.028 47.876L114.036 48.676L115.036 48.6663L116.036 48.6565L116.028 47.8565L115.028 47.8663ZM115.036 48.6663L114.036 48.676C114.041 49.1895 114.031 49.7029 114.005 50.2164L115.004 50.2663L116.003 50.3162C116.03 49.763 116.041 49.2097 116.036 48.6565L115.036 48.6663ZM115.004 50.2663L114.005 50.2164L113.965 51.0164L114.964 51.0663L115.963 51.1161L116.003 50.3162L115.004 50.2663ZM114.964 51.0663L113.965 51.0164L113.925 51.8164L114.924 51.8663L115.923 51.9161L115.963 51.1161L114.964 51.0663ZM114.924 51.8663L113.925 51.8164C113.898 52.3535 113.875 52.8907 113.854 53.4279L114.853 53.4663L115.853 53.5046C115.873 52.9751 115.896 52.4456 115.923 51.9161L114.924 51.8663ZM114.853 53.4663L113.854 53.4279L113.823 54.2279L114.823 54.2663L115.822 54.3046L115.853 53.5046L114.853 53.4663ZM114.823 54.2663L113.823 54.2279L113.793 55.0279L114.792 55.0663L115.791 55.1046L115.822 54.3046L114.823 54.2663ZM114.792 55.0663L113.793 55.0279C113.772 55.5534 113.746 56.0789 113.713 56.6044L114.712 56.6663L115.71 56.7281C115.743 56.187 115.77 55.6458 115.791 55.1046L114.792 55.0663ZM114.712 56.6663L113.713 56.6044L113.664 57.4044L114.662 57.4663L115.66 57.5281L115.71 56.7281L114.712 56.6663ZM114.662 57.4663L113.664 57.4044L113.614 58.2044L114.612 58.2663L115.611 58.3281L115.66 57.5281L114.662 57.4663ZM114.612 58.2663L113.614 58.2044C113.575 58.8409 113.633 59.4752 113.786 60.1043L114.758 59.8679L115.73 59.6316C115.623 59.1917 115.584 58.7583 115.611 58.3281L114.612 58.2663ZM114.758 59.8679L113.786 60.1043L113.981 60.906L114.953 60.6696L115.925 60.4332L115.73 59.6316L114.758 59.8679ZM114.953 60.6696L113.981 60.906L114.176 61.7076L115.148 61.4713L116.12 61.2349L115.925 60.4332L114.953 60.6696ZM115.148 61.4713L114.176 61.7076C114.272 62.1006 114.278 62.4829 114.199 62.8654L115.179 63.0679L116.158 63.2704C116.298 62.593 116.284 61.9109 116.12 61.2349L115.148 61.4713ZM115.179 63.0679L114.199 62.8654L114.035 63.6604L115.014 63.8629L115.993 64.0654L116.158 63.2704L115.179 63.0679ZM115.014 63.8629L114.035 63.6604L113.87 64.4554L114.85 64.6579L115.829 64.8604L115.993 64.0654L115.014 63.8629ZM114.85 64.6579L113.87 64.4554C113.759 64.9958 113.655 65.5411 113.559 66.0913L114.544 66.2627L115.53 66.4341C115.622 65.9045 115.722 65.3799 115.829 64.8604L114.85 64.6579ZM114.544 66.2627L113.559 66.0913L113.418 66.9011L114.403 67.0725L115.389 67.244L115.53 66.4341L114.544 66.2627ZM114.403 67.0725L113.418 66.9011L113.277 67.711L114.263 67.8824L115.248 68.0538L115.389 67.244L114.403 67.0725ZM114.263 67.8824L113.277 67.711C113.215 68.0684 113.068 68.3758 112.825 68.6513L113.576 69.312L114.327 69.9728C114.812 69.4219 115.122 68.7762 115.248 68.0538L114.263 67.8824ZM113.576 69.312L112.825 68.6513L112.28 69.2711L113.031 69.9318L113.781 70.5925L114.327 69.9728L113.576 69.312ZM113.031 69.9318L112.28 69.2711L111.734 69.8908L112.485 70.5516L113.236 71.2123L113.781 70.5925L113.031 69.9318ZM112.485 70.5516L111.734 69.8908C111.359 70.3177 111.001 70.748 110.661 71.1815L111.448 71.7985L112.235 72.4155C112.55 72.0128 112.884 71.6117 113.236 71.2123L112.485 70.5516ZM111.448 71.7985L110.661 71.1815L110.169 71.8087L110.956 72.4257L111.743 73.0426L112.235 72.4155L111.448 71.7985ZM110.956 72.4257L110.169 71.8087L109.677 72.4359L110.464 73.0529L111.251 73.6698L111.743 73.0426L110.956 72.4257ZM110.464 73.0529L109.677 72.4359C109.401 72.7887 109.085 73.1025 108.728 73.3785L109.34 74.1696L109.951 74.9607C110.439 74.5839 110.872 74.1533 111.251 73.6698L110.464 73.0529ZM109.34 74.1696L108.728 73.3785L108.095 73.8681L108.707 74.6591L109.318 75.4502L109.951 74.9607L109.34 74.1696ZM108.707 74.6591L108.095 73.8681L107.462 74.3576L108.074 75.1487L108.685 75.9398L109.318 75.4502L108.707 74.6591ZM108.074 75.1487L107.462 74.3576C107.07 74.6603 106.66 74.9416 106.229 75.2016L106.746 76.0576L107.263 76.9135C107.758 76.6145 108.233 76.2899 108.685 75.9398L108.074 75.1487ZM106.746 76.0576L106.229 75.2016L105.535 75.621L106.052 76.4769L106.569 77.3329L107.263 76.9135L106.746 76.0576ZM106.052 76.4769L105.535 75.621L104.841 76.0403L105.358 76.8962L105.875 77.7522L106.569 77.3329L106.052 76.4769ZM105.358 76.8962L104.841 76.0403C104.471 76.2636 104.077 76.4216 103.654 76.5155L103.87 77.4917L104.087 78.468C104.722 78.327 105.319 78.088 105.875 77.7522L105.358 76.8962ZM103.87 77.4917L103.654 76.5155L102.86 76.6917L103.077 77.6679L103.294 78.6441L104.087 78.468L103.87 77.4917ZM103.077 77.6679L102.86 76.6917L102.067 76.8679L102.284 77.8441L102.5 78.8203L103.294 78.6441L103.077 77.6679ZM102.284 77.8441L102.067 76.8679C101.602 76.9712 101.134 77.0277 100.663 77.0378L100.685 78.0376L100.706 79.0373C101.31 79.0244 101.908 78.9519 102.5 78.8203L102.284 77.8441ZM100.685 78.0376L100.663 77.0378L99.8574 77.0551L99.8789 78.0549L99.9004 79.0546L100.706 79.0373L100.685 78.0376ZM99.8789 78.0549L99.8574 77.0551L99.0517 77.0724L99.0732 78.0722L99.0947 79.0719L99.9004 79.0546L99.8789 78.0549ZM99.0732 78.0722L99.0517 77.0724C98.5289 77.0836 98.008 77.0836 97.4892 77.0723L97.4675 78.0721L97.4458 79.0718C97.9936 79.0837 98.5432 79.0838 99.0947 79.0719L99.0732 78.0722ZM97.4675 78.0721L97.4892 77.0723L96.6892 77.0549L96.6675 78.0547L96.6458 79.0545L97.4458 79.0718L97.4675 78.0721ZM96.6675 78.0547L96.6892 77.0549L95.8892 77.0375L95.8675 78.0373L95.8458 79.0371L96.6458 79.0545L96.6675 78.0547ZM95.8675 78.0373L95.8892 77.0375C95.3274 77.0253 94.7656 77.0371 94.204 77.0728L94.2675 78.0708L94.331 79.0688C94.836 79.0367 95.3409 79.0261 95.8458 79.0371L95.8675 78.0373ZM94.2675 78.0708L94.204 77.0728L93.404 77.1238L93.4675 78.1217L93.531 79.1197L94.331 79.0688L94.2675 78.0708ZM93.4675 78.1217L93.404 77.1238L92.604 77.1747L92.6675 78.1727L92.731 79.1706L93.531 79.1197L93.4675 78.1217ZM92.6675 78.1727L92.604 77.1747C92.0718 77.2085 91.5397 77.2414 91.0076 77.2734L91.0675 78.2716L91.1274 79.2698C91.6619 79.2377 92.1965 79.2047 92.731 79.1706L92.6675 78.1727ZM91.0675 78.2716L91.0076 77.2734L90.2076 77.3214L90.2675 78.3196L90.3274 79.3178L91.1274 79.2698L91.0675 78.2716ZM90.2675 78.3196L90.2076 77.3214L89.4076 77.3694L89.4675 78.3676L89.5274 79.3658L90.3274 79.3178L90.2675 78.3196ZM89.4675 78.3676L89.4076 77.3694C88.8982 77.3999 88.389 77.4121 87.8798 77.4058L87.8675 78.4057L87.8552 79.4057C88.4126 79.4125 88.9701 79.3992 89.5274 79.3658L89.4675 78.3676ZM87.8675 78.4057L87.8798 77.4058L87.0798 77.396L87.0675 78.3959L87.0552 79.3958L87.8552 79.4057L87.8675 78.4057ZM87.0675 78.3959L87.0798 77.396L86.2798 77.3862L86.2675 78.3861L86.2552 79.386L87.0552 79.3958L87.0675 78.3959ZM86.2675 78.3861L86.2798 77.3862C85.7536 77.3797 85.2275 77.3675 84.7014 77.3497L84.6675 78.3491L84.6336 79.3485C85.1741 79.3669 85.7147 79.3794 86.2552 79.386L86.2675 78.3861ZM84.6675 78.3491L84.7014 77.3497L83.9014 77.3226L83.8675 78.322L83.8336 79.3214L84.6336 79.3485L84.6675 78.3491ZM83.8675 78.322L83.9014 77.3226L83.1014 77.2954L83.0675 78.2949L83.0336 79.2943L83.8336 79.3214L83.8675 78.322ZM83.0675 78.2949L83.1014 77.2954C82.6274 77.2794 82.1519 77.2212 81.6742 77.1203L81.4675 78.0987L81.2607 79.0771C81.8497 79.2015 82.4409 79.2742 83.0336 79.2943L83.0675 78.2949ZM81.4675 78.0987L81.6742 77.1203L80.8742 76.9512L80.6675 77.9296L80.4607 78.908L81.2607 79.0771L81.4675 78.0987ZM80.6675 77.9296L80.8742 76.9512L80.0742 76.7822L79.8675 77.7605L79.6607 78.7389L80.4607 78.908L80.6675 77.9296ZM79.8675 77.7605L80.0742 76.7822C79.4602 76.6524 78.8425 76.6005 78.2231 76.628L78.2675 77.627L78.3118 78.626C78.7592 78.6062 79.2081 78.6433 79.6607 78.7389L79.8675 77.7605ZM78.2675 77.627L78.2231 76.628L77.4231 76.6635L77.4675 77.6625L77.5118 78.6615L78.3118 78.626L78.2675 77.627ZM77.4675 77.6625L77.4231 76.6635L76.6231 76.699L76.6675 77.698L76.7118 78.697L77.5118 78.6615L77.4675 77.6625ZM76.6675 77.698L76.6231 76.699C76.0415 76.7248 75.4608 76.7927 74.8815 76.9023L75.0675 77.8849L75.2534 78.8675C75.7408 78.7752 76.2268 78.7185 76.7118 78.697L76.6675 77.698ZM75.0675 77.8849L74.8815 76.9023L74.0816 77.0537L74.2675 78.0363L74.4534 79.0188L75.2534 78.8675L75.0675 77.8849ZM74.2675 78.0363L74.0816 77.0537L73.2815 77.2051L73.4675 78.1877L73.6534 79.1702L74.4534 79.0188L74.2675 78.0363ZM73.4675 78.1877L73.2815 77.2051C72.8074 77.2948 72.3353 77.3401 71.8644 77.3416L71.8675 78.3415L71.8706 79.3415C72.4664 79.3397 73.0609 79.2824 73.6534 79.1702L73.4675 78.1877ZM71.8675 78.3415L71.8644 77.3416L71.0644 77.344L71.0675 78.344L71.0706 79.344L71.8706 79.3415L71.8675 78.3415ZM71.0675 78.344L71.0644 77.344L70.2644 77.3465L70.2675 78.3465L70.2706 79.3465L71.0706 79.344L71.0675 78.344ZM70.2675 78.3465L70.2644 77.3465C69.7755 77.348 69.2863 77.3171 68.7963 77.2534L68.6675 78.2451L68.5386 79.2367C69.1154 79.3117 69.6928 79.3483 70.2706 79.3465L70.2675 78.3465ZM68.6675 78.2451L68.7963 77.2534L67.9963 77.1495L67.8675 78.1411L67.7386 79.1328L68.5386 79.2367L68.6675 78.2451ZM67.8675 78.1411L67.9963 77.1495L67.1963 77.0455L67.0675 78.0372L66.9386 79.0288L67.7386 79.1328L67.8675 78.1411ZM67.0675 78.0372L67.1963 77.0455C66.6388 76.9731 66.0809 76.9213 65.5228 76.8904L65.4675 77.8889L65.4121 78.8873C65.9207 78.9155 66.4295 78.9627 66.9386 79.0288L67.0675 78.0372ZM65.4675 77.8889L65.5228 76.8904L64.7228 76.846L64.6675 77.8445L64.6121 78.843L65.4121 78.8873L65.4675 77.8889ZM64.6675 77.8445L64.7228 76.846L63.9228 76.8017L63.8675 77.8002L63.8121 78.7986L64.6121 78.843L64.6675 77.8445ZM63.8675 77.8002L63.9228 76.8017C63.3816 76.7717 62.8403 76.7481 62.299 76.7311L62.2675 77.7306L62.236 78.7301C62.7613 78.7467 63.2867 78.7695 63.8121 78.7986L63.8675 77.8002ZM62.2675 77.7306L62.299 76.7311L61.499 76.7059L61.4675 77.7054L61.436 78.7049L62.236 78.7301L62.2675 77.7306ZM61.4675 77.7054L61.499 76.7059L60.699 76.6807L60.6675 77.6802L60.636 78.6797L61.436 78.7049L61.4675 77.7054ZM60.6675 77.6802L60.699 76.6807C60.1666 76.6639 59.6341 76.6464 59.1017 76.6281L59.0675 77.6275L59.0333 78.627C59.5675 78.6453 60.1017 78.6628 60.636 78.6797L60.6675 77.6802ZM59.0675 77.6275L59.1017 76.6281L58.3017 76.6007L58.2675 77.6002L58.2333 78.5996L59.0333 78.627L59.0675 77.6275ZM58.2675 77.6002L58.3017 76.6007L57.5017 76.5733L57.4675 77.5728L57.4333 78.5722L58.2333 78.5996L58.2675 77.6002ZM57.4675 77.5728L57.5017 76.5733C56.9357 76.554 56.3696 76.5623 55.8037 76.5985L55.8675 77.5965L55.9312 78.5944C56.432 78.5624 56.9326 78.555 57.4333 78.5722L57.4675 77.5728ZM55.8675 77.5965L55.8037 76.5985L55.0037 76.6496L55.0675 77.6476L55.1312 78.6455L55.9312 78.5944L55.8675 77.5965ZM55.0675 77.6476L55.0037 76.6496L54.2037 76.7007L54.2675 77.6986L54.3312 78.6966L55.1312 78.6455L55.0675 77.6476ZM54.2675 77.6986L54.2037 76.7007C53.6997 76.7329 53.1957 76.7428 52.6918 76.7306L52.6675 77.7303L52.6432 78.73C53.2059 78.7437 53.7686 78.7325 54.3312 78.6966L54.2675 77.6986ZM52.6675 77.7303L52.6918 76.7306L51.8918 76.7112L51.8675 77.7109L51.8432 78.7106L52.6432 78.73L52.6675 77.7303ZM51.8675 77.7109L51.8918 76.7112L51.0918 76.6917L51.0675 77.6914L51.0432 78.6911L51.8432 78.7106L51.8675 77.7109ZM51.0675 77.6914L51.0918 76.6917C50.5768 76.6792 50.0618 76.6525 49.5466 76.6116L49.4675 77.6085L49.3883 78.6054C49.9399 78.6491 50.4915 78.6777 51.0432 78.6911L51.0675 77.6914ZM49.4675 77.6085L49.5466 76.6116L48.7466 76.5481L48.6675 77.545L48.5883 78.5418L49.3883 78.6054L49.4675 77.6085ZM48.6675 77.545L48.7466 76.5481L47.9466 76.4846L47.8675 77.4815L47.7883 78.4783L48.5883 78.5418L48.6675 77.545ZM47.8675 77.4815L47.9466 76.4846C47.3144 76.4344 46.6834 76.4778 46.0569 76.6128L46.2675 77.5903L46.4781 78.5679C46.9182 78.4731 47.3539 78.4438 47.7883 78.4783L47.8675 77.4815ZM46.2675 77.5903L46.0569 76.6128L45.2569 76.7851L45.4675 77.7627L45.6781 78.7402L46.4781 78.5679L46.2675 77.5903ZM45.4675 77.7627L45.2569 76.7851L44.4569 76.9575L44.6675 77.9351L44.8781 78.9126L45.6781 78.7402L45.4675 77.7627ZM44.6675 77.9351L44.4569 76.9575C43.9568 77.0652 43.4577 77.1461 42.9594 77.2002L43.0675 78.1944L43.1755 79.1885C43.7439 79.1267 44.3115 79.0347 44.8781 78.9126L44.6675 77.9351ZM43.0675 78.1944L42.9594 77.2002L42.1594 77.2872L42.2675 78.2813L42.3755 79.2755L43.1755 79.1885L43.0675 78.1944ZM42.2675 78.2813L42.1594 77.2872L41.3594 77.3741L41.4675 78.3683L41.5755 79.3624L42.3755 79.2755L42.2675 78.2813ZM41.4675 78.3683L41.3594 77.3741C40.8895 77.4252 40.4203 77.4311 39.9508 77.3918L39.8675 78.3883L39.7842 79.3848C40.3814 79.4348 40.9788 79.4273 41.5755 79.3624L41.4675 78.3683ZM39.8675 78.3883L39.9508 77.3918L39.1508 77.3249L39.0675 78.3214L38.9842 79.318L39.7842 79.3848L39.8675 78.3883ZM39.0675 78.3214L39.1508 77.3249L38.3508 77.258L38.2675 78.2546L38.1842 79.2511L38.9842 79.318L39.0675 78.3214ZM38.2675 78.2546L38.3508 77.258C37.7968 77.2117 37.2427 77.1827 36.6884 77.1711L36.6675 78.1709L36.6465 79.1707C37.159 79.1814 37.6715 79.2082 38.1842 79.2511L38.2675 78.2546ZM36.6675 78.1709L36.6884 77.1711L35.8884 77.1544L35.8675 78.1541L35.8465 79.1539L36.6465 79.1707L36.6675 78.1709ZM35.8675 78.1541L35.8884 77.1544L35.0884 77.1376L35.0675 78.1374L35.0465 79.1371L35.8465 79.1539L35.8675 78.1541ZM35.0675 78.1374L35.0884 77.1376C34.5388 77.1261 33.9893 77.128 33.4397 77.1432L33.4675 78.1429L33.4953 79.1425C34.0124 79.1281 34.5295 79.1263 35.0465 79.1371L35.0675 78.1374ZM33.4675 78.1429L33.4397 77.1432L32.6397 77.1655L32.6675 78.1651L32.6953 79.1647L33.4953 79.1425L33.4675 78.1429ZM32.6675 78.1651L32.6397 77.1655L31.8397 77.1878L31.8675 78.1874L31.8953 79.187L32.6953 79.1647L32.6675 78.1651ZM31.8675 78.1874L31.8397 77.1878C31.313 77.2024 30.7864 77.2118 30.2597 77.2159L30.2675 78.2158L30.2753 79.2158C30.8153 79.2116 31.3553 79.202 31.8953 79.187L31.8675 78.1874ZM30.2675 78.2158L30.2597 77.2159L29.4597 77.2221L29.4675 78.2221L29.4753 79.222L30.2753 79.2158L30.2675 78.2158ZM29.4675 78.2221L29.4597 77.2221L28.6597 77.2283L28.6675 78.2283L28.6753 79.2283L29.4753 79.222L29.4675 78.2221ZM28.6675 78.2283L28.6597 77.2283C28.1927 77.2319 27.7243 77.1895 27.2539 77.1003L27.0675 78.0827L26.8811 79.0652C27.4773 79.1783 28.0756 79.2329 28.6753 79.2283L28.6675 78.2283ZM27.0675 78.0827L27.2539 77.1003L26.4538 76.9485L26.2675 77.931L26.0811 78.9135L26.8811 79.0652L27.0675 78.0827ZM26.2675 77.931L26.4538 76.9485L25.6538 76.7968L25.4675 77.7792L25.2811 78.7617L26.0811 78.9135L26.2675 77.931ZM25.4675 77.7792L25.6538 76.7968C25.0069 76.674 24.3564 76.6648 23.7078 76.7697L23.8675 77.7569L24.0272 78.7441C24.4452 78.6765 24.8614 78.6821 25.2811 78.7617L25.4675 77.7792ZM23.8675 77.7569L23.7078 76.7697L22.9078 76.8992L23.0675 77.8863L23.2272 78.8735L24.0272 78.7441L23.8675 77.7569ZM23.0675 77.8863L22.9078 76.8992L22.1078 77.0286L22.2675 78.0157L22.4272 79.0029L23.2272 78.8735L23.0675 77.8863ZM22.2675 78.0157L22.1078 77.0286C21.6385 77.1045 21.1709 77.1337 20.704 77.1166L20.6675 78.1159L20.631 79.1153C21.2308 79.1372 21.8298 79.0995 22.4272 79.0029L22.2675 78.0157ZM20.6675 78.1159L20.704 77.1166L19.904 77.0874L19.8675 78.0867L19.831 79.086L20.631 79.1153L20.6675 78.1159ZM19.8675 78.0867L19.904 77.0874L19.104 77.0581L19.0675 78.0575L19.031 79.0568L19.831 79.086L19.8675 78.0867ZM19.0675 78.0575L19.104 77.0581C18.5819 77.039 18.06 77.0111 17.5383 76.9744L17.4681 77.9719L17.3978 78.9695C17.942 79.0078 18.4864 79.0369 19.031 79.0568L19.0675 78.0575ZM17.4681 77.9719L17.5383 76.9744L16.7389 76.9181L16.6687 77.9156L16.5985 78.9132L17.3978 78.9695L17.4681 77.9719ZM16.6687 77.9156L16.7389 76.9181L15.9395 76.8618L15.8693 77.8594L15.7991 78.8569L16.5985 78.9132L16.6687 77.9156ZM15.8693 77.8594L15.9395 76.8618C15.4856 76.8299 15.0431 76.7452 14.6103 76.6075L14.3072 77.5604L14.0041 78.5134C14.5882 78.6992 15.1871 78.8138 15.7991 78.8569L15.8693 77.8594ZM14.3072 77.5604L14.6103 76.6075L13.8477 76.3649L13.5445 77.3178L13.2414 78.2708L14.0041 78.5134L14.3072 77.5604ZM13.5445 77.3178L13.8477 76.3649L13.085 76.1223L12.7818 77.0752L12.4787 78.0282L13.2414 78.2708L13.5445 77.3178ZM12.7818 77.0752L13.085 76.1223C12.6723 75.991 12.2927 75.8031 11.9426 75.5578L11.3686 76.3766L10.7946 77.1955C11.3119 77.5581 11.8744 77.8359 12.4787 78.0282L12.7818 77.0752ZM11.3686 76.3766L11.9426 75.5578L11.2921 75.1018L10.7181 75.9207L10.1441 76.7395L10.7946 77.1955L11.3686 76.3766ZM10.7181 75.9207L11.2921 75.1018L10.6416 74.6458L10.0676 75.4647L9.49359 76.2835L10.1441 76.7395L10.7181 75.9207ZM10.0676 75.4647L10.6416 74.6458C10.1416 74.2954 9.59653 74.0031 9.00937 73.7673L8.63666 74.6953L8.26394 75.6232C8.71731 75.8053 9.12616 76.026 9.49359 76.2835L10.0676 75.4647ZM8.63666 74.6953L9.00937 73.7673L8.22897 73.4539L7.85626 74.3818L7.48354 75.3098L8.26394 75.6232L8.63666 74.6953ZM7.85626 74.3818L8.22897 73.4539L7.44857 73.1404L7.07585 74.0684L6.70314 74.9963L7.48354 75.3098L7.85626 74.3818ZM7.07585 74.0684L7.44857 73.1404C7.19046 73.0367 7.03458 72.8785 6.9343 72.6114L5.9981 72.9629L5.0619 73.3143C5.35809 74.1033 5.92072 74.682 6.70314 74.9963L7.07585 74.0684ZM5.9981 72.9629L6.9343 72.6114L6.63695 71.8194L5.70075 72.1708L4.76455 72.5223L5.0619 73.3143L5.9981 72.9629ZM5.70075 72.1708L6.63695 71.8194L6.33959 71.0273L5.4034 71.3788L4.4672 71.7303L4.76455 72.5223L5.70075 72.1708ZM5.4034 71.3788L6.33959 71.0273C6.12584 70.458 5.88203 69.9234 5.60684 69.4253L4.73152 69.9088L3.85621 70.3924C4.08038 70.7982 4.28448 71.2436 4.4672 71.7303L5.4034 71.3788ZM4.73152 69.9088L5.60684 69.4253L5.23232 68.7473L4.357 69.2309L3.48168 69.7144L3.85621 70.3924L4.73152 69.9088ZM4.357 69.2309L5.23232 68.7473L4.8578 68.0694L3.98248 68.5529L3.10716 69.0365L3.48168 69.7144L4.357 69.2309ZM3.98248 68.5529L4.8578 68.0694C4.61879 67.6367 4.39042 67.1895 4.17278 66.7276L3.26817 67.1538L2.36356 67.5801C2.59897 68.0797 2.84681 68.5652 3.10716 69.0365L3.98248 68.5529ZM3.26817 67.1538L4.17278 66.7276L3.83299 66.0065L2.92838 66.4327L2.02377 66.8589L2.36356 67.5801L3.26817 67.1538ZM2.92838 66.4327L3.83299 66.0065L3.4932 65.2853L2.58859 65.7116L1.68398 66.1378L2.02377 66.8589L2.92838 66.4327ZM2.58859 65.7116L3.4932 65.2853C3.30032 64.876 3.15505 64.4434 3.058 63.9857L2.07975 64.1931L1.1015 64.4006C1.22986 65.0059 1.42381 65.5857 1.68398 66.1378L2.58859 65.7116ZM2.07975 64.1931L3.058 63.9857L2.88895 63.1884L1.9107 63.3958L0.932448 63.6033L1.1015 64.4006L2.07975 64.1931ZM1.9107 63.3958L2.88895 63.1884L2.7199 62.3911L1.74165 62.5985L0.763395 62.8059L0.932448 63.6033L1.9107 63.3958ZM1.74165 62.5985L2.7199 62.3911C2.62147 61.9269 2.573 61.4643 2.57355 61.0024L1.57355 61.0012L0.573551 61C0.572829 61.6048 0.636426 62.2071 0.763395 62.8059L1.74165 62.5985ZM1.57355 61.0012L2.57355 61.0024L2.57451 60.2024L1.57451 60.2012L0.574507 60.2L0.573551 61L1.57355 61.0012ZM1.57451 60.2012L2.57451 60.2024L2.57546 59.4024L1.57546 59.4012L0.575462 59.4L0.574507 60.2L1.57451 60.2012ZM1.57546 59.4012L2.57546 59.4024C2.57611 58.8618 2.57088 58.3213 2.55978 57.7807L1.55999 57.8012L0.560201 57.8218C0.571003 58.3478 0.57609 58.8739 0.575462 59.4L1.57546 59.4012ZM1.55999 57.8012L2.55978 57.7807L2.54335 56.9807L1.54356 57.0012L0.543775 57.0218L0.560201 57.8218L1.55999 57.8012ZM1.54356 57.0012L2.54335 56.9807L2.52693 56.1807L1.52714 56.2012L0.527349 56.2218L0.543775 57.0218L1.54356 57.0012ZM1.52714 56.2012L2.52693 56.1807C2.51817 55.7541 2.57621 55.3228 2.70548 54.8836L1.74617 54.6012L0.786862 54.3189C0.602188 54.9463 0.514207 55.5817 0.527349 56.2218L1.52714 56.2012ZM1.74617 54.6012L2.70548 54.8836L2.94095 54.0836L1.98163 53.8012L1.02232 53.5189L0.786862 54.3189L1.74617 54.6012ZM1.98163 53.8012L2.94095 54.0836L3.17641 53.2836L2.2171 53.0012L1.25778 52.7189L1.02232 53.5189L1.98163 53.8012ZM2.2171 53.0012L3.17641 53.2836C3.3695 52.6275 3.43195 51.9607 3.35733 51.2906L2.36348 51.4012L1.36962 51.5119C1.41378 51.9085 1.37864 52.3083 1.25778 52.7189L2.2171 53.0012ZM2.36348 51.4012L3.35733 51.2906L3.26825 50.4906L2.2744 50.6012L1.28054 50.7119L1.36962 51.5119L2.36348 51.4012ZM2.2744 50.6012L3.26825 50.4906L3.17917 49.6906L2.18532 49.8012L1.19146 49.9119L1.28054 50.7119L2.2744 50.6012ZM2.18532 49.8012L3.17917 49.6906C3.12644 49.2169 3.1167 48.744 3.14982 48.2711L2.15227 48.2012L1.15471 48.1314C1.11313 48.7251 1.12542 49.3188 1.19146 49.9119L2.18532 49.8012ZM2.15227 48.2012L3.14982 48.2711L3.20585 47.4711L2.2083 47.4012L1.21074 47.3314L1.15471 48.1314L2.15227 48.2012ZM2.2083 47.4012L3.20585 47.4711L3.26188 46.6711L2.26433 46.6012L1.26677 46.5314L1.21074 47.3314L2.2083 47.4012ZM2.26433 46.6012L3.26188 46.6711C3.30317 46.0816 3.29467 45.492 3.23645 44.9029L2.2413 45.0012L1.24614 45.0996C1.29334 45.5771 1.30019 46.0542 1.26677 46.5314L2.26433 46.6012ZM2.2413 45.0012L3.23645 44.9029L3.15739 44.1029L2.16223 44.2012L1.16708 44.2996L1.24614 45.0996L2.2413 45.0012ZM2.16223 44.2012L3.15739 44.1029L3.07833 43.3029L2.08317 43.4012L1.08802 43.4996L1.16708 44.2996L2.16223 44.2012ZM2.08317 43.4012L3.07833 43.3029C3.03028 42.8168 3.01707 42.3311 3.03861 41.8455L2.03959 41.8012L1.04057 41.7569C1.0148 42.338 1.03065 42.919 1.08802 43.4996L2.08317 43.4012ZM2.03959 41.8012L3.03861 41.8455L3.07408 41.0455L2.07506 41.0012L1.07605 40.9569L1.04057 41.7569L2.03959 41.8012ZM2.07506 41.0012L3.07408 41.0455L3.10956 40.2455L2.11054 40.2012L1.11152 40.1569L1.07605 40.9569L2.07506 41.0012ZM2.11054 40.2012L3.10956 40.2455C3.13687 39.6297 3.08838 39.0152 2.96535 38.4039L1.98501 38.6012L1.00467 38.7985C1.09631 39.2539 1.13151 39.7061 1.11152 40.1569L2.11054 40.2012ZM1.98501 38.6012L2.96535 38.4039L2.80435 37.6039L1.82401 37.8012L0.843664 37.9985L1.00467 38.7985L1.98501 38.6012ZM1.82401 37.8012L2.80435 37.6039L2.64335 36.8039L1.663 37.0012L0.682661 37.1985L0.843664 37.9985L1.82401 37.8012ZM1.663 37.0012L2.64335 36.8039C2.57059 36.4424 2.58997 36.0816 2.71011 35.7055L1.75752 35.4012L0.804936 35.097C0.584384 35.7875 0.540746 36.4934 0.682661 37.1985L1.663 37.0012ZM1.75752 35.4012L2.71011 35.7055L2.96564 34.9055L2.01305 34.6012L1.06046 34.297L0.804936 35.097L1.75752 35.4012ZM2.01305 34.6012L2.96564 34.9055L3.22116 34.1055L2.26857 33.8012L1.31598 33.497L1.06046 34.297L2.01305 34.6012ZM2.26857 33.8012L3.22116 34.1055C3.44546 33.4032 3.477 32.6853 3.3084 31.9714L2.33517 32.2012L1.36194 32.4311C1.44524 32.7838 1.43238 33.1326 1.31598 33.497L2.26857 33.8012ZM2.33517 32.2012L3.3084 31.9714L3.11947 31.1714L2.14624 31.4012L1.17301 31.6311L1.36194 32.4311L2.33517 32.2012ZM2.14624 31.4012L3.11947 31.1714L2.93054 30.3714L1.95731 30.6012L0.984082 30.8311L1.17301 31.6311L2.14624 31.4012ZM1.95731 30.6012L2.93054 30.3714C2.82826 29.9383 2.79642 29.5109 2.83231 29.0853L1.83584 29.0012L0.839379 28.9172C0.785324 29.5582 0.834454 30.1975 0.984082 30.8311L1.95731 30.6012ZM1.83584 29.0012L2.83231 29.0853L2.89976 28.2852L1.9033 28.2012L0.906838 28.1172L0.839379 28.9172L1.83584 29.0012ZM1.9033 28.2012L2.89976 28.2852L2.96722 27.4853L1.97076 27.4012L0.974296 27.3172L0.906838 28.1172L1.9033 28.2012ZM1.97076 27.4012L2.96722 27.4853C3.01374 26.9337 3.045 26.382 3.061 25.8302L2.06142 25.8012L1.06184 25.7722C1.04691 26.2871 1.01773 26.8021 0.974296 27.3172L1.97076 27.4012ZM2.06142 25.8012L3.061 25.8302L3.0842 25.0302L2.08462 25.0012L1.08504 24.9722L1.06184 25.7722L2.06142 25.8012ZM2.08462 25.0012L3.0842 25.0302L3.10739 24.2302L2.10781 24.2012L1.10823 24.1722L1.08504 24.9722L2.08462 25.0012ZM2.10781 24.2012L3.10739 24.2302C3.12505 23.6213 3.07409 23.0137 2.95555 22.4089L1.97422 22.6012L0.99289 22.7936C1.0834 23.2554 1.12151 23.7145 1.10823 24.1722L2.10781 24.2012ZM1.97422 22.6012L2.95555 22.4089L2.79876 21.6089L1.81743 21.8012L0.836096 21.9936L0.99289 22.7936L1.97422 22.6012ZM1.81743 21.8012L2.79876 21.6089L2.64196 20.8089L1.66063 21.0012L0.679303 21.1936L0.836096 21.9936L1.81743 21.8012ZM1.66063 21.0012L2.64196 20.8089C2.56056 20.3935 2.55528 19.9821 2.62539 19.5686L1.63946 19.4014L0.653538 19.2342C0.542818 19.8872 0.551651 20.5422 0.679303 21.1936L1.66063 21.0012ZM1.63946 19.4014L2.62539 19.5686L2.76101 18.7688L1.77509 18.6016L0.789163 18.4344L0.653538 19.2342L1.63946 19.4014ZM1.77509 18.6016L2.76101 18.7688L2.89664 17.969L1.91071 17.8018L0.924788 17.6346L0.789163 18.4344L1.77509 18.6016ZM1.91071 17.8018L2.89664 17.969C2.98604 17.4418 3.07937 16.9205 3.17664 16.4052L2.19399 16.2197L1.21133 16.0342C1.11173 16.562 1.01622 17.0954 0.924788 17.6346L1.91071 17.8018ZM2.19399 16.2197L3.17664 16.4052L3.32429 15.6229L2.34163 15.4374L1.35898 15.2519L1.21133 16.0342L2.19399 16.2197ZM2.34163 15.4374L3.32429 15.6229L3.47193 14.8405L2.48928 14.6551L1.50663 14.4696L1.35898 15.2519L2.34163 15.4374ZM2.48928 14.6551L3.47193 14.8405C3.55017 14.426 3.69148 14.0395 3.8967 13.6766L3.02625 13.1843L2.1558 12.6921C1.84193 13.2471 1.62526 13.8411 1.50663 14.4696L2.48928 14.6551ZM3.02625 13.1843L3.8967 13.6766L4.28602 12.9882L3.41557 12.4959L2.54512 12.0037L2.1558 12.6921L3.02625 13.1843ZM3.41557 12.4959L4.28602 12.9882L4.67534 12.2997L3.80489 11.8075L2.93444 11.3152L2.54512 12.0037L3.41557 12.4959ZM3.80489 11.8075L4.67534 12.2997C4.96871 11.781 5.20917 11.2318 5.39738 10.6537L4.44651 10.3441L3.49563 10.0345C3.34745 10.4896 3.16017 10.9161 2.93444 11.3152L3.80489 11.8075ZM4.44651 10.3441L5.39738 10.6537L5.64968 9.8787L4.69881 9.56913L3.74793 9.25956L3.49563 10.0345L4.44651 10.3441ZM4.69881 9.56913L5.64968 9.8787L5.90198 9.10375L4.95111 8.79418L4.00023 8.48461L3.74793 9.25956L4.69881 9.56913ZM4.95111 8.79418L5.90198 9.10375C6.02195 8.73528 6.21369 8.42229 6.48239 8.1528L5.77427 7.44672L5.06614 6.74063C4.5737 7.2345 4.21667 7.81982 4.00023 8.48461L4.95111 8.79418ZM5.77427 7.44672L6.48239 8.1528L7.05326 7.58029L6.34513 6.8742L5.637 6.16812L5.06614 6.74063L5.77427 7.44672ZM6.34513 6.8742L7.05326 7.58029L7.62412 7.00778L6.91599 6.30169L6.20786 5.59561L5.637 6.16812L6.34513 6.8742ZM6.91599 6.30169L7.62412 7.00778C7.93559 6.6954 8.28233 6.43756 8.66655 6.23182L8.19449 5.35025L7.72243 4.46869C7.16313 4.76818 6.65754 5.14463 6.20786 5.59561L6.91599 6.30169ZM8.19449 5.35025L8.66655 6.23182L9.37419 5.85289L8.90213 4.97133L8.43007 4.08976L7.72243 4.46869L8.19449 5.35025ZM8.90213 4.97133L9.37419 5.85289L10.0818 5.47397L9.60977 4.5924L9.13771 3.71084L8.43007 4.08976L8.90213 4.97133ZM9.60977 4.5924L10.0818 5.47397C10.5112 5.24405 10.9482 5.04976 11.3929 4.89045L11.0556 3.94903L10.7184 3.00761C10.1788 3.2009 9.65185 3.43552 9.13771 3.71084L9.60977 4.5924ZM11.0556 3.94903L11.3929 4.89045L12.1311 4.62601L11.7939 3.68458L11.4567 2.74316L10.7184 3.00761L11.0556 3.94903ZM11.7939 3.68458L12.1311 4.62601L12.8693 4.36156L12.5321 3.42014L12.1949 2.47871L11.4567 2.74316L11.7939 3.68458ZM12.5321 3.42014L12.8693 4.36156C13.3327 4.1956 13.8017 4.05159 14.2764 3.92948L14.0274 2.961L13.7783 1.99251C13.2437 2.13 12.7159 2.29208 12.1949 2.47871L12.5321 3.42014ZM14.0274 2.961L14.2764 3.92948L15.0334 3.73478L14.7844 2.7663L14.5353 1.79782L13.7783 1.99251L14.0274 2.961ZM14.7844 2.7663L15.0334 3.73478L15.7905 3.54009L15.5414 2.57161L15.2923 1.60312L14.5353 1.79782L14.7844 2.7663ZM15.5414 2.57161L15.7905 3.54009C16.2992 3.40924 16.706 3.29943 17.0056 3.2114L16.7238 2.25194L16.4419 1.29249C16.1744 1.37108 15.7929 1.47438 15.2923 1.60312L15.5414 2.57161ZM16.7238 2.25194L17.0056 3.2114L17.431 3.08643L17.1492 2.12698L16.8673 1.16752L16.4419 1.29249L16.7238 2.25194ZM17.1492 2.12698L17.431 3.08643L17.8564 2.96147L17.5746 2.00201L17.2927 1.04255L16.8673 1.16752L17.1492 2.12698ZM17.5746 2.00201L17.8564 2.96147C17.9939 2.92109 18.0735 2.90036 18.1099 2.8923C18.1364 2.88643 18.1061 2.89489 18.0502 2.89919C18.0368 2.90022 17.9264 2.91056 17.7859 2.88077C17.7186 2.8665 17.5495 2.82441 17.3784 2.68917C17.1675 2.52258 17 2.24647 17 1.90778H18H19C19 1.56652 18.8314 1.28826 18.6183 1.11992C18.4449 0.982929 18.2726 0.939499 18.2008 0.924282C18.0515 0.892618 17.9278 0.902696 17.8967 0.905092C17.8053 0.912128 17.7218 0.929798 17.6774 0.939631C17.572 0.962985 17.4389 0.999615 17.2927 1.04255L17.5746 2.00201ZM18 1.90778H17V1.93852H18H19V1.90778H18ZM18 1.93852H17V1.96926H18H19V1.93852H18ZM18 1.96926H17C17 2.58613 17.4981 2.83826 17.5556 2.86701C17.6804 2.92948 17.7898 2.95098 17.8229 2.95739C17.908 2.9738 17.9819 2.97701 18.0107 2.97814C18.0838 2.98102 18.1651 2.97914 18.2375 2.97643C18.3907 2.97068 18.6062 2.95685 18.8757 2.93639L18.8 1.93926L18.7243 0.94213C18.4604 0.962165 18.276 0.973577 18.1625 0.977832C18.1015 0.98012 18.0828 0.979431 18.0893 0.979686C18.0928 0.979824 18.1032 0.980278 18.1183 0.981649C18.1313 0.98282 18.1619 0.985888 18.202 0.993645C18.2269 0.998444 18.33 1.0181 18.4507 1.07848C18.5119 1.1091 18.6313 1.17632 18.7453 1.3035C18.8717 1.44442 19 1.67243 19 1.96926H18ZM18.8 1.93926L18.8757 2.93639L19.6757 2.87565L19.6 1.87852L19.5243 0.881391L18.7243 0.94213L18.8 1.93926Z" fill="#60452E" style="fill:#60452E;fill:color(display-p3 0.3765 0.2706 0.1804);fill-opacity:1;"/>
</svg>
