<svg width="54" height="54" viewBox="0 0 54 54" fill="none" xmlns="http://www.w3.org/2000/svg">
<path d="M27.7002 11.4818C26.918 11.4818 21.8393 21.1923 19.8586 28.5767C18.3655 34.1734 20.1126 42.4517 26.8571 42.6244C33.6016 42.7971 36.1105 34.5594 34.5869 28.404C31.9561 17.7896 28.4924 11.4717 27.7002 11.4717V11.4818Z" fill="#C1E3ED" style="fill:#C1E3ED;fill:color(display-p3 0.7569 0.8902 0.9294);fill-opacity:1;"/>
<path d="M19.8694 28.576C18.3763 34.1727 20.1233 42.5322 26.8678 42.6237C34.9328 42.7354 36.1212 34.5587 34.5976 28.4033" fill="#C1E3ED" style="fill:#C1E3ED;fill:color(display-p3 0.7569 0.8902 0.9294);fill-opacity:1;"/>
<path d="M19.8689 28.576C18.3757 34.1727 19.1883 42.4002 26.8673 42.6237C34.9323 42.8573 36.1207 34.5587 34.5971 28.4033" fill="#C1E3ED" style="fill:#C1E3ED;fill:color(display-p3 0.7569 0.8902 0.9294);fill-opacity:1;"/>
<path d="M27.2126 26.5545C25.2523 26.199 23.0786 28.0679 23.2919 30.1096C23.3833 31.9074 25.4452 33.4615 27.1822 32.852C29.8434 32.0598 30.2091 27.3975 27.4259 26.6052L27.2126 26.5545Z" fill="white" style="fill:white;fill-opacity:1;"/>
<path d="M27.4362 44.6659C27.3448 44.6659 27.2432 44.6659 27.1518 44.6659C24.3078 44.5948 21.9005 43.3556 20.2042 41.0803C17.4414 37.383 17.2281 31.8777 18.2438 28.0585C19.1377 24.7168 20.773 20.4608 22.7435 16.3775C26.0853 9.45019 26.9893 9.4502 28.0457 9.4502C29.102 9.4502 30.3209 9.88697 32.6571 15.1383C33.7643 17.6371 35.4098 21.8828 36.9029 27.9163C38.1015 32.7716 37.1975 38.0026 34.5972 41.2428C32.7993 43.4775 30.3311 44.6557 27.4362 44.6557V44.6659ZM28.0558 14.925C26.3697 17.9418 23.5459 23.9245 22.1645 29.1047C21.2707 32.4465 21.809 36.4587 23.4545 38.6425C24.4093 39.9122 25.6485 40.5521 27.2534 40.6029C29.0005 40.6537 30.3717 40.0341 31.4281 38.7136C33.2056 36.4993 33.8354 32.4668 32.9619 28.9016C31.3164 22.2485 29.3357 17.4136 28.0558 14.9352V14.925Z" fill="#6F97A5" style="fill:#6F97A5;fill:color(display-p3 0.4353 0.5922 0.6471);fill-opacity:1;"/>
<path d="M27.3655 44.656C27.3046 44.656 27.2335 44.656 27.1725 44.656C24.3386 44.6154 21.9415 43.4066 20.235 41.1618C17.4316 37.4544 17.2081 31.9085 18.2442 28.0588L22.1751 29.105C21.2711 32.4773 21.8196 36.5199 23.4854 38.7139C24.43 39.9633 25.6591 40.5829 27.2436 40.6032C29.3157 40.654 30.8596 40.0141 31.8957 38.7037C33.5209 36.6621 33.9373 32.8125 32.9724 28.9019L36.9134 27.9268C38.2136 33.168 37.5229 38.1451 35.075 41.2329C33.8256 42.8073 31.4792 44.6763 27.3757 44.6763L27.3655 44.656Z" fill="#6F97A5" style="fill:#6F97A5;fill:color(display-p3 0.4353 0.5922 0.6471);fill-opacity:1;"/>
<path d="M27.5378 44.6646C27.4058 44.6646 27.2738 44.6646 27.1417 44.6646C24.0234 44.5732 21.4841 43.334 19.7979 41.079C17.0656 37.4122 17.1976 31.9475 18.2337 28.0572L22.1646 29.1035C21.352 32.1608 21.3114 36.2949 23.0584 38.6412C23.9929 39.9008 25.3743 40.5407 27.2636 40.5915C29.3154 40.6524 30.8187 40.0633 31.8547 38.7835C33.5104 36.7317 33.937 32.8515 32.9619 28.8901L36.903 27.915C37.9187 32.0085 37.9593 37.6864 35.0137 41.333C33.7745 42.8667 31.4789 44.6646 27.5277 44.6646H27.5378Z" fill="#6F97A5" style="fill:#6F97A5;fill:color(display-p3 0.4353 0.5922 0.6471);fill-opacity:1;"/>
</svg>
