<svg xmlns="http://www.w3.org/2000/svg" viewBox="0 0 280 72" preserveAspectRatio="none">
  <path id="seed-status-shape" d="M 28,3 L 30.52,2.77 L 33.03,2.55 L 35.55,3.2 L 38.07,2.44 L 40.58,3.05 L 43.1,2.83 L 45.62,2.43 L 48.13,3.01 L 50.65,2.4 L 53.17,2.91 L 55.69,2.44 L 58.2,2.47 L 60.72,2.9 L 63.24,3.42 L 65.75,2.51 L 68.27,2.64 L 70.79,3.17 L 73.3,3.58 L 75.82,3.1 L 78.34,2.87 L 80.85,3.62 L 83.37,2.41 L 85.89,3.47 L 88.4,2.73 L 90.92,2.54 L 93.44,2.5 L 95.96,2.75 L 98.47,3.41 L 100.99,2.58 L 103.51,3.11 L 106.02,3.18 L 108.54,2.83 L 111.06,3.06 L 113.57,2.43 L 116.09,2.43 L 118.61,2.62 L 121.12,3.23 L 123.64,2.91 L 126.16,2.76 L 128.67,3.11 L 131.19,2.94 L 133.71,2.74 L 136.22,3.38 L 138.74,3.26 L 141.26,2.67 L 143.78,3.1 L 146.29,3.03 L 148.81,3.49 L 151.33,3.3 L 153.84,2.72 L 156.36,3.62 L 158.88,2.5 L 161.39,2.89 L 163.91,3.33 L 166.43,2.55 L 168.94,2.99 L 171.46,2.4 L 173.98,3.22 L 176.49,3.34 L 179.01,3.09 L 181.53,3.49 L 184.04,2.76 L 186.56,3.25 L 189.08,3.12 L 191.6,3.1 L 194.11,2.94 L 196.63,3.44 L 199.15,3.58 L 201.66,2.97 L 204.18,3.21 L 206.7,2.43 L 209.21,3.26 L 211.73,3.19 L 214.25,3.64 L 216.76,3.42 L 219.28,2.72 L 221.8,2.85 L 224.31,3.22 L 226.83,2.38 L 229.35,2.95 L 231.87,2.57 L 234.38,2.5 L 236.9,2.43 L 239.42,3.35 L 241.93,2.52 L 244.45,2.67 L 246.97,2.86 L 249.48,3.48 L 252.0,2.45 Q 280,0 277,28 L 276.93,30.67 L 277.06,33.33 L 277.5,36.0 L 277.42,38.67 L 277.47,41.33 L 276.71,44.0 Q 280,72 252,69 L 249.48,68.89 L 246.97,68.82 L 244.45,69.5 L 241.93,69.6 L 239.42,68.55 L 236.9,68.58 L 234.38,68.65 L 231.87,68.65 L 229.35,68.98 L 226.83,69.12 L 224.31,68.69 L 221.8,68.36 L 219.28,68.89 L 216.76,68.83 L 214.25,69.09 L 211.73,69.59 L 209.21,69.25 L 206.7,69.02 L 204.18,69.15 L 201.66,69.23 L 199.15,68.42 L 196.63,69.52 L 194.11,69.36 L 191.6,69.49 L 189.08,69.39 L 186.56,68.86 L 184.04,68.87 L 181.53,68.48 L 179.01,69.17 L 176.49,68.43 L 173.98,68.44 L 171.46,68.62 L 168.94,68.56 L 166.43,68.79 L 163.91,68.42 L 161.39,68.35 L 158.88,68.55 L 156.36,68.48 L 153.84,68.82 L 151.33,68.38 L 148.81,69.49 L 146.29,69.15 L 143.78,68.54 L 141.26,68.68 L 138.74,68.8 L 136.22,68.82 L 133.71,68.51 L 131.19,69.45 L 128.67,69.64 L 126.16,68.96 L 123.64,68.98 L 121.12,68.46 L 118.61,68.48 L 116.09,68.8 L 113.57,68.69 L 111.06,69.43 L 108.54,68.56 L 106.02,68.38 L 103.51,69.59 L 100.99,69.04 L 98.47,68.54 L 95.96,69.06 L 93.44,68.39 L 90.92,69.04 L 88.4,69.62 L 85.89,69.47 L 83.37,69.26 L 80.85,68.69 L 78.34,68.83 L 75.82,68.57 L 73.3,69.35 L 70.79,69.04 L 68.27,69.36 L 65.75,68.78 L 63.24,68.64 L 60.72,69.4 L 58.2,69.63 L 55.69,69.46 L 53.17,69.4 L 50.65,69.41 L 48.13,69.31 L 45.62,68.64 L 43.1,69.02 L 40.58,68.81 L 38.07,68.39 L 35.55,68.39 L 33.03,68.71 L 30.52,68.69 L 28.0,69.25 Q 0,72 3,44 L 3.59,41.33 L 2.93,38.67 L 3.57,36.0 L 3.63,33.33 L 3.59,30.67 L 2.82,28.0 Q 0,0 28,3 Z" fill="#F5EFE3" stroke="#F5EFE3" stroke-width="3" stroke-linejoin="round"/>
</svg>
