<svg width="25" height="23" viewBox="0 0 25 23" fill="none" xmlns="http://www.w3.org/2000/svg">
<path d="M10.352 2.19646C7.65203 1.53646 4.08203 2.89646 3.33203 4.56646C2.58203 6.23646 1.83203 13.0665 7.50203 15.6465C13.172 18.2265 20.172 21.7265 21.752 20.4765C23.332 19.2265 22.752 11.8965 20.172 8.97646C17.592 6.05646 14.292 3.15646 10.352 2.18646V2.19646Z" fill="#C1E3ED" style="fill:#C1E3ED;fill:color(display-p3 0.7569 0.8902 0.9294);fill-opacity:1;"/>
<path d="M5.58219 4.26604C0.992195 8.17604 6.9422 10.956 10.5522 8.24604C11.6722 7.41604 12.3522 5.73604 11.4722 4.51604C10.2322 2.80604 7.37219 3.00604 5.74219 4.15604L5.5922 4.26604H5.58219Z" fill="white" style="fill:white;fill-opacity:1;"/>
<path d="M20.7526 22.4364C20.6426 22.4364 20.5226 22.4364 20.4126 22.4164C20.0626 22.3864 19.7226 22.3364 19.3726 22.2764C17.1226 21.8964 15.0026 21.0664 13.0326 20.2264C8.75265 18.3964 2.92265 15.8864 0.772646 11.2764C-0.517354 8.57644 -0.177354 5.55644 1.68265 3.22644C3.79265 0.596436 7.28265 -0.543564 10.7926 0.246436C15.4426 1.27644 19.5626 4.36644 22.0926 8.70644C23.0626 10.3764 23.7926 12.1764 24.2626 14.0764C24.4926 15.0164 24.6626 15.9664 24.7526 16.9064V17.0164C24.8726 18.0364 25.0226 19.5864 23.8926 20.9164C23.0826 21.8764 21.9026 22.4364 20.7426 22.4364H20.7526ZM8.60265 3.99644C6.85265 3.99644 5.53265 4.82644 4.81265 5.72644C3.91265 6.84644 3.76265 8.25644 4.39265 9.57644C5.90265 12.8164 10.9226 14.9764 14.5926 16.5464C16.3426 17.2964 18.2026 18.0264 20.0326 18.3364C20.2626 18.3764 20.4826 18.4064 20.7126 18.4264C20.7526 18.4064 20.8026 18.3664 20.8426 18.3264C20.8726 18.2164 20.8126 17.7164 20.7826 17.4064V17.2864C20.6926 16.5364 20.5626 15.7764 20.3726 15.0264C19.9926 13.5064 19.4026 12.0464 18.6226 10.7064C16.6526 7.31644 13.4726 4.92644 9.90265 4.12644C9.44265 4.02644 9.00265 3.97644 8.58265 3.97644L8.60265 3.99644Z" fill="#6F97A5" style="fill:#6F97A5;fill:color(display-p3 0.4353 0.5922 0.6471);fill-opacity:1;"/>
</svg>
