<svg width="196" height="196" viewBox="0 0 196 196" fill="none" xmlns="http://www.w3.org/2000/svg">
<path d="M160.55 164.414C151.896 165.89 143.135 170.117 143.63 173.765C144.126 177.414 145.201 180.555 148.353 180.85C151.506 181.145 155.733 179.079 160.255 180.059C164.777 181.039 167.245 184.782 173.243 184.097C179.241 183.412 187.908 179.669 188.592 175.041C189.277 170.412 179.536 164.709 174.424 164.213C169.311 163.717 160.55 164.414 160.55 164.414Z" fill="#C1E3ED" style="fill:#C1E3ED;fill:color(display-p3 0.7569 0.8902 0.9294);fill-opacity:1;"/>
<path d="M20.4695 152.477C16.7856 152.348 9.05191 153.658 7.74131 157.861C6.43071 162.065 10.6223 172.03 19.5485 170.59C28.4748 169.149 37.9206 164.946 38.3102 161.534C38.6999 158.121 32.017 152.879 20.4695 152.477Z" fill="#C1E3ED" style="fill:#C1E3ED;fill:color(display-p3 0.7569 0.8902 0.9294);fill-opacity:1;"/>
<path d="M176.207 167.07C174.011 167.07 170.303 167.873 170.823 170.412C171.295 172.679 173.704 175.595 178.368 175.064C183.031 174.533 186.314 173.742 186.03 171.392C185.747 169.042 179.678 167.059 176.207 167.059V167.07Z" fill="white" style="fill:white;fill-opacity:1;"/>
<path d="M20.0682 172.807C17.9783 172.807 15.9357 172.5 13.9639 171.875C9.48892 170.446 6.3482 168.12 4.8723 165.121C4.12844 163.598 3.84507 161.909 4.08121 160.221C4.93133 153.975 11.0711 150.008 20.4815 149.594C24.6376 149.394 34.5321 151.318 38.7354 155.604C40.5065 157.411 40.7899 159.194 40.719 160.362C40.5419 163.102 38.8299 165.546 35.7718 167.411C32.6901 169.289 30.1043 170.576 27.6366 171.461C25.1217 172.359 22.5595 172.807 20.0564 172.807H20.0682ZM20.7058 154.305C18.0964 154.423 9.54796 155.226 8.76868 160.858C8.66242 161.602 8.7923 162.358 9.1229 163.031C10.2564 165.321 13.161 166.656 15.4043 167.364C18.734 168.427 22.4296 168.297 26.0663 167.01C28.2152 166.242 30.5294 165.097 33.3159 163.385C34.4966 162.665 35.9253 161.496 36.0198 160.067C36.0434 159.678 35.6892 159.217 35.3822 158.91C32.6547 156.135 24.5549 154.152 20.7058 154.305Z" fill="#6F97A5" style="fill:#6F97A5;fill:color(display-p3 0.4353 0.5922 0.6471);fill-opacity:1;"/>
<path d="M172.913 186.516C171.851 186.516 170.752 186.41 169.643 186.186C167.624 185.761 165.829 184.981 164.081 184.226C162.464 183.529 160.941 182.868 159.382 182.537C157.977 182.242 156.218 182.431 154.364 182.632C150.479 183.045 145.638 183.564 142.321 179.302C141.14 177.791 140.609 175.925 140.857 174.166C141.352 170.695 144.446 168.345 146.748 166.881C149.063 165.393 151.648 164.224 154.411 163.398C158.473 162.182 162.936 161.65 168.521 161.721C171.792 161.756 175.652 161.945 179.502 162.961C181.58 163.504 188.522 165.665 190.789 170.423C191.722 172.395 191.722 174.544 190.778 176.645C190.069 178.216 188.9 179.621 187.094 181.073C186.527 181.522 185.948 181.947 185.358 182.348C182.819 184.037 178.191 186.528 172.925 186.528L172.913 186.516ZM157.682 177.661C158.567 177.661 159.465 177.732 160.339 177.909C162.381 178.334 164.199 179.125 165.959 179.881C167.553 180.577 169.064 181.227 170.611 181.557C174.165 182.301 178.581 181.156 182.713 178.405C183.185 178.086 183.658 177.743 184.118 177.377C185.323 176.409 186.055 175.559 186.456 174.685C186.834 173.847 186.846 173.15 186.515 172.442C185.488 170.281 181.532 168.369 178.285 167.518C174.932 166.633 171.437 166.479 168.462 166.444C163.397 166.385 159.358 166.845 155.769 167.92C153.384 168.628 151.271 169.597 149.299 170.848C146.973 172.348 145.698 173.682 145.544 174.815C145.473 175.299 145.674 175.902 146.052 176.386C147.681 178.464 150.078 178.334 153.868 177.921C155.132 177.791 156.407 177.649 157.694 177.649L157.682 177.661Z" fill="#6F97A5" style="fill:#6F97A5;fill:color(display-p3 0.4353 0.5922 0.6471);fill-opacity:1;"/>
</svg>
