<svg width="54" height="54" viewBox="0 0 54 54" fill="none" xmlns="http://www.w3.org/2000/svg">
<path d="M27.7256 11.4346C26.3442 11.4346 23.9572 17.3259 23.4493 18.301C21.4991 22.0795 19.3457 26.0917 18.2792 30.2257C17.5784 32.9784 17.4666 35.9545 18.523 38.5954C19.8841 42.0185 23.0329 44.0093 26.6591 44.1007C33.7184 44.2632 36.7961 37.8844 35.8617 31.5462C35.2217 27.1785 33.2715 22.8515 31.5752 18.7987C31.1689 17.8134 29.107 11.4346 27.7154 11.4346H27.7256Z" fill="#C1E3ED" style="fill:#C1E3ED;fill:color(display-p3 0.7569 0.8902 0.9294);fill-opacity:1;"/>
<path d="M25.3586 33.7801C24.1398 34.8365 24.2109 37.1524 25.6024 38.0564C26.7807 38.9096 28.802 38.4017 29.3099 37C30.1631 34.9279 27.4104 32.3276 25.5008 33.6785L25.3586 33.7903V33.7801Z" fill="white" style="fill:white;fill-opacity:1;"/>
<path d="M27.2781 46.1315C27.1765 46.1315 27.0648 46.1315 26.9632 46.1315C22.433 46.0197 18.6037 43.4296 16.9785 39.3463C15.8713 36.5632 15.7596 33.2316 16.6534 29.7273C17.6996 25.6643 19.66 21.8655 21.5595 18.1885L21.9861 17.3759C22.0673 17.2235 22.1892 16.9391 22.3619 16.5735C24.566 11.7182 25.9779 9.40234 28.0703 9.40234C30.2745 9.40234 31.5848 11.9315 33.5249 17.254C33.6468 17.5994 33.7483 17.8736 33.8093 18.0158L34.3171 19.2347C35.9322 23.0843 37.6081 27.066 38.2277 31.2509C38.8676 35.6186 37.791 39.8847 35.3329 42.6576C33.3217 44.9329 30.5386 46.1315 27.2882 46.1315H27.2781ZM27.9688 14.3998C27.532 15.1514 26.9124 16.3602 26.049 18.2494C25.8459 18.6964 25.6834 19.0519 25.5919 19.2347L25.1653 20.0574C23.3675 23.5313 21.5087 27.127 20.5843 30.743C20.107 32.6018 19.7514 35.3443 20.7469 37.8532C21.7728 40.423 24.1293 42.0076 27.0444 42.0787C29.2791 42.1396 30.9957 41.4286 32.2755 39.9862C33.9413 38.097 34.6625 35.0599 34.1953 31.8603C33.6569 28.1834 32.0825 24.4454 30.5589 20.8396L30.0409 19.6105C29.9698 19.4378 29.8479 19.1027 29.6854 18.676C28.9236 16.5735 28.3649 15.2428 27.9586 14.4201L27.9688 14.3998Z" fill="#6F97A5" style="fill:#6F97A5;fill:color(display-p3 0.4353 0.5922 0.6471);fill-opacity:1;"/>
</svg>
