<svg width="508" height="400" viewBox="0 0 508 400" fill="none" xmlns="http://www.w3.org/2000/svg">
<path d="M50.1698 88.7071C52.3763 91.0949 53.5456 93.3335 53.225 95.1617C52.7535 97.7734 50.2264 99.4337 47.5484 99.2098C44.1349 98.93 40.646 92.1769 43.0599 88.1848C44.7572 85.3865 47.4352 85.7783 50.1509 88.7071H50.1698Z" fill="#D5B39E" style="fill:#D5B39E;fill:color(display-p3 0.8353 0.7020 0.6196);fill-opacity:1;"/>
<path d="M372.376 82.8315C374.941 86.7304 368.321 92.7372 363.984 93.7819C362.343 94.1737 359.212 92.4201 359.193 89.7151C359.156 86.264 362.437 83.13 365.342 81.5443C368.246 79.9587 370.924 80.6116 372.376 82.8315Z" fill="#D5B39E" style="fill:#D5B39E;fill:color(display-p3 0.8353 0.7020 0.6196);fill-opacity:1;"/>
<path d="M435.498 100.424C433.046 101.581 431.066 98.8948 430.161 97.6636C428.86 95.91 428.049 91.8246 430.104 90.1457C432.876 87.8698 435.743 90.5188 437.101 92.4402C438.761 94.8094 439.439 98.559 435.517 100.424H435.498Z" fill="#D3B19C" style="fill:#D3B19C;fill:color(display-p3 0.8275 0.6941 0.6118);fill-opacity:1;"/>
<path d="M399.401 121.905C397.76 124.088 394.818 123.472 393.536 122.502C391.971 121.327 390.5 118.846 391.179 116.159C391.857 113.473 395.535 114.033 397.195 114.891C399.382 116.048 401.608 118.995 399.401 121.887V121.905Z" fill="#D2B09C" style="fill:#D2B09C;fill:color(display-p3 0.8235 0.6902 0.6118);fill-opacity:1;"/>
<path d="M80.2113 121.686C77.7785 123.533 74.7234 123.533 72.7997 122.545C71.423 121.836 69.6503 120.213 69.8577 117.676C70.0086 115.847 72.4037 113.422 74.8931 112.228C77.7785 110.848 80.6451 111.52 82.7573 113.739C84.6809 115.792 83.8511 118.926 80.2113 121.668V121.686Z" fill="#D3B19C" style="fill:#D3B19C;fill:color(display-p3 0.8275 0.6941 0.6118);fill-opacity:1;"/>
<path d="M216.487 125.573C212.79 129.416 208.623 126.431 207.17 124.043C205.077 120.629 206.265 115.443 211.319 114.716C216.147 114.025 220.032 121.898 216.506 125.573H216.487Z" fill="#D4B29D" style="fill:#D4B29D;fill:color(display-p3 0.8314 0.6980 0.6157);fill-opacity:1;"/>
<path d="M162.946 77.9621C161.928 79.9768 160.042 82.1034 158.609 82.5698C156.383 83.2787 154.478 81.9728 153.422 80.8536C151.744 79.0813 151.536 75.425 153.158 73.2051C155.082 70.5934 158.25 69.6793 160.872 70.5934C163.493 71.5075 164.455 74.9213 162.927 77.9621H162.946Z" fill="#D3B19C" style="fill:#D3B19C;fill:color(display-p3 0.8275 0.6941 0.6118);fill-opacity:1;"/>
<path d="M290.594 148.349C286.068 145.532 287.143 143.704 289.764 140.29C291.612 137.902 295.195 135.738 297.213 139.451C298.93 142.603 293.536 150.196 290.575 148.349H290.594Z" fill="#D4B29D" style="fill:#D4B29D;fill:color(display-p3 0.8314 0.6980 0.6157);fill-opacity:1;"/>
<path d="M290.396 68.1317C286.379 71.0978 283.078 67.1243 282.381 64.7365C281.475 61.6398 282.701 55.5583 287.265 55.8568C291.829 56.1553 293.998 65.464 290.396 68.113V68.1317Z" fill="#D3B19C" style="fill:#D3B19C;fill:color(display-p3 0.8275 0.6941 0.6118);fill-opacity:1;"/>
<path d="M450.113 79.6816C448.472 81.5471 445.7 80.1106 444.663 78.8421C443.625 77.5736 442.758 75.0179 444.568 73.5255C446.002 72.3316 448.095 73.2457 449.189 74.309C450.207 75.2604 452.074 77.443 450.113 79.7002V79.6816Z" fill="#D4B29D" style="fill:#D4B29D;fill:color(display-p3 0.8314 0.6980 0.6157);fill-opacity:1;"/>
<path d="M262.39 19.3889C262.334 23.437 257.864 23.6795 255.865 22.0379C254.13 20.6202 253.489 16.6467 256.299 15.4714C258.354 14.6133 262.428 16.5534 262.39 19.3889Z" fill="#D2B09B" style="fill:#D2B09B;fill:color(display-p3 0.8235 0.6902 0.6078);fill-opacity:1;"/>
<path d="M156.618 99.0613C159.56 97.2704 162.143 98.6882 162.69 101.113C163.199 103.389 162.502 105.777 159.805 107.288C158.258 108.165 156.259 108.053 154.581 106.038C152.978 104.135 152.997 101.263 156.618 99.0613Z" fill="#D0AE99" style="fill:#D0AE99;fill:color(display-p3 0.8157 0.6824 0.6000);fill-opacity:1;"/>
<path d="M272.8 24.8874C272.895 24.8874 267.765 19.3096 272.065 22.4063C274.158 23.9173 277.572 24.9807 279.722 23.5442C281.702 22.2197 287.397 22.4623 289.264 21.0258C291.414 19.3469 294.3 18.638 296.959 18.2836C302.428 17.5747 307.972 18.5261 313.385 19.235C329.736 21.4362 341.504 28.0774 353.781 37.8898C355.214 39.0278 357.062 39.5128 358.873 39.2703C380.617 36.3228 399.099 42.7774 410.622 62.4956C410.679 63.5589 410.377 64.0999 410.132 64.1559C406.115 64.8275 407.378 68.801 406.737 71.2261C400.476 95.0297 360.721 106.484 334.3 109.972L276.572 112.77C276.27 112.808 275.987 112.826 275.686 112.826L202.286 111.427C173.055 111.334 144.653 111.147 116.817 102.809C106.463 99.712 98.7502 90.9443 90.6596 86.2619C89.0377 85.6463 87.4913 84.527 87.5479 82.8854C88.0194 62.4396 99.5422 55.1083 117.458 55.5187C120.306 55.5933 122.89 53.7465 123.776 51.0602C131.131 28.4505 154.083 20.5222 176.167 28.6743C178.354 29.4765 180.844 29.178 182.597 27.6856C188.708 22.4809 195.101 21.6788 201.777 25.2605C204.002 26.4544 206.737 26.2119 208.755 24.7009C210.452 23.4323 212.15 22.1824 212.47 21.9772C215.224 20.261 218.128 18.7873 221.126 17.556C227.067 15.1309 233.46 13.6572 239.91 13.6199C246.36 13.5826 252.376 14.9817 257.826 18.0784C260.844 19.7946 263.276 22.2757 266.426 23.88C269.575 25.4844 269.274 24.3837 272.8 24.8874Z" fill="#B6937F" style="fill:#B6937F;fill:color(display-p3 0.7137 0.5765 0.4980);fill-opacity:1;"/>
<path d="M311.074 56.0331C313.215 55.7538 315.168 57.4992 315.003 59.7098C314.791 62.4325 313.897 64.5966 312.462 66.2488C309.075 70.135 305.993 71.0658 302.464 70.8098C300.629 70.6935 299.171 69.1111 299.265 67.2261C299.382 64.457 300.982 62.0368 302.464 60.5243C305.287 57.662 307.64 56.4985 311.074 56.0331Z" fill="#8F6451" style="fill:#8F6451;fill:color(display-p3 0.5608 0.3922 0.3176);fill-opacity:1;"/>
<path d="M288.736 23.4889C308.029 19.3475 331.339 23.4889 346.954 37.0696C353.554 42.8153 355.327 44.7368 365.172 42.4795C376.355 39.9238 394.5 43.4123 416.721 72.6052C416.759 72.6425 416.796 72.6798 416.815 72.7358C420.172 76.8212 426.792 73.1648 424.793 68.2959C416.815 55 405.228 45.371 402.795 43.4123C392.347 35.0736 377.619 30.8016 364.512 32.9282C357.571 34.0662 357.873 32.8723 353.102 29.2532C330.622 12.1841 300.391 10.2626 273.517 19.7019C271.989 20.2429 270.273 20.0191 269.047 18.9931C259.825 11.3446 251.546 7.46436 239.759 7.46436C228.99 7.46436 220.07 10.8782 211.074 17.2022C208 19.3662 203.512 17.5566 200.853 16.5866C197.552 15.374 194.799 15.0382 191.423 15.6538C188.047 16.2694 184.596 18.3028 181.522 20.9332C180.146 22.1271 178.543 24.7015 176.826 24.0858C154.007 15.7844 127.963 23.3023 119.306 46.2292C118.684 47.9081 117.1 49.0461 115.289 49.158C95.789 50.2773 85.5486 55.967 82.7009 75.965C82.2482 79.0804 82.4368 81.9719 83.5495 84.1918C84.1153 85.3111 85.4165 85.7402 86.8498 85.8707C89.2261 86.0946 91.3006 84.341 91.6966 82.0278C92.715 75.8531 92.8282 68.3352 97.7126 63.4289C103.766 57.3475 112.215 58.4481 119.797 57.3661C125.228 56.5826 127.416 51.4898 128.679 47.7215C134.865 29.2905 155.553 24.6828 173.469 30.8576C183.616 34.3647 181.164 26.9214 192.819 24.6828C202.361 22.8546 205.153 28.619 210.546 25.0932C225.558 15.2994 236.742 12.7064 253.715 18.62C257.958 20.0937 260.862 22.239 261.579 22.8173C265.671 26.1565 269.632 29.7383 275.629 27.0146C282.456 24.0112 288.698 23.4329 288.698 23.4329L288.736 23.4889Z" fill="#875B48" style="fill:#875B48;fill:color(display-p3 0.5294 0.3569 0.2824);fill-opacity:1;"/>
<path d="M331.622 104.379C331.037 108.166 329.133 109.491 327.416 110.125C325.945 110.666 323.362 110.498 322.589 109.024C320.854 105.704 322.664 100.425 326.398 99.3986C328.774 98.7456 332.263 100.107 331.603 104.361L331.622 104.379Z" fill="#8C624F" style="fill:#8C624F;fill:color(display-p3 0.5490 0.3843 0.3098);fill-opacity:1;"/>
<path d="M115.27 83.2778C117.043 80.1251 120.4 80.7407 122.361 82.5129C124.078 84.0613 125.869 86.4864 123.436 89.4152C122.211 90.889 120.325 91.7657 117.816 90.7957C115.836 90.0122 113.234 86.8968 115.27 83.2778Z" fill="#8A5F4C" style="fill:#8A5F4C;fill:color(display-p3 0.5412 0.3725 0.2980);fill-opacity:1;"/>
<path d="M376.921 64.4554C375.375 66.4515 372.131 65.7053 370.811 64.7725C368.831 63.3734 367.096 59.5305 369.585 57.1427C371.546 55.2585 374.3 56.7883 375.639 58.2247C376.827 59.5119 378.826 62.0116 376.94 64.474L376.921 64.4554Z" fill="#8D624F" style="fill:#8D624F;fill:color(display-p3 0.5529 0.3843 0.3098);fill-opacity:1;"/>
<path d="M149.236 48.1674C151.065 47.9622 152.253 50.1075 152.178 51.2827C152.027 53.4467 148.651 56.5061 146.633 56.4874C145.37 56.4874 143.691 55.5547 143.616 53.4094C143.559 51.9356 145.709 48.5591 149.217 48.1487L149.236 48.1674Z" fill="#8A5F4C" style="fill:#8A5F4C;fill:color(display-p3 0.5412 0.3725 0.2980);fill-opacity:1;"/>
</svg>
