<svg width="7" height="6" viewBox="0 0 7 6" fill="none" xmlns="http://www.w3.org/2000/svg">
<path d="M0.0872152 4.38624C0.00721517 4.19624 -0.0127867 3.98624 0.00721334 3.78624C0.0772133 2.92624 0.54721 2.13624 1.09721 1.49624C1.75721 0.726244 2.62721 0.166243 3.64721 0.0262432C4.21721 -0.0537568 4.82721 0.0462433 5.30721 0.366243C5.85721 0.736243 6.11721 1.32624 6.05721 1.97624C5.95721 3.19624 4.97721 4.12624 3.87721 4.55624C3.05721 4.87624 2.17721 5.13624 1.28721 5.08624C0.857212 5.06624 0.377211 4.90624 0.137211 4.51624C0.117211 4.47624 0.087213 4.43624 0.077213 4.39624L0.0872152 4.38624Z" fill="#6F97A5" style="fill:#6F97A5;fill:color(display-p3 0.4353 0.5922 0.6471);fill-opacity:1;"/>
</svg>
